<svg width="220" height="50" viewBox="0 0 220 50" fill="none" xmlns="http://www.w3.org/2000/svg">
<path fill-rule="evenodd" clip-rule="evenodd" d="M14.517 14.546H35.4735V35.4738H14.517V14.546Z" fill="#FFD60C"/>
<path fill-rule="evenodd" clip-rule="evenodd" d="M31.3359 32.3117L29.7548 32.2254C26.0752 33.4041 22.6543 31.9954 20.642 28.6608C16.5887 29.6382 15.87 24.3487 20.9295 21.9053C21.1594 21.3878 19.0609 18.7718 19.1184 17.6794C19.1184 17.6507 20.3258 16.8745 20.412 17.4495C20.5557 18.2256 21.3894 21.0428 22.2518 20.9566C24.9828 17.4495 30.301 17.8807 29.3236 22.0777C32.572 25.4124 32.3708 28.2583 31.2784 30.8743L31.3359 32.3117Z" fill="#1A2022"/>
<path fill-rule="evenodd" clip-rule="evenodd" d="M0 25.0099C2.01229 22.9976 12.5049 12.505 12.5049 12.505V17.3345L4.8295 25.0099L12.5049 32.6854V37.4861H17.3057L25.0099 45.1903L32.6853 37.4861H37.4861C37.4861 37.4861 26.9934 48.0075 25.0099 49.9911L0 25.0099Z" fill="white"/>
<path fill-rule="evenodd" clip-rule="evenodd" d="M25.0081 0L49.9893 25.0099L37.4843 37.4861C37.4843 35.905 37.4843 34.2952 37.4843 32.6853L45.1598 25.0099L37.4843 17.3344V12.5049H32.6836L25.0081 4.8295L17.3039 12.5049H12.5032C12.5032 12.5049 22.9958 2.01229 25.0081 0Z" fill="#FFD60C"/>
<path fill-rule="evenodd" clip-rule="evenodd" d="M21.7616 26.7347L20.813 26.5623L19.8931 26.3898L20.6692 25.6136L21.4454 24.8374L21.5891 25.7861L21.7616 26.7347Z" fill="#FFD60C"/>
<path d="M58.0106 34.5539V31.3342C58.3843 31.6504 58.8155 31.9667 59.333 32.2254C59.8504 32.4841 60.3966 32.7141 60.9716 32.8866C61.5465 33.059 62.1214 33.2028 62.6964 33.289C63.2713 33.404 63.7888 33.4328 64.2775 33.4328C65.9735 33.4328 67.2384 33.1165 68.0721 32.5129C68.9057 31.8804 69.3082 30.9605 69.3082 29.8106C69.3082 29.1782 69.1645 28.632 68.9057 28.1433C68.6183 27.6834 68.2446 27.2522 67.7559 26.8784C67.2672 26.476 66.6922 26.1023 66.0023 25.7573C65.3411 25.4123 64.6224 25.0386 63.8463 24.6362C63.0413 24.2337 62.2652 23.8025 61.5752 23.3713C60.8566 22.9689 60.2529 22.4802 59.7067 21.9915C59.1892 21.474 58.7868 20.8991 58.4993 20.2379C58.1831 19.6055 58.0394 18.8293 58.0394 17.9669C58.0394 16.9032 58.2693 15.9833 58.7293 15.1784C59.218 14.4022 59.8217 13.7411 60.5691 13.2236C61.3453 12.7062 62.2077 12.3325 63.1851 12.1025C64.1625 11.8438 65.1686 11.7 66.1748 11.7C68.4745 11.7 70.1419 11.9875 71.2055 12.5337V15.6384C69.8256 14.661 68.0433 14.201 65.8873 14.201C65.2836 14.201 64.6799 14.2585 64.105 14.3735C63.5013 14.5172 62.9551 14.7185 62.4952 15.0059C62.0352 15.2647 61.6327 15.6384 61.3453 16.0983C61.0578 16.5295 60.9141 17.0757 60.9141 17.7369C60.9141 18.3118 61.0291 18.8293 61.2303 19.2605C61.4603 19.7204 61.8052 20.0942 62.2364 20.4679C62.6676 20.8128 63.2138 21.1578 63.8175 21.5028C64.4499 21.8477 65.1686 22.2214 65.9735 22.6239C66.8359 23.0263 67.6121 23.4576 68.3595 23.9175C69.1357 24.3775 69.7681 24.8949 70.3431 25.4411C70.918 25.9873 71.3492 26.6197 71.6942 27.2809C72.0392 27.9708 72.1829 28.747 72.1829 29.6094C72.1829 30.7593 71.9529 31.7367 71.5217 32.5416C71.0618 33.3465 70.4581 33.979 69.6819 34.4964C68.9057 34.9851 68.0433 35.3588 67.0372 35.56C66.031 35.79 64.9674 35.905 63.875 35.905C63.5013 35.905 63.0413 35.8763 62.4952 35.8188C61.949 35.7613 61.4028 35.675 60.8278 35.56C60.2529 35.445 59.7354 35.3013 59.218 35.1288C58.7293 34.9564 58.2981 34.7839 58.0106 34.5539ZM89.9198 27.8271H78.1335C78.191 29.6957 78.6797 31.133 79.6284 32.1391C80.6058 33.1453 81.8994 33.6627 83.5954 33.6627C85.464 33.6627 87.1888 33.0303 88.7699 31.7942V34.2952C87.3038 35.3876 85.3778 35.905 82.963 35.905C80.577 35.905 78.7372 35.1576 77.3861 33.634C76.035 32.1104 75.3451 29.9831 75.3451 27.2234C75.3451 24.6074 76.0925 22.5089 77.5586 20.8703C79.0534 19.2317 80.8932 18.3981 83.078 18.3981C85.2628 18.3981 86.9301 19.1168 88.1375 20.5254C89.3448 21.934 89.9198 23.9175 89.9198 26.4185V27.8271ZM87.1888 25.5561C87.1888 24.0037 86.8151 22.7964 86.0677 21.934C85.349 21.1003 84.3141 20.6691 83.0205 20.6691C81.7556 20.6691 80.692 21.1003 79.8008 22.0202C78.9097 22.9114 78.3635 24.09 78.1623 25.5561H87.1888ZM102.712 21.5028C102.224 21.1578 101.562 20.9853 100.671 20.9853C99.5213 20.9853 98.5726 21.5028 97.8252 22.5951C97.049 23.6588 96.6753 25.1249 96.6753 26.9934V35.5025H93.9731V18.8005H96.6753V22.2502C97.1928 20.7266 98.1414 19.7779 98.4864 19.4905C99.2626 18.8293 100.125 18.5131 101.102 18.5131C101.792 18.5131 102.425 18.6281 102.712 18.743V21.5028ZM120.075 18.8005L113.435 35.5025H110.79L104.466 18.8005H107.398L112.112 33.289L117.258 18.8005H120.075ZM124.33 14.546C123.353 14.546 122.605 13.7986 122.605 12.8212C122.605 11.8438 123.353 11.0676 124.33 11.0676C125.336 11.0676 126.084 11.815 126.084 12.8212C126.084 13.7986 125.307 14.546 124.33 14.546ZM125.652 35.5025H122.95V18.8005H125.652V35.5025ZM142.441 34.7551C141.176 35.5313 139.652 35.905 137.87 35.905C135.484 35.905 133.586 35.1288 132.12 33.5765C130.654 32.0242 129.907 30.0119 129.907 27.5396C129.907 24.7799 130.712 22.5951 132.293 20.8991C133.845 19.2317 135.972 18.3981 138.588 18.3981C140.083 18.3981 141.348 18.6855 142.469 19.2317V21.9627C141.233 21.1003 139.911 20.6691 138.502 20.6691C136.806 20.6691 135.398 21.2728 134.305 22.5089C133.213 23.7163 132.667 25.3261 132.667 27.3096C132.667 29.2932 133.184 30.8168 134.19 31.9667C135.225 33.0878 136.605 33.6627 138.33 33.6627C139.796 33.6627 141.176 33.174 142.441 32.1966V34.7551ZM159.919 27.8271H148.132C148.161 29.6957 148.679 31.133 149.627 32.1391C150.576 33.1453 151.898 33.6627 153.594 33.6627C155.463 33.6627 157.188 33.0303 158.769 31.7942V34.2952C157.303 35.3876 155.348 35.905 152.933 35.905C150.576 35.905 148.736 35.1576 147.385 33.634C146.034 32.1104 145.344 29.9831 145.344 27.2234C145.344 24.6074 146.091 22.5089 147.558 20.8703C149.052 19.2317 150.863 18.3981 153.048 18.3981C155.233 18.3981 156.929 19.1168 158.136 20.5254C159.344 21.934 159.919 23.9175 159.919 26.4185V27.8271ZM157.188 25.5561C157.188 24.0037 156.814 22.7964 156.067 21.934C155.348 21.1003 154.313 20.6691 153.019 20.6691C151.755 20.6691 150.662 21.1003 149.8 22.0202C148.909 22.9114 148.362 24.09 148.161 25.5561H157.188ZM185.647 35.5025H173.487V12.1025H176.247V33.0303H185.647V35.5025ZM202.378 35.5025H199.705V32.8578C198.641 34.3814 197.089 35.905 194.501 35.905C190.506 35.905 188.522 33.5477 188.522 28.7757V18.8005H191.167V28.3733C191.167 31.8804 192.518 33.6627 195.22 33.6627C196.542 33.6627 197.606 33.174 198.44 32.1966C199.302 31.248 199.705 29.9831 199.705 28.4308V18.8005H202.378V35.5025ZM220 18.8005L214.394 27.3096L219.914 35.5025H216.78L212.842 28.8332L208.587 35.5025H205.511L211.29 27.3096L205.741 18.8005H208.875L212.842 25.8148L217.039 18.8005H220Z" fill="white"/>
</svg>
