<svg width="470" height="432" viewBox="0 0 470 432" fill="none" xmlns="http://www.w3.org/2000/svg">
<g filter="url(#filter0_d_132_27)">
<path fill-rule="evenodd" clip-rule="evenodd" d="M439.385 207.137V207.178L439.386 207.219C440.12 252.711 403.449 288.72 358.583 288.72C313.763 288.72 277 251.957 277 207.137C277 206.057 277.834 205.223 278.914 205.223H437.471C438.551 205.223 439.385 206.057 439.385 207.137ZM436.011 209.832H281.036L281.638 215.489C285.807 254.677 318.354 285.673 358.583 285.673C398.722 285.673 432.188 254.748 435.539 215.381L436.011 209.832Z" fill="#FFD60C"/>
<path fill-rule="evenodd" clip-rule="evenodd" d="M295.971 206.617L295.791 206.888C295.622 207.141 295.549 207.312 295.517 207.408C295.501 207.455 295.495 207.487 295.492 207.503C295.49 207.519 295.49 207.527 295.49 207.528C295.49 207.529 295.49 207.535 295.491 207.546C295.493 207.558 295.497 207.58 295.506 207.614C295.517 207.65 295.535 207.703 295.567 207.774C296.029 208.177 296.485 208.484 296.884 208.69C297.373 208.943 297.66 208.985 297.727 208.985H418.793C419.351 208.985 419.56 208.885 419.819 208.721C420.15 208.51 420.524 208.196 421.162 207.581C421.285 206.783 421.233 205.996 421 205.173L360.094 83.9252L360.052 83.799C359.997 83.7502 359.9 83.6748 359.745 83.5847C359.521 83.4541 359.283 83.3571 359.066 83.2945C358.838 83.229 358.689 83.2167 358.646 83.2167C357.944 83.2167 357.707 83.3861 357.691 83.3971C357.682 83.4039 357.656 83.4229 357.617 83.4838C357.573 83.5503 357.496 83.6966 357.425 83.9776L357.288 84.5267L295.971 206.617ZM358.646 89.7686L301.102 205.29H416.2L358.646 89.7686Z" fill="#FFD60C"/>
<path fill-rule="evenodd" clip-rule="evenodd" d="M192.635 206.288V206.33L192.636 206.372C193.368 251.05 156.731 287.09 111.833 287.09C66.9529 287.09 30.25 251.048 30.25 206.288C30.25 205.208 31.0839 204.374 32.164 204.374H190.721C191.801 204.374 192.635 205.208 192.635 206.288ZM189.261 208.202H34.286L34.8878 213.859C39.0568 253.047 71.6041 284.043 111.833 284.043C151.972 284.043 185.438 253.119 188.789 213.751L189.261 208.202Z" fill="#FFD60C"/>
<path fill-rule="evenodd" clip-rule="evenodd" d="M113.298 82.7069L174.476 205.102C174.661 205.755 174.731 206.383 174.693 207.009C174.246 207.286 173.846 207.516 173.467 207.705C172.648 208.115 172.308 208.135 172.27 208.135H51.204C51.1368 208.135 50.8499 208.093 50.3608 207.84C49.9611 207.634 49.5057 207.327 49.0435 206.924C49.0116 206.853 48.9934 206.8 48.9829 206.763C48.9734 206.73 48.9695 206.708 48.9678 206.696C48.9662 206.685 48.9662 206.679 48.9662 206.678C48.9662 206.677 48.9661 206.669 48.9688 206.653C48.9715 206.636 48.9779 206.605 48.9937 206.558C49.0253 206.462 49.0984 206.291 49.2674 206.038L49.4506 205.763L110.076 83.3679C110.492 82.8024 110.908 82.4511 111.245 82.2462C111.424 82.1374 111.575 82.0728 111.688 82.037C111.79 82.0047 111.844 82.0006 111.851 82.0001C111.851 82 111.851 82 111.851 82C111.894 82 112.043 82.0123 112.271 82.0778C112.488 82.1404 112.726 82.2374 112.95 82.368C113.105 82.4582 113.202 82.5335 113.257 82.5823L113.298 82.7069ZM111.843 87.7385L54.5974 204.44H169.67L111.843 87.7385Z" fill="#FFD60C"/>
<path d="M234.526 391.631C233.935 390.78 233.398 389.308 233.398 387.4V64.012C233.398 62.1047 233.935 60.6326 234.526 59.7811C234.823 59.3517 235.058 59.1714 235.176 59.1008C235.205 59.0836 235.228 59.0721 235.246 59.0645C235.263 59.0721 235.286 59.0836 235.315 59.1008C235.433 59.1714 235.668 59.3517 235.966 59.7811C236.556 60.6326 237.093 62.1047 237.093 64.012V388.527C237.093 389.65 236.682 390.813 236.081 391.613C235.981 391.646 236.181 391.579 236.081 391.613C236.063 391.605 234.381 390.951 235.031 391.631C234.913 391.561 234.823 392.061 234.526 391.631Z" fill="#FFD60C"/>
<path d="M387.55 85.4016H82.9332C81.89 85.4016 81.0859 84.5975 81.0859 83.5543C81.0859 82.5111 81.89 81.707 82.9332 81.707H387.55C388.594 81.707 389.398 82.5111 389.398 83.5543C389.398 84.5975 388.594 85.4016 387.55 85.4016Z" fill="#FFD60C"/>
<path fill-rule="evenodd" clip-rule="evenodd" d="M154.406 391.977H315.655C315.688 391.956 315.755 391.898 315.847 391.758C316.041 391.461 316.221 390.938 316.221 390.25C316.221 389.562 316.041 389.039 315.847 388.742C315.755 388.601 315.688 388.544 315.655 388.522H154.406C154.372 388.544 154.305 388.601 154.214 388.742C154.02 389.039 153.84 389.562 153.84 390.25C153.84 390.938 154.02 391.461 154.214 391.758C154.305 391.898 154.372 391.956 154.406 391.977ZM315.632 388.511C315.632 388.511 315.637 388.512 315.646 388.517C315.636 388.515 315.632 388.512 315.632 388.511ZM154.429 388.511C154.429 388.512 154.424 388.515 154.414 388.517C154.424 388.512 154.428 388.511 154.429 388.511ZM154.429 391.988C154.428 391.989 154.424 391.988 154.414 391.983C154.424 391.985 154.429 391.988 154.429 391.988ZM315.646 391.983C315.637 391.988 315.632 391.989 315.632 391.988C315.632 391.988 315.636 391.985 315.646 391.983Z" fill="#FFD60C"/>
<path fill-rule="evenodd" clip-rule="evenodd" d="M235.241 62.748C223.263 62.748 213.867 53.3522 213.867 41.374C213.867 29.3958 223.263 20 235.241 20C247.219 20 256.615 29.3958 256.615 41.374C256.615 52.5711 246.438 62.748 235.241 62.748ZM235.241 23.6945C225.349 23.6945 217.562 31.4822 217.562 41.374C217.562 50.27 225.139 59.0535 235.241 59.0535C245.133 59.0535 252.921 51.2658 252.921 41.374C252.921 31.2722 244.137 23.6945 235.241 23.6945Z" fill="#FFD60C"/>
</g>
<defs>
<filter id="filter0_d_132_27" x="0.25" y="0" width="469.146" height="431.989" filterUnits="userSpaceOnUse" color-interpolation-filters="sRGB">
<feFlood flood-opacity="0" result="BackgroundImageFix"/>
<feColorMatrix in="SourceAlpha" type="matrix" values="0 0 0 0 0 0 0 0 0 0 0 0 0 0 0 0 0 0 127 0" result="hardAlpha"/>
<feOffset dy="10"/>
<feGaussianBlur stdDeviation="15"/>
<feComposite in2="hardAlpha" operator="out"/>
<feColorMatrix type="matrix" values="0 0 0 0 1 0 0 0 0 0.839216 0 0 0 0 0.0470588 0 0 0 1 0"/>
<feBlend mode="normal" in2="BackgroundImageFix" result="effect1_dropShadow_132_27"/>
<feBlend mode="normal" in="SourceGraphic" in2="effect1_dropShadow_132_27" result="shape"/>
</filter>
</defs>
</svg>
