<svg width="448" height="432" viewBox="0 0 448 432" fill="none" xmlns="http://www.w3.org/2000/svg">
<g filter="url(#filter0_d_128_48)">
<mask id="path-1-outside-1_128_48" maskUnits="userSpaceOnUse" x="10.4637" y="7.96172" width="373.879" height="401.385" fill="black">
<rect fill="white" x="10.4637" y="7.96172" width="373.879" height="401.385"/>
<path d="M329.586 331.404C329.586 331.404 329.876 331.436 330.716 331.821C331.297 331.884 332.46 332.011 333.654 331.846L333.878 331.816C336.28 331.488 340.049 330.972 344.329 328.303C348.454 325.517 352.832 320.406 354.203 313.205C355.283 305.974 356.167 297.839 357.177 288.543L357.178 288.54L357.178 288.537C358.925 272.464 361.051 253.413 363.465 231.776L363.465 231.773L363.467 231.754L363.468 231.747L363.472 231.715C363.98 227.16 364.501 222.49 365.034 217.71L363.86 217.51C363.359 222.237 362.87 226.856 362.393 231.362L362.393 231.368C360.102 253.017 358.085 272.079 356.338 288.152L353.653 312.851C352.573 320.084 348.227 324.904 344.102 327.69C339.686 330.444 336.105 330.937 333.426 331.234C331.038 331.562 329.586 331.404 329.586 331.404Z"/>
<path d="M303.909 185.585C291.457 184.05 274.369 182.048 255.62 180.01C217.554 175.872 186.689 173.105 186.658 173.396C186.595 173.977 217.365 177.616 255.431 181.753C274.225 183.796 291.264 185.505 303.703 186.676L303.909 185.585Z"/>
<path fill-rule="evenodd" clip-rule="evenodd" d="M369.421 165.291C370.512 155.127 371.644 144.628 372.819 133.815L372.667 133.621C372.465 133.642 372.229 133.677 371.966 133.734L371.675 133.703C372.067 133.649 372.393 133.62 372.654 133.604C359.22 116.513 344.964 98.1857 330.013 78.9652L330.01 78.962C319.13 64.9752 307.883 50.5152 296.316 35.7138C296.333 35.9224 296.358 36.1623 296.396 36.434L295.859 41.3739C295.385 45.7326 294.722 51.835 294.191 59.4216C293.37 66.9767 292.391 75.9847 291.576 86.1866L289.87 101.878C289.555 104.784 289.27 107.399 289.858 110.109C290.445 112.819 291.645 115.302 293.136 117.816C296.44 122.585 301.418 125.478 306.648 126.047L322.34 127.752C332.22 128.826 341.228 129.805 349.042 130.949C353.335 131.415 357.15 131.925 360.443 132.365C362.937 132.698 370.783 133.933 372.661 134.138L372.386 134.108C368.027 133.634 356.274 132.029 348.688 131.498C341.133 130.677 332.125 129.698 321.923 128.883L306.231 127.178C300.71 126.577 295.183 123.331 291.62 118.239C289.839 115.693 288.67 112.92 288.083 110.21C287.527 107.21 287.552 104.272 288.127 101.689L289.832 85.9971L289.833 85.9946C290.907 76.1158 291.917 66.8181 293.029 59.2952C293.496 55.0015 294.005 51.1873 294.445 47.8942L294.445 47.8913C294.779 45.3912 295.073 43.1916 295.278 41.3108L295.815 36.3709C295.865 35.9039 295.906 35.53 295.955 35.2528L295.914 35.2001L188.407 23.5147C187.676 23.4352 186.947 23.3374 186.222 23.2401C184.067 22.9509 181.953 22.6671 179.948 22.8893C174.333 23.1609 168.755 25.7888 165.053 30.0907C162.381 33.0344 160.808 36.6856 160.075 40.7222C159.583 43.4354 159.353 46.1771 159.13 48.8304L159.13 48.8324L159.13 48.8334L159.13 48.8354L159.129 48.8365L159.129 48.8376L159.129 48.8389C159.021 50.1301 158.915 51.4003 158.78 52.636L133.797 282.486C133.709 283.29 133.604 284.091 133.499 284.888C133.186 287.261 132.878 289.594 133.077 291.816C133.576 298.045 136.785 303.686 141.699 307.16C144.157 308.897 146.646 310.344 149.52 310.95C152.394 311.557 155.3 311.872 158.206 312.188L191.623 315.821C216.012 318.472 237.644 320.919 256.206 323.018L256.239 323.022C270.172 324.598 282.374 325.979 292.713 327.103L327.583 330.893C328.714 331.31 329.586 331.404 329.586 331.404L307.671 329.023L284.179 338.065L284.178 338.066L284.176 338.066L284.169 338.069L284.156 338.074C261.789 346.683 229.336 359.175 189.355 374.877L157.985 386.952C157.31 387.212 156.641 387.489 155.967 387.767L155.964 387.769L155.963 387.769L155.961 387.77C153.918 388.615 151.836 389.476 149.424 389.934C146.591 390.711 143.17 390.775 140.19 390.356C134.125 389.245 128.311 385.532 124.638 380.056C123.617 378.382 122.892 376.594 122.166 374.806C121.682 373.614 121.198 372.423 120.627 371.264L33.1642 144.036C31.967 140.112 31.8609 135.768 32.7832 131.655C34.9222 125.82 38.8452 120.552 43.9858 117.634C45.8741 116.437 47.9396 115.701 50.005 114.964L50.0073 114.963C50.6949 114.718 51.3833 114.473 52.0643 114.211L153.267 75.2568L153.645 75.4246L154.216 75.688L158.104 39.9199C158.837 35.8834 160.732 31.9731 163.436 28.7388C168.009 24.5317 173.909 21.6449 179.816 21.4048C182.042 21.2058 184.216 21.4972 186.389 21.7885C187.114 21.8857 187.838 21.9828 188.565 22.0618L296.37 33.7796L296.629 34.1018C324.506 69.7674 350.57 103.178 374.044 133.367L374.303 133.689L374.272 133.98C373.093 144.819 371.941 155.343 370.82 165.528L369.421 165.291ZM307.037 328.954L284.347 337.687C274.638 341.424 263.154 345.787 250.041 350.769L250.024 350.775C232.561 357.409 212.209 365.141 189.313 373.954L157.942 386.029C155.215 387.079 152.487 388.128 149.654 388.906C146.822 389.683 143.947 389.537 140.967 389.118C135.006 388.28 129.57 384.735 126.274 379.426C125.08 377.542 124.285 375.327 123.476 373.074C123.205 372.317 122.932 371.556 122.642 370.802L39.5885 155.031C39.1411 153.868 38.653 152.688 38.1569 151.488C37.1396 149.027 36.0884 146.484 35.2837 143.847C34.0865 139.923 33.8126 135.956 34.8399 132.116C36.1606 126.596 39.9157 121.706 44.7836 118.892C46.4638 117.777 48.4735 117.061 50.5218 116.331C51.2102 116.086 51.9031 115.839 52.5893 115.575L153.512 76.7285L154.075 76.9881L146.767 144.224C141.156 146.338 134.915 148.718 128.341 151.248C104.064 160.593 84.6332 168.698 84.7382 168.971C84.9482 169.516 104.694 162.229 128.971 152.885C135.247 150.469 141.2 148.136 146.574 146L142.575 182.789C116.28 193.074 97.3228 200.833 97.4082 201.055C97.5772 201.494 116.404 194.548 142.373 184.651L138.33 221.846C121.103 228.688 109.836 233.344 109.902 233.515C110.032 233.853 121.196 229.823 138.156 223.443L134.071 261.031C126.674 264.04 122.355 265.872 122.396 265.978C122.476 266.185 126.735 264.739 133.954 262.108L131.794 281.974C131.772 283.265 131.656 284.546 131.54 285.828C131.367 287.749 131.193 289.671 131.333 291.627C132.091 298.177 135.559 304.14 140.442 307.905C142.9 309.643 145.97 311.152 148.844 311.759C151.199 312.457 153.443 312.644 155.646 312.829C156.374 312.889 157.098 312.95 157.82 313.028L183.612 315.832C162.012 324.346 147.207 330.432 147.283 330.628C147.44 331.037 163.799 325.034 187.041 316.205L191.237 316.661C233.977 321.012 268.552 324.77 292.38 327.36L292.39 327.361L292.391 327.361L307.037 328.954Z"/>
<path d="M273.041 111.949C273.01 112.24 255.848 111.224 229.986 108.413C204.125 105.602 189.876 103.518 189.939 102.936C189.971 102.646 204.314 103.859 230.176 106.67C256.038 109.481 273.104 111.368 273.041 111.949Z"/>
<path d="M258.18 146.303C296.246 150.441 327.111 153.208 327.143 152.917C327.174 152.626 296.113 148.956 258.369 144.56C220.303 140.422 189.439 137.655 189.407 137.946C189.344 138.527 220.114 142.166 258.18 146.303Z"/>
<path d="M251.673 216.334C289.739 220.472 320.604 223.238 320.635 222.948C320.698 222.367 289.638 218.696 251.862 214.59C213.796 210.453 182.931 207.686 182.9 207.977C182.836 208.558 213.606 212.196 251.673 216.334Z"/>
<path d="M247.942 250.623C286.008 254.761 316.873 257.528 316.905 257.237C316.936 256.946 285.876 253.276 248.132 248.88C210.066 244.742 179.232 241.685 179.169 242.266C179.106 242.847 209.876 246.486 247.942 250.623Z"/>
<path d="M244.184 285.204C282.25 289.341 313.115 292.108 313.147 291.818C313.178 291.527 282.149 287.566 244.374 283.46C206.307 279.323 175.443 276.556 175.411 276.847C175.348 277.428 206.118 281.066 244.184 285.204Z"/>
</mask>
<path d="M329.586 331.404C329.586 331.404 329.876 331.436 330.716 331.821C331.297 331.884 332.46 332.011 333.654 331.846L333.878 331.816C336.28 331.488 340.049 330.972 344.329 328.303C348.454 325.517 352.832 320.406 354.203 313.205C355.283 305.974 356.167 297.839 357.177 288.543L357.178 288.54L357.178 288.537C358.925 272.464 361.051 253.413 363.465 231.776L363.465 231.773L363.467 231.754L363.468 231.747L363.472 231.715C363.98 227.16 364.501 222.49 365.034 217.71L363.86 217.51C363.359 222.237 362.87 226.856 362.393 231.362L362.393 231.368C360.102 253.017 358.085 272.079 356.338 288.152L353.653 312.851C352.573 320.084 348.227 324.904 344.102 327.69C339.686 330.444 336.105 330.937 333.426 331.234C331.038 331.562 329.586 331.404 329.586 331.404Z" fill="#FFD60C"/>
<path d="M303.909 185.585C291.457 184.05 274.369 182.048 255.62 180.01C217.554 175.872 186.689 173.105 186.658 173.396C186.595 173.977 217.365 177.616 255.431 181.753C274.225 183.796 291.264 185.505 303.703 186.676L303.909 185.585Z" fill="#FFD60C"/>
<path fill-rule="evenodd" clip-rule="evenodd" d="M369.421 165.291C370.512 155.127 371.644 144.628 372.819 133.815L372.667 133.621C372.465 133.642 372.229 133.677 371.966 133.734L371.675 133.703C372.067 133.649 372.393 133.62 372.654 133.604C359.22 116.513 344.964 98.1857 330.013 78.9652L330.01 78.962C319.13 64.9752 307.883 50.5152 296.316 35.7138C296.333 35.9224 296.358 36.1623 296.396 36.434L295.859 41.3739C295.385 45.7326 294.722 51.835 294.191 59.4216C293.37 66.9767 292.391 75.9847 291.576 86.1866L289.87 101.878C289.555 104.784 289.27 107.399 289.858 110.109C290.445 112.819 291.645 115.302 293.136 117.816C296.44 122.585 301.418 125.478 306.648 126.047L322.34 127.752C332.22 128.826 341.228 129.805 349.042 130.949C353.335 131.415 357.15 131.925 360.443 132.365C362.937 132.698 370.783 133.933 372.661 134.138L372.386 134.108C368.027 133.634 356.274 132.029 348.688 131.498C341.133 130.677 332.125 129.698 321.923 128.883L306.231 127.178C300.71 126.577 295.183 123.331 291.62 118.239C289.839 115.693 288.67 112.92 288.083 110.21C287.527 107.21 287.552 104.272 288.127 101.689L289.832 85.9971L289.833 85.9946C290.907 76.1158 291.917 66.8181 293.029 59.2952C293.496 55.0015 294.005 51.1873 294.445 47.8942L294.445 47.8913C294.779 45.3912 295.073 43.1916 295.278 41.3108L295.815 36.3709C295.865 35.9039 295.906 35.53 295.955 35.2528L295.914 35.2001L188.407 23.5147C187.676 23.4352 186.947 23.3374 186.222 23.2401C184.067 22.9509 181.953 22.6671 179.948 22.8893C174.333 23.1609 168.755 25.7888 165.053 30.0907C162.381 33.0344 160.808 36.6856 160.075 40.7222C159.583 43.4354 159.353 46.1771 159.13 48.8304L159.13 48.8324L159.13 48.8334L159.13 48.8354L159.129 48.8365L159.129 48.8376L159.129 48.8389C159.021 50.1301 158.915 51.4003 158.78 52.636L133.797 282.486C133.709 283.29 133.604 284.091 133.499 284.888C133.186 287.261 132.878 289.594 133.077 291.816C133.576 298.045 136.785 303.686 141.699 307.16C144.157 308.897 146.646 310.344 149.52 310.95C152.394 311.557 155.3 311.872 158.206 312.188L191.623 315.821C216.012 318.472 237.644 320.919 256.206 323.018L256.239 323.022C270.172 324.598 282.374 325.979 292.713 327.103L327.583 330.893C328.714 331.31 329.586 331.404 329.586 331.404L307.671 329.023L284.179 338.065L284.178 338.066L284.176 338.066L284.169 338.069L284.156 338.074C261.789 346.683 229.336 359.175 189.355 374.877L157.985 386.952C157.31 387.212 156.641 387.489 155.967 387.767L155.964 387.769L155.963 387.769L155.961 387.77C153.918 388.615 151.836 389.476 149.424 389.934C146.591 390.711 143.17 390.775 140.19 390.356C134.125 389.245 128.311 385.532 124.638 380.056C123.617 378.382 122.892 376.594 122.166 374.806C121.682 373.614 121.198 372.423 120.627 371.264L33.1642 144.036C31.967 140.112 31.8609 135.768 32.7832 131.655C34.9222 125.82 38.8452 120.552 43.9858 117.634C45.8741 116.437 47.9396 115.701 50.005 114.964L50.0073 114.963C50.6949 114.718 51.3833 114.473 52.0643 114.211L153.267 75.2568L153.645 75.4246L154.216 75.688L158.104 39.9199C158.837 35.8834 160.732 31.9731 163.436 28.7388C168.009 24.5317 173.909 21.6449 179.816 21.4048C182.042 21.2058 184.216 21.4972 186.389 21.7885C187.114 21.8857 187.838 21.9828 188.565 22.0618L296.37 33.7796L296.629 34.1018C324.506 69.7674 350.57 103.178 374.044 133.367L374.303 133.689L374.272 133.98C373.093 144.819 371.941 155.343 370.82 165.528L369.421 165.291ZM307.037 328.954L284.347 337.687C274.638 341.424 263.154 345.787 250.041 350.769L250.024 350.775C232.561 357.409 212.209 365.141 189.313 373.954L157.942 386.029C155.215 387.079 152.487 388.128 149.654 388.906C146.822 389.683 143.947 389.537 140.967 389.118C135.006 388.28 129.57 384.735 126.274 379.426C125.08 377.542 124.285 375.327 123.476 373.074C123.205 372.317 122.932 371.556 122.642 370.802L39.5885 155.031C39.1411 153.868 38.653 152.688 38.1569 151.488C37.1396 149.027 36.0884 146.484 35.2837 143.847C34.0865 139.923 33.8126 135.956 34.8399 132.116C36.1606 126.596 39.9157 121.706 44.7836 118.892C46.4638 117.777 48.4735 117.061 50.5218 116.331C51.2102 116.086 51.9031 115.839 52.5893 115.575L153.512 76.7285L154.075 76.9881L146.767 144.224C141.156 146.338 134.915 148.718 128.341 151.248C104.064 160.593 84.6332 168.698 84.7382 168.971C84.9482 169.516 104.694 162.229 128.971 152.885C135.247 150.469 141.2 148.136 146.574 146L142.575 182.789C116.28 193.074 97.3228 200.833 97.4082 201.055C97.5772 201.494 116.404 194.548 142.373 184.651L138.33 221.846C121.103 228.688 109.836 233.344 109.902 233.515C110.032 233.853 121.196 229.823 138.156 223.443L134.071 261.031C126.674 264.04 122.355 265.872 122.396 265.978C122.476 266.185 126.735 264.739 133.954 262.108L131.794 281.974C131.772 283.265 131.656 284.546 131.54 285.828C131.367 287.749 131.193 289.671 131.333 291.627C132.091 298.177 135.559 304.14 140.442 307.905C142.9 309.643 145.97 311.152 148.844 311.759C151.199 312.457 153.443 312.644 155.646 312.829C156.374 312.889 157.098 312.95 157.82 313.028L183.612 315.832C162.012 324.346 147.207 330.432 147.283 330.628C147.44 331.037 163.799 325.034 187.041 316.205L191.237 316.661C233.977 321.012 268.552 324.77 292.38 327.36L292.39 327.361L292.391 327.361L307.037 328.954Z" fill="#FFD60C"/>
<path d="M273.041 111.949C273.01 112.24 255.848 111.224 229.986 108.413C204.125 105.602 189.876 103.518 189.939 102.936C189.971 102.646 204.314 103.859 230.176 106.67C256.038 109.481 273.104 111.368 273.041 111.949Z" fill="#FFD60C"/>
<path d="M258.18 146.303C296.246 150.441 327.111 153.208 327.143 152.917C327.174 152.626 296.113 148.956 258.369 144.56C220.303 140.422 189.439 137.655 189.407 137.946C189.344 138.527 220.114 142.166 258.18 146.303Z" fill="#FFD60C"/>
<path d="M251.673 216.334C289.739 220.472 320.604 223.238 320.635 222.948C320.698 222.367 289.638 218.696 251.862 214.59C213.796 210.453 182.931 207.686 182.9 207.977C182.836 208.558 213.606 212.196 251.673 216.334Z" fill="#FFD60C"/>
<path d="M247.942 250.623C286.008 254.761 316.873 257.528 316.905 257.237C316.936 256.946 285.876 253.276 248.132 248.88C210.066 244.742 179.232 241.685 179.169 242.266C179.106 242.847 209.876 246.486 247.942 250.623Z" fill="#FFD60C"/>
<path d="M244.184 285.204C282.25 289.341 313.115 292.108 313.147 291.818C313.178 291.527 282.149 287.566 244.374 283.46C206.307 279.323 175.443 276.556 175.411 276.847C175.348 277.428 206.118 281.066 244.184 285.204Z" fill="#FFD60C"/>
<path d="M330.716 331.821L330.216 332.912L330.393 332.993L330.587 333.014L330.716 331.821ZM333.654 331.846L333.491 330.658L333.49 330.658L333.654 331.846ZM333.878 331.816L333.715 330.627L333.715 330.627L333.878 331.816ZM344.329 328.303L344.964 329.321L344.983 329.309L345.001 329.297L344.329 328.303ZM354.203 313.205L355.382 313.429L355.386 313.406L355.39 313.382L354.203 313.205ZM357.177 288.543L358.37 288.673L358.371 288.668L357.177 288.543ZM357.178 288.54L355.986 288.399L355.985 288.407L355.984 288.415L357.178 288.54ZM357.178 288.537L358.37 288.677L358.371 288.667L357.178 288.537ZM363.465 231.776L362.273 231.634L362.272 231.643L363.465 231.776ZM363.465 231.773L364.657 231.915L364.658 231.906L363.465 231.773ZM363.467 231.754L362.276 231.614L362.275 231.621L363.467 231.754ZM363.468 231.747L364.66 231.887L364.661 231.879L363.468 231.747ZM363.472 231.715L362.279 231.582L362.279 231.583L363.472 231.715ZM365.034 217.71L366.227 217.843L366.352 216.716L365.235 216.527L365.034 217.71ZM363.86 217.51L364.06 216.327L362.801 216.113L362.666 217.384L363.86 217.51ZM362.393 231.362L363.586 231.496L363.587 231.489L362.393 231.362ZM362.393 231.368L361.2 231.235L361.199 231.242L362.393 231.368ZM356.338 288.152L357.531 288.282L357.531 288.282L356.338 288.152ZM353.653 312.851L354.84 313.029L354.844 313.005L354.846 312.981L353.653 312.851ZM344.102 327.69L344.737 328.708L344.756 328.697L344.774 328.684L344.102 327.69ZM333.426 331.234L333.294 330.041L333.278 330.043L333.263 330.045L333.426 331.234ZM255.62 180.01L255.75 178.817L255.75 178.817L255.62 180.01ZM303.909 185.585L305.088 185.807L305.325 184.551L304.056 184.394L303.909 185.585ZM186.658 173.396L185.465 173.266L185.465 173.266L186.658 173.396ZM255.431 181.753L255.301 182.946L255.301 182.946L255.431 181.753ZM303.703 186.676L303.591 187.871L304.68 187.974L304.883 186.899L303.703 186.676ZM369.421 165.291L368.228 165.163L368.107 166.285L369.22 166.474L369.421 165.291ZM372.819 133.815L374.012 133.945L374.065 133.458L373.763 133.074L372.819 133.815ZM372.667 133.621L373.61 132.88L373.201 132.359L372.543 132.428L372.667 133.621ZM371.966 133.734L371.836 134.927L372.03 134.948L372.22 134.907L371.966 133.734ZM371.675 133.703L371.512 132.514L371.546 134.896L371.675 133.703ZM372.654 133.604L372.723 134.802L375.017 134.669L373.597 132.863L372.654 133.604ZM330.013 78.9652L330.96 78.2284L330.957 78.2244L330.013 78.9652ZM330.01 78.962L329.063 79.6988L329.066 79.7028L330.01 78.962ZM296.316 35.7138L297.261 34.9749L294.788 31.8109L295.12 35.8127L296.316 35.7138ZM296.396 36.434L297.589 36.5637L297.605 36.4169L297.585 36.2705L296.396 36.434ZM295.859 41.3739L297.052 41.5036L297.052 41.5036L295.859 41.3739ZM294.191 59.4216L295.384 59.5512L295.387 59.5283L295.388 59.5053L294.191 59.4216ZM291.576 86.1866L292.769 86.3163L292.771 86.2993L292.772 86.2822L291.576 86.1866ZM289.87 101.878L291.063 102.008L291.063 102.008L289.87 101.878ZM293.136 117.816L292.104 118.428L292.126 118.464L292.15 118.499L293.136 117.816ZM306.648 126.047L306.519 127.24L306.519 127.24L306.648 126.047ZM322.34 127.752L322.21 128.945L322.21 128.945L322.34 127.752ZM349.042 130.949L348.868 132.136L348.89 132.139L348.912 132.142L349.042 130.949ZM360.443 132.365L360.602 131.175L360.602 131.175L360.443 132.365ZM372.661 134.138L372.532 135.331L372.791 132.945L372.661 134.138ZM372.386 134.108L372.516 132.915L372.516 132.915L372.386 134.108ZM348.688 131.498L348.558 132.691L348.581 132.694L348.604 132.695L348.688 131.498ZM321.923 128.883L321.793 130.076L321.81 130.078L321.827 130.079L321.923 128.883ZM306.231 127.178L306.361 125.985L306.361 125.985L306.231 127.178ZM291.62 118.239L292.603 117.551L292.603 117.551L291.62 118.239ZM288.083 110.21L286.903 110.429L286.906 110.447L286.91 110.464L288.083 110.21ZM288.127 101.689L289.298 101.949L289.313 101.884L289.32 101.818L288.127 101.689ZM289.832 85.9971L288.64 85.861L288.639 85.8675L289.832 85.9971ZM289.833 85.9946L291.025 86.1306L291.026 86.1242L289.833 85.9946ZM293.029 59.2952L294.216 59.4706L294.219 59.4478L294.222 59.4249L293.029 59.2952ZM294.445 47.8942L293.256 47.7292L293.256 47.7353L294.445 47.8942ZM294.445 47.8913L295.634 48.0563L295.635 48.0502L294.445 47.8913ZM295.278 41.3108L294.085 41.1811L294.085 41.1811L295.278 41.3108ZM295.815 36.3709L294.622 36.2411L294.622 36.2412L295.815 36.3709ZM295.955 35.2528L297.137 35.4626L297.23 34.9357L296.901 34.5141L295.955 35.2528ZM295.914 35.2001L296.86 34.4614L296.548 34.0619L296.044 34.0071L295.914 35.2001ZM188.407 23.5147L188.277 24.7076L188.277 24.7076L188.407 23.5147ZM186.222 23.2401L186.063 24.4295L186.063 24.4295L186.222 23.2401ZM179.948 22.8893L180.006 24.0879L180.044 24.0861L180.081 24.082L179.948 22.8893ZM165.053 30.0907L165.941 30.8972L165.952 30.8854L165.962 30.8734L165.053 30.0907ZM160.075 40.7222L158.894 40.5078L158.894 40.5078L160.075 40.7222ZM159.13 48.8304L160.324 48.9518L160.325 48.9413L160.326 48.9307L159.13 48.8304ZM159.13 48.8324L160.324 48.9554L160.324 48.9538L159.13 48.8324ZM159.13 48.8334L157.936 48.7104L157.936 48.7121L159.13 48.8334ZM159.13 48.8354L157.936 48.7141L157.935 48.7234L159.13 48.8354ZM159.129 48.8365L160.324 48.9554L160.324 48.9484L159.129 48.8365ZM159.129 48.8376L157.935 48.7187L157.934 48.7302L157.933 48.7416L159.129 48.8376ZM159.129 48.8389L160.325 48.9392L160.325 48.9348L159.129 48.8389ZM158.78 52.636L157.587 52.5063L157.587 52.5063L158.78 52.636ZM133.797 282.486L134.99 282.616L134.99 282.616L133.797 282.486ZM133.499 284.888L132.309 284.731L132.309 284.731L133.499 284.888ZM133.077 291.816L134.273 291.72L134.272 291.709L133.077 291.816ZM141.699 307.16L141.007 308.14L141.007 308.14L141.699 307.16ZM149.52 310.95L149.272 312.124L149.272 312.124L149.52 310.95ZM158.206 312.188L158.335 310.995L158.335 310.995L158.206 312.188ZM191.623 315.821L191.493 317.013L191.623 315.821ZM256.206 323.018L256.071 324.211L256.074 324.211L256.206 323.018ZM256.239 323.022L256.374 321.83L256.371 321.829L256.239 323.022ZM292.713 327.103L292.584 328.295L292.584 328.295L292.713 327.103ZM327.583 330.893L327.998 329.767L327.86 329.716L327.713 329.7L327.583 330.893ZM307.671 329.023L307.801 327.83L307.512 327.798L307.24 327.903L307.671 329.023ZM284.179 338.065L283.748 336.945L283.724 336.954L283.701 336.965L284.179 338.065ZM284.178 338.066L284.593 339.191L284.625 339.18L284.656 339.166L284.178 338.066ZM284.176 338.066L283.761 336.94L283.753 336.943L283.746 336.946L284.176 338.066ZM284.169 338.069L284.598 339.19L284.6 339.189L284.169 338.069ZM284.156 338.074L283.728 336.953L283.725 336.954L284.156 338.074ZM189.355 374.877L189.786 375.997L189.794 375.994L189.355 374.877ZM157.985 386.952L158.416 388.072L158.416 388.072L157.985 386.952ZM155.967 387.767L155.509 386.658L155.503 386.661L155.967 387.767ZM155.964 387.769L155.499 386.662L155.495 386.664L155.964 387.769ZM155.963 387.769L156.412 388.882L156.421 388.878L156.431 388.874L155.963 387.769ZM155.961 387.77L155.512 386.657L155.502 386.661L155.961 387.77ZM149.424 389.934L149.2 388.755L149.153 388.764L149.106 388.777L149.424 389.934ZM140.19 390.356L139.974 391.536L139.999 391.541L140.023 391.544L140.19 390.356ZM124.638 380.056L123.613 380.681L123.626 380.703L123.641 380.725L124.638 380.056ZM122.166 374.806L121.054 375.258L121.054 375.258L122.166 374.806ZM120.627 371.264L119.507 371.695L119.527 371.746L119.551 371.795L120.627 371.264ZM33.1642 144.036L32.0164 144.386L32.0289 144.427L32.0443 144.467L33.1642 144.036ZM32.7832 131.655L31.6566 131.242L31.6295 131.315L31.6123 131.392L32.7832 131.655ZM43.9858 117.634L44.5782 118.677L44.6036 118.663L44.6281 118.647L43.9858 117.634ZM50.005 114.964L50.408 116.095L50.4093 116.094L50.005 114.964ZM50.0073 114.963L49.6044 113.833L49.603 113.834L50.0073 114.963ZM52.0643 114.211L51.6333 113.091L51.6332 113.091L52.0643 114.211ZM153.267 75.2568L153.754 74.1601L153.3 73.9583L152.836 74.1369L153.267 75.2568ZM153.645 75.4246L154.147 74.3346L154.139 74.3312L154.132 74.3279L153.645 75.4246ZM154.216 75.688L153.714 76.7779L155.229 77.4756L155.409 75.8176L154.216 75.688ZM158.104 39.9199L156.924 39.7056L156.916 39.7477L156.911 39.7902L158.104 39.9199ZM163.436 28.7388L162.623 27.8557L162.565 27.9089L162.515 27.9692L163.436 28.7388ZM179.816 21.4048L179.864 22.6038L179.894 22.6026L179.923 22.6L179.816 21.4048ZM186.389 21.7885L186.23 22.9779L186.23 22.9779L186.389 21.7885ZM188.565 22.0618L188.435 23.2547L188.435 23.2547L188.565 22.0618ZM296.37 33.7796L297.306 33.0277L296.994 32.6403L296.5 32.5866L296.37 33.7796ZM296.629 34.1018L297.575 33.3628L297.57 33.3563L297.565 33.3499L296.629 34.1018ZM374.044 133.367L373.097 134.103L373.103 134.111L373.109 134.119L374.044 133.367ZM374.303 133.689L375.496 133.819L375.55 133.324L375.238 132.937L374.303 133.689ZM374.272 133.98L375.465 134.109L375.465 134.109L374.272 133.98ZM370.82 165.528L370.619 166.711L371.874 166.924L372.013 165.66L370.82 165.528ZM284.347 337.687L284.778 338.807L284.778 338.807L284.347 337.687ZM307.037 328.954L307.468 330.074L307.166 327.761L307.037 328.954ZM250.041 350.769L250.466 351.891L250.467 351.891L250.041 350.769ZM250.024 350.775L249.598 349.653L249.597 349.653L250.024 350.775ZM189.313 373.954L188.882 372.834L188.882 372.834L189.313 373.954ZM157.942 386.029L158.373 387.149L158.373 387.149L157.942 386.029ZM149.654 388.906L149.972 390.063L149.972 390.063L149.654 388.906ZM140.967 389.118L141.134 387.929L141.134 387.929L140.967 389.118ZM126.274 379.426L127.294 378.793L127.288 378.784L126.274 379.426ZM123.476 373.074L122.347 373.479L122.347 373.479L123.476 373.074ZM122.642 370.802L123.761 370.371L123.761 370.371L122.642 370.802ZM39.5885 155.031L40.7085 154.6L40.7084 154.6L39.5885 155.031ZM38.1569 151.488L37.0479 151.946L37.0479 151.946L38.1569 151.488ZM35.2837 143.847L34.1359 144.197L34.1359 144.197L35.2837 143.847ZM34.8399 132.116L35.9992 132.426L36.0033 132.411L36.007 132.395L34.8399 132.116ZM44.7836 118.892L45.384 119.931L45.4163 119.913L45.4473 119.892L44.7836 118.892ZM50.5218 116.331L50.119 115.201L50.119 115.201L50.5218 116.331ZM52.5893 115.575L53.0203 116.695L53.0204 116.695L52.5893 115.575ZM153.512 76.7285L154.014 75.6386L153.554 75.4266L153.081 75.6086L153.512 76.7285ZM154.075 76.9881L155.268 77.1178L155.361 76.2595L154.577 75.8982L154.075 76.9881ZM146.767 144.224L147.19 145.347L147.88 145.087L147.96 144.354L146.767 144.224ZM128.341 151.248L128.772 152.368L128.772 152.368L128.341 151.248ZM84.7382 168.971L83.6183 169.402L83.6183 169.402L84.7382 168.971ZM128.971 152.885L128.54 151.765L128.54 151.765L128.971 152.885ZM146.574 146L147.767 146.129L147.982 144.149L146.131 144.885L146.574 146ZM142.575 182.789L143.012 183.907L143.69 183.642L143.768 182.919L142.575 182.789ZM97.4082 201.055L96.2883 201.486L96.2883 201.486L97.4082 201.055ZM142.373 184.651L143.566 184.781L143.778 182.831L141.945 183.53L142.373 184.651ZM138.33 221.846L138.773 222.961L139.445 222.694L139.523 221.975L138.33 221.846ZM109.902 233.515L108.782 233.946L108.782 233.946L109.902 233.515ZM138.156 223.443L139.349 223.572L139.56 221.633L137.734 222.32L138.156 223.443ZM134.071 261.031L134.523 262.143L135.186 261.873L135.264 261.161L134.071 261.031ZM122.396 265.978L121.276 266.409L121.276 266.409L122.396 265.978ZM133.954 262.108L135.147 262.238L135.355 260.32L133.543 260.981L133.954 262.108ZM131.794 281.974L130.601 281.845L130.595 281.899L130.595 281.953L131.794 281.974ZM131.54 285.828L130.345 285.72L130.345 285.72L131.54 285.828ZM131.333 291.627L130.136 291.712L130.138 291.739L130.141 291.765L131.333 291.627ZM140.442 307.905L139.71 308.856L139.729 308.871L139.75 308.885L140.442 307.905ZM148.844 311.759L149.185 310.608L149.139 310.595L149.092 310.585L148.844 311.759ZM155.646 312.829L155.546 314.024L155.546 314.024L155.646 312.829ZM157.82 313.028L157.95 311.835L157.95 311.835L157.82 313.028ZM183.612 315.832L184.052 316.949L183.742 314.639L183.612 315.832ZM147.283 330.628L148.403 330.196L148.403 330.196L147.283 330.628ZM187.041 316.205L187.171 315.012L186.885 314.981L186.615 315.083L187.041 316.205ZM191.237 316.661L191.108 317.854L191.116 317.854L191.237 316.661ZM292.38 327.36L292.51 326.167L292.509 326.167L292.38 327.36ZM292.39 327.361L292.534 326.17L292.527 326.169L292.52 326.168L292.39 327.361ZM292.391 327.361L292.246 328.553L292.254 328.554L292.261 328.554L292.391 327.361ZM229.986 108.413L229.857 109.606L229.857 109.606L229.986 108.413ZM189.939 102.936L191.132 103.066L191.132 103.066L189.939 102.936ZM230.176 106.67L230.046 107.863L230.046 107.863L230.176 106.67ZM258.18 146.303L258.31 145.11L258.31 145.11L258.18 146.303ZM258.369 144.56L258.508 143.368L258.499 143.367L258.369 144.56ZM189.407 137.946L188.214 137.816L188.214 137.816L189.407 137.946ZM320.635 222.948L319.442 222.818L319.442 222.818L320.635 222.948ZM251.673 216.334L251.802 215.141L251.673 216.334ZM251.862 214.59L251.992 213.397L251.992 213.397L251.862 214.59ZM182.9 207.977L181.707 207.847L181.707 207.847L182.9 207.977ZM316.905 257.237L318.098 257.367L318.098 257.367L316.905 257.237ZM248.132 248.88L248.271 247.688L248.261 247.687L248.132 248.88ZM179.169 242.266L177.976 242.136L177.976 242.136L179.169 242.266ZM313.147 291.818L314.34 291.947L314.34 291.947L313.147 291.818ZM244.184 285.204L244.054 286.397L244.054 286.397L244.184 285.204ZM244.374 283.46L244.503 282.267L244.503 282.267L244.374 283.46ZM331.217 330.73C330.761 330.522 330.432 330.398 330.197 330.324C330.079 330.287 329.983 330.261 329.905 330.244C329.866 330.235 329.83 330.228 329.799 330.223C329.783 330.22 329.769 330.218 329.755 330.216C329.748 330.215 329.741 330.214 329.734 330.214C329.731 330.213 329.728 330.213 329.725 330.212C329.723 330.212 329.721 330.212 329.72 330.212C329.719 330.212 329.718 330.212 329.718 330.212C329.717 330.212 329.717 330.211 329.716 330.211C329.716 330.211 329.715 330.211 329.586 331.404C329.456 332.597 329.455 332.597 329.455 332.597C329.455 332.597 329.454 332.597 329.454 332.597C329.453 332.597 329.452 332.597 329.451 332.597C329.45 332.597 329.448 332.596 329.447 332.596C329.444 332.596 329.441 332.596 329.438 332.595C329.433 332.595 329.428 332.594 329.423 332.593C329.414 332.592 329.406 332.591 329.4 332.59C329.388 332.588 329.382 332.586 329.383 332.587C329.386 332.587 329.415 332.594 329.475 332.613C329.595 332.651 329.831 332.735 330.216 332.912L331.217 330.73ZM333.49 330.658C332.458 330.8 331.429 330.692 330.846 330.628L330.587 333.014C331.166 333.077 332.461 333.222 333.817 333.035L333.49 330.658ZM333.715 330.627L333.491 330.658L333.816 333.035L334.04 333.005L333.715 330.627ZM343.694 327.284C339.64 329.813 336.083 330.303 333.715 330.627L334.04 333.005C336.477 332.672 340.459 332.131 344.964 329.321L343.694 327.284ZM353.024 312.981C351.723 319.816 347.565 324.669 343.658 327.308L345.001 329.297C349.344 326.364 353.941 320.997 355.382 313.429L353.024 312.981ZM355.984 288.413C354.973 297.716 354.092 305.825 353.016 313.028L355.39 313.382C356.474 306.122 357.361 297.962 358.37 288.673L355.984 288.413ZM355.984 288.415L355.984 288.419L358.371 288.668L358.371 288.664L355.984 288.415ZM355.986 288.397L355.986 288.399L358.37 288.68L358.37 288.677L355.986 288.397ZM362.272 231.643C359.858 253.279 357.732 272.332 355.985 288.408L358.371 288.667C360.118 272.596 362.243 253.546 364.658 231.909L362.272 231.643ZM362.274 231.631L362.273 231.634L364.657 231.918L364.657 231.915L362.274 231.631ZM362.275 231.621L362.273 231.64L364.658 231.906L364.66 231.887L362.275 231.621ZM362.276 231.607L362.276 231.614L364.659 231.894L364.66 231.887L362.276 231.607ZM362.279 231.583L362.276 231.615L364.661 231.879L364.664 231.847L362.279 231.583ZM363.841 217.577C363.308 222.357 362.787 227.027 362.279 231.582L364.664 231.849C365.173 227.293 365.694 222.623 366.227 217.843L363.841 217.577ZM363.659 218.693L364.833 218.893L365.235 216.527L364.06 216.327L363.659 218.693ZM363.587 231.489C364.064 226.982 364.552 222.364 365.053 217.637L362.666 217.384C362.166 222.111 361.677 226.73 361.2 231.236L363.587 231.489ZM363.585 231.501L363.586 231.496L361.201 231.229L361.2 231.235L363.585 231.501ZM357.531 288.282C359.278 272.207 361.295 253.143 363.586 231.494L361.199 231.242C358.909 252.891 356.892 271.952 355.145 288.022L357.531 288.282ZM354.846 312.981L357.531 288.282L355.145 288.022L352.46 312.722L354.846 312.981ZM344.774 328.684C349.096 325.765 353.697 320.68 354.84 313.029L352.466 312.674C351.449 319.489 347.358 324.043 343.43 326.695L344.774 328.684ZM333.558 332.426C336.309 332.122 340.098 331.601 344.737 328.708L343.467 326.672C339.274 329.287 335.901 329.752 333.294 330.041L333.558 332.426ZM329.586 331.404C329.456 332.597 329.456 332.597 329.456 332.597C329.456 332.597 329.457 332.597 329.457 332.597C329.457 332.597 329.458 332.597 329.458 332.598C329.459 332.598 329.46 332.598 329.461 332.598C329.463 332.598 329.465 332.598 329.468 332.599C329.473 332.599 329.48 332.6 329.488 332.601C329.504 332.602 329.526 332.604 329.554 332.606C329.608 332.611 329.685 332.617 329.783 332.622C329.979 332.633 330.258 332.643 330.613 332.642C331.324 332.641 332.338 332.595 333.59 332.423L333.263 330.045C332.127 330.201 331.221 330.241 330.608 330.242C330.301 330.243 330.068 330.234 329.917 330.226C329.841 330.221 329.786 330.217 329.752 330.215C329.735 330.213 329.723 330.212 329.717 330.211C329.714 330.211 329.712 330.211 329.712 330.211C329.712 330.211 329.712 330.211 329.713 330.211C329.713 330.211 329.713 330.211 329.714 330.211C329.714 330.211 329.714 330.211 329.714 330.211C329.714 330.211 329.715 330.211 329.715 330.211C329.715 330.211 329.715 330.211 329.586 331.404ZM255.491 181.203C274.234 183.24 291.316 185.242 303.762 186.776L304.056 184.394C291.598 182.858 274.505 180.855 255.75 178.817L255.491 181.203ZM187.851 173.526C187.777 174.208 187.212 174.458 187.179 174.474C187.049 174.535 186.941 174.557 186.914 174.562C186.844 174.576 186.798 174.577 186.813 174.576C186.827 174.575 186.881 174.574 186.992 174.577C187.206 174.581 187.539 174.597 187.996 174.625C188.905 174.68 190.252 174.78 191.996 174.921C195.482 175.204 200.527 175.651 206.764 176.237C219.236 177.409 236.463 179.135 255.491 181.203L255.75 178.817C236.711 176.747 219.473 175.021 206.988 173.848C200.747 173.261 195.69 172.813 192.19 172.529C190.442 172.387 189.075 172.286 188.142 172.229C187.677 172.201 187.307 172.183 187.046 172.177C186.921 172.174 186.794 172.174 186.688 172.179C186.643 172.182 186.551 172.187 186.449 172.207C186.407 172.216 186.287 172.24 186.15 172.306C186.108 172.326 185.54 172.579 185.465 173.266L187.851 173.526ZM255.561 180.56C236.53 178.492 219.326 176.548 206.889 175.05C200.67 174.3 195.649 173.663 192.191 173.177C190.459 172.934 189.132 172.73 188.245 172.571C187.797 172.491 187.487 172.426 187.301 172.378C187.2 172.352 187.18 172.342 187.204 172.352C187.208 172.354 187.295 172.388 187.401 172.468C187.423 172.485 187.925 172.842 187.851 173.526L185.465 173.266C185.389 173.968 185.904 174.345 185.954 174.383C186.087 174.484 186.218 174.541 186.279 174.567C186.418 174.625 186.572 174.669 186.702 174.702C186.978 174.773 187.36 174.851 187.822 174.933C188.754 175.101 190.118 175.309 191.857 175.554C195.339 176.043 200.379 176.682 206.602 177.432C219.052 178.933 236.266 180.877 255.301 182.946L255.561 180.56ZM303.816 185.482C291.383 184.311 274.349 182.603 255.561 180.56L255.301 182.946C274.101 184.99 291.146 186.699 303.591 187.871L303.816 185.482ZM302.73 185.363L302.524 186.454L304.883 186.899L305.088 185.807L302.73 185.363ZM370.614 165.419C371.705 155.256 372.837 144.757 374.012 133.945L371.626 133.686C370.451 144.499 369.318 154.999 368.228 165.163L370.614 165.419ZM373.763 133.074L373.61 132.88L371.724 134.363L371.876 134.557L373.763 133.074ZM372.543 132.428C372.3 132.453 372.02 132.495 371.712 132.562L372.22 134.907C372.438 134.86 372.63 134.832 372.791 134.815L372.543 132.428ZM372.096 132.541L371.805 132.51L371.546 134.896L371.836 134.927L372.096 132.541ZM371.839 134.892C372.2 134.842 372.494 134.816 372.723 134.802L372.584 132.406C372.291 132.423 371.934 132.456 371.512 132.514L371.839 134.892ZM373.597 132.863C360.165 115.774 345.911 97.4495 330.96 78.2284L329.066 79.702C344.016 98.922 358.274 117.251 371.71 134.346L373.597 132.863ZM330.957 78.2244L330.954 78.2212L329.066 79.7028L329.069 79.706L330.957 78.2244ZM330.957 78.2252C320.078 64.2385 308.829 49.7775 297.261 34.9749L295.37 36.4527C306.936 51.2529 318.183 65.7118 329.063 79.6988L330.957 78.2252ZM295.12 35.8127C295.139 36.0431 295.167 36.3046 295.207 36.5976L297.585 36.2705C297.55 36.0201 297.527 35.8017 297.511 35.6148L295.12 35.8127ZM295.203 36.3044L294.666 41.2443L297.052 41.5036L297.589 36.5637L295.203 36.3044ZM294.666 41.2443C294.192 45.6047 293.526 51.7266 292.994 59.3378L295.388 59.5053C295.917 51.9433 296.578 45.8606 297.052 41.5036L294.666 41.2443ZM292.998 59.2919C292.177 66.8465 291.196 75.8701 290.38 86.0911L292.772 86.2822C293.585 76.0993 294.563 67.1069 295.384 59.5512L292.998 59.2919ZM290.383 86.057L288.677 101.748L291.063 102.008L292.769 86.3163L290.383 86.057ZM288.677 101.748C288.365 104.622 288.05 107.432 288.685 110.363L291.031 109.855C290.491 107.366 290.744 104.946 291.063 102.008L288.677 101.748ZM288.685 110.363C289.312 113.255 290.584 115.865 292.104 118.428L294.168 117.204C292.707 114.738 291.579 112.383 291.031 109.855L288.685 110.363ZM292.15 118.499C295.647 123.547 300.934 126.633 306.519 127.24L306.778 124.854C301.902 124.324 297.233 121.623 294.123 117.132L292.15 118.499ZM306.519 127.24L322.21 128.945L322.469 126.559L306.778 124.854L306.519 127.24ZM322.21 128.945C332.096 130.02 341.08 130.997 348.868 132.136L349.215 129.761C341.375 128.614 332.343 127.633 322.469 126.559L322.21 128.945ZM348.912 132.142C353.189 132.607 356.99 133.114 360.284 133.554L360.602 131.175C357.309 130.736 353.481 130.224 349.171 129.756L348.912 132.142ZM360.284 133.554C362.691 133.876 370.651 135.126 372.532 135.331L372.791 132.945C370.916 132.741 363.182 131.52 360.602 131.175L360.284 133.554ZM372.791 132.945L372.516 132.915L372.256 135.301L372.532 135.331L372.791 132.945ZM372.516 132.915C368.224 132.448 356.385 130.834 348.772 130.301L348.604 132.695C356.164 133.224 367.831 134.82 372.256 135.301L372.516 132.915ZM348.818 130.305C341.263 129.484 332.239 128.503 322.018 127.687L321.827 130.079C332.01 130.893 341.003 131.87 348.558 132.691L348.818 130.305ZM322.052 127.69L306.361 125.985L306.102 128.37L321.793 130.076L322.052 127.69ZM306.361 125.985C301.201 125.424 295.978 122.373 292.603 117.551L290.637 118.927C294.388 124.288 300.22 127.731 306.102 128.37L306.361 125.985ZM292.603 117.551C290.914 115.137 289.81 112.512 289.255 109.956L286.91 110.464C287.531 113.328 288.763 116.249 290.637 118.927L292.603 117.551ZM289.263 109.992C288.732 107.13 288.763 104.357 289.298 101.949L286.956 101.428C286.342 104.187 286.321 107.289 286.903 110.429L289.263 109.992ZM289.32 101.818L291.025 86.1268L288.639 85.8675L286.934 101.559L289.32 101.818ZM291.025 86.1332L291.025 86.1306L288.64 85.8585L288.64 85.861L291.025 86.1332ZM291.026 86.1242C292.1 76.2378 293.108 66.9658 294.216 59.4706L291.842 59.1198C290.726 66.6704 289.713 75.9937 288.64 85.8649L291.026 86.1242ZM294.222 59.4249C294.687 55.1476 295.194 51.3468 295.634 48.0532L293.256 47.7353C292.816 51.0277 292.304 54.8554 291.836 59.1656L294.222 59.4249ZM295.634 48.0593L295.634 48.0563L293.257 47.7263L293.256 47.7292L295.634 48.0593ZM295.635 48.0502C295.968 45.5547 296.264 43.339 296.471 41.4404L294.085 41.1811C293.882 43.0442 293.591 45.2277 293.256 47.7324L295.635 48.0502ZM296.471 41.4404L297.008 36.5005L294.622 36.2412L294.085 41.1811L296.471 41.4404ZM297.008 36.5006C297.06 36.0163 297.096 35.6904 297.137 35.4626L294.774 35.043C294.716 35.3696 294.67 35.7915 294.622 36.2411L297.008 36.5006ZM296.901 34.5141L296.86 34.4614L294.968 35.9388L295.01 35.9915L296.901 34.5141ZM296.044 34.0071L188.536 22.3217L188.277 24.7076L295.784 36.393L296.044 34.0071ZM188.536 22.3217C187.823 22.2441 187.109 22.1484 186.382 22.0508L186.063 24.4295C186.785 24.5264 187.529 24.6263 188.277 24.7076L188.536 22.3217ZM186.382 22.0508C184.259 21.7659 181.993 21.4552 179.816 21.6966L180.081 24.082C181.912 23.8789 183.876 24.1359 186.063 24.4295L186.382 22.0508ZM179.89 21.6907C173.957 21.9777 168.067 24.7477 164.143 29.308L165.962 30.8734C169.442 26.8299 174.708 24.3442 180.006 24.0879L179.89 21.6907ZM164.164 29.2841C161.311 32.4272 159.658 36.2991 158.894 40.5078L161.256 40.9365C161.957 37.0722 163.45 33.6416 165.941 30.8972L164.164 29.2841ZM158.894 40.5078C158.39 43.287 158.156 46.0859 157.934 48.7301L160.326 48.9307C160.549 46.2684 160.775 43.5838 161.256 40.9365L158.894 40.5078ZM157.936 48.709L157.936 48.711L160.324 48.9538L160.324 48.9518L157.936 48.709ZM157.936 48.7095L157.936 48.7104L160.323 48.9563L160.324 48.9554L157.936 48.7095ZM157.935 48.7234L157.935 48.7245L160.324 48.9484L160.324 48.9474L157.935 48.7234ZM157.935 48.7176L157.935 48.7187L160.323 48.9565L160.324 48.9554L157.935 48.7176ZM157.933 48.7416L157.933 48.743L160.325 48.9348L160.326 48.9335L157.933 48.7416ZM157.933 48.7386C157.825 50.0326 157.72 51.2879 157.587 52.5063L159.973 52.7657C160.109 51.5127 160.217 50.2276 160.325 48.9392L157.933 48.7386ZM157.587 52.5063L132.604 282.356L134.99 282.616L159.973 52.7657L157.587 52.5063ZM132.604 282.356C132.518 283.144 132.414 283.932 132.309 284.731L134.688 285.045C134.793 284.25 134.901 283.435 134.99 282.616L132.604 282.356ZM132.309 284.731C132 287.076 131.669 289.544 131.881 291.923L134.272 291.709C134.087 289.643 134.372 287.447 134.688 285.045L132.309 284.731ZM131.881 291.912C132.407 298.488 135.795 304.456 141.007 308.14L142.392 306.18C137.774 302.916 134.744 297.602 134.273 291.72L131.881 291.912ZM141.007 308.14C143.509 309.909 146.158 311.467 149.272 312.124L149.768 309.776C147.133 309.22 144.805 307.886 142.392 306.18L141.007 308.14ZM149.272 312.124C152.215 312.745 155.18 313.066 158.076 313.381L158.335 310.995C155.42 310.678 152.574 310.368 149.768 309.776L149.272 312.124ZM158.076 313.381L191.493 317.013L191.752 314.628L158.335 310.995L158.076 313.381ZM191.493 317.013C215.88 319.664 237.509 322.111 256.071 324.211L256.341 321.826C237.779 319.726 216.145 317.279 191.752 314.628L191.493 317.013ZM256.105 324.215C270.037 325.791 282.242 327.171 292.584 328.295L292.843 325.91C282.507 324.786 270.308 323.406 256.374 321.83L256.105 324.215ZM292.584 328.295L327.453 332.086L327.713 329.7L292.843 325.91L292.584 328.295ZM327.168 332.019C327.798 332.251 328.356 332.394 328.761 332.479C328.963 332.522 329.129 332.55 329.248 332.569C329.307 332.578 329.355 332.585 329.39 332.589C329.408 332.592 329.422 332.593 329.433 332.595C329.439 332.595 329.443 332.596 329.447 332.596C329.449 332.597 329.451 332.597 329.452 332.597C329.453 332.597 329.453 332.597 329.454 332.597C329.454 332.597 329.455 332.597 329.455 332.597C329.455 332.597 329.455 332.597 329.455 332.597C329.456 332.597 329.456 332.597 329.586 331.404C329.715 330.211 329.715 330.211 329.716 330.211C329.716 330.211 329.716 330.211 329.716 330.211C329.716 330.211 329.716 330.211 329.717 330.211C329.717 330.212 329.717 330.212 329.718 330.212C329.718 330.212 329.719 330.212 329.719 330.212C329.719 330.212 329.719 330.212 329.718 330.212C329.716 330.211 329.71 330.211 329.701 330.21C329.684 330.207 329.655 330.203 329.615 330.197C329.535 330.185 329.413 330.164 329.256 330.131C328.942 330.064 328.499 329.951 327.998 329.767L327.168 332.019ZM329.715 330.211L307.801 327.83L307.542 330.216L329.456 332.597L329.715 330.211ZM307.24 327.903L283.748 336.945L284.61 339.185L308.102 330.143L307.24 327.903ZM283.701 336.965L283.7 336.965L284.656 339.166L284.657 339.166L283.701 336.965ZM283.762 336.94L283.761 336.94L284.592 339.192L284.593 339.191L283.762 336.94ZM283.746 336.946L283.739 336.949L284.6 339.189L284.607 339.186L283.746 336.946ZM283.74 336.948L283.728 336.953L284.585 339.194L284.598 339.19L283.74 336.948ZM283.725 336.954C261.358 345.563 228.901 358.056 188.917 373.76L189.794 375.994C229.771 360.293 262.22 347.803 284.588 339.194L283.725 336.954ZM188.924 373.757L157.554 385.832L158.416 388.072L189.786 375.997L188.924 373.757ZM157.554 385.832C156.862 386.098 156.18 386.381 155.509 386.658L156.426 388.876C157.102 388.596 157.757 388.325 158.416 388.072L157.554 385.832ZM155.503 386.661L155.499 386.662L156.428 388.875L156.432 388.873L155.503 386.661ZM155.495 386.664L155.494 386.664L156.431 388.874L156.432 388.873L155.495 386.664ZM155.513 386.656L155.512 386.657L156.41 388.883L156.412 388.882L155.513 386.656ZM155.502 386.661C153.448 387.511 151.474 388.323 149.2 388.755L149.648 391.113C152.198 390.629 154.388 389.719 156.42 388.879L155.502 386.661ZM149.106 388.777C146.469 389.5 143.22 389.57 140.357 389.168L140.023 391.544C143.121 391.98 146.713 391.922 149.741 391.091L149.106 388.777ZM140.407 389.176C134.66 388.123 129.128 384.595 125.634 379.388L123.641 380.725C127.495 386.47 133.591 390.367 139.974 391.536L140.407 389.176ZM125.662 379.432C124.701 377.854 124.009 376.157 123.278 374.355L121.054 375.258C121.774 377.031 122.534 378.91 123.613 380.681L125.662 379.432ZM123.278 374.355C122.797 373.17 122.297 371.937 121.703 370.734L119.551 371.795C120.099 372.908 120.567 374.059 121.054 375.258L123.278 374.355ZM121.747 370.833L34.2841 143.605L32.0443 144.467L119.507 371.695L121.747 370.833ZM34.3119 143.686C33.1795 139.974 33.0742 135.842 33.9542 131.917L31.6123 131.392C30.6477 135.694 30.7545 140.25 32.0164 144.386L34.3119 143.686ZM33.9099 132.068C35.9745 126.436 39.738 121.425 44.5782 118.677L43.3934 116.59C37.9523 119.679 33.87 125.204 31.6566 131.242L33.9099 132.068ZM44.6281 118.647C46.3849 117.534 48.3226 116.838 50.408 116.095L49.6021 113.834C47.5566 114.563 45.3633 115.34 43.3435 116.62L44.6281 118.647ZM50.4093 116.094L50.4116 116.093L49.603 113.834L49.6008 113.834L50.4093 116.094ZM50.4102 116.094C51.0954 115.85 51.7981 115.599 52.4954 115.331L51.6332 113.091C50.9686 113.347 50.2943 113.587 49.6044 113.833L50.4102 116.094ZM52.4954 115.331L153.698 76.3767L152.836 74.1369L51.6333 113.091L52.4954 115.331ZM152.78 76.3535L153.158 76.5213L154.132 74.3279L153.754 74.1601L152.78 76.3535ZM153.143 76.5145L153.714 76.7779L154.719 74.598L154.147 74.3346L153.143 76.5145ZM155.409 75.8176L159.297 40.0496L156.911 39.7902L153.023 75.5583L155.409 75.8176ZM159.285 40.1343C159.978 36.3161 161.777 32.5945 164.356 29.5085L162.515 27.9692C159.687 31.3518 157.696 35.4506 156.924 39.7056L159.285 40.1343ZM164.248 29.622C168.663 25.5612 174.303 22.8298 179.864 22.6038L179.767 20.2058C173.515 20.4599 167.356 23.5022 162.623 27.8557L164.248 29.622ZM179.923 22.6C181.994 22.4149 184.035 22.6837 186.23 22.9779L186.549 20.5992C184.396 20.3106 182.091 19.9967 179.709 20.2096L179.923 22.6ZM186.23 22.9779C186.952 23.0747 187.691 23.1739 188.435 23.2547L188.694 20.8688C187.985 20.7917 187.276 20.6966 186.549 20.5992L186.23 22.9779ZM188.435 23.2547L296.241 34.9726L296.5 32.5866L188.694 20.8688L188.435 23.2547ZM295.435 34.5315L295.694 34.8536L297.565 33.3499L297.306 33.0277L295.435 34.5315ZM295.684 34.8408C323.56 70.5059 349.624 103.916 373.097 134.103L374.992 132.63C351.517 102.44 325.452 69.0289 297.575 33.3628L295.684 34.8408ZM373.109 134.119L373.368 134.441L375.238 132.937L374.979 132.615L373.109 134.119ZM373.11 133.559L373.079 133.85L375.465 134.109L375.496 133.819L373.11 133.559ZM373.079 133.85C371.901 144.689 370.748 155.212 369.627 165.397L372.013 165.66C373.134 155.474 374.286 144.949 375.465 134.109L373.079 133.85ZM371.021 164.345L369.622 164.108L369.22 166.474L370.619 166.711L371.021 164.345ZM284.778 338.807L307.468 330.074L306.606 327.834L283.916 336.567L284.778 338.807ZM250.467 351.891C263.579 346.909 275.066 342.545 284.778 338.807L283.916 336.567C274.21 340.303 262.728 344.665 249.614 349.647L250.467 351.891ZM250.449 351.897L250.466 351.891L249.615 349.647L249.598 349.653L250.449 351.897ZM189.744 375.074C212.638 366.262 232.987 358.531 250.45 351.897L249.597 349.653C232.135 356.287 211.781 364.02 188.882 372.834L189.744 375.074ZM158.373 387.149L189.744 375.074L188.882 372.834L157.511 384.909L158.373 387.149ZM149.972 390.063C152.872 389.267 155.655 388.195 158.373 387.149L157.511 384.909C154.774 385.962 152.102 386.99 149.337 387.748L149.972 390.063ZM140.799 390.306C143.834 390.733 146.903 390.905 149.972 390.063L149.337 387.748C146.741 388.461 144.059 388.341 141.134 387.929L140.799 390.306ZM125.255 380.059C128.735 385.664 134.48 389.417 140.799 390.306L141.134 387.929C135.533 387.142 130.406 383.806 127.294 378.793L125.255 380.059ZM122.347 373.479C123.146 375.705 123.982 378.051 125.261 380.069L127.288 378.784C126.177 377.032 125.424 374.948 124.606 372.668L122.347 373.479ZM121.522 371.233C121.806 371.972 122.075 372.721 122.347 373.479L124.606 372.668C124.335 371.914 124.058 371.14 123.761 370.371L121.522 371.233ZM38.4686 155.462L121.522 371.233L123.761 370.371L40.7085 154.6L38.4686 155.462ZM37.0479 151.946C37.5451 153.149 38.0274 154.315 38.4686 155.462L40.7084 154.6C40.2548 153.421 39.7609 152.227 39.2658 151.029L37.0479 151.946ZM34.1359 144.197C34.9602 146.898 36.0341 149.494 37.0479 151.946L39.2658 151.029C38.2451 148.56 37.2166 146.07 36.4314 143.496L34.1359 144.197ZM33.6807 131.806C32.5838 135.906 32.8876 140.105 34.1359 144.197L36.4314 143.496C35.2853 139.74 35.0414 136.006 35.9992 132.426L33.6807 131.806ZM44.1831 117.854C39.0403 120.826 35.0728 125.986 33.6729 131.837L36.007 132.395C37.2483 127.207 40.7911 122.586 45.384 119.931L44.1831 117.854ZM50.119 115.201C48.1013 115.92 45.9449 116.681 44.1199 117.893L45.4473 119.892C46.9828 118.873 48.8458 118.202 50.9246 117.461L50.119 115.201ZM52.1583 114.455C51.4885 114.713 50.8098 114.955 50.119 115.201L50.9246 117.461C51.6106 117.217 52.3178 116.965 53.0203 116.695L52.1583 114.455ZM153.081 75.6086L52.1582 114.455L53.0204 116.695L153.943 77.8484L153.081 75.6086ZM154.577 75.8982L154.014 75.6386L153.01 77.8184L153.573 78.078L154.577 75.8982ZM147.96 144.354L155.268 77.1178L152.882 76.8584L145.574 144.095L147.96 144.354ZM128.772 152.368C135.344 149.838 141.582 147.46 147.19 145.347L146.344 143.102C140.73 145.217 134.486 147.597 127.91 150.128L128.772 152.368ZM85.8582 168.54C86.0303 168.987 85.8827 169.361 85.8105 169.504C85.7335 169.656 85.6423 169.754 85.6077 169.789C85.5318 169.867 85.4665 169.91 85.4641 169.912C85.4436 169.926 85.4505 169.92 85.5123 169.886C85.6243 169.826 85.8149 169.732 86.0943 169.601C86.6466 169.343 87.4788 168.973 88.5687 168.502C90.7451 167.562 93.9151 166.235 97.8513 164.622C105.722 161.397 116.641 157.037 128.772 152.368L127.91 150.128C115.764 154.803 104.829 159.169 96.9413 162.401C92.9983 164.017 89.813 165.351 87.6171 166.299C86.5208 166.772 85.6626 167.154 85.0775 167.427C84.7882 167.563 84.5484 167.68 84.3755 167.773C84.2948 167.816 84.1956 167.872 84.1062 167.933C84.0695 167.958 83.979 168.021 83.8874 168.116C83.845 168.159 83.7483 168.263 83.6682 168.422C83.5928 168.571 83.4445 168.95 83.6183 169.402L85.8582 168.54ZM128.54 151.765C116.404 156.436 105.406 160.591 97.4176 163.509C93.4218 164.969 90.1883 166.116 87.9451 166.863C86.8201 167.238 85.9624 167.505 85.3883 167.662C85.0948 167.741 84.9109 167.782 84.8151 167.797C84.7574 167.807 84.7892 167.797 84.8669 167.8C84.9006 167.802 85.0241 167.808 85.1787 167.865C85.3266 167.92 85.6865 168.094 85.8581 168.54L83.6183 169.402C83.7965 169.865 84.1725 170.052 84.3459 170.116C84.5261 170.183 84.6845 170.195 84.7625 170.198C84.9287 170.205 85.0863 170.184 85.1907 170.168C85.4191 170.132 85.7046 170.063 86.0185 169.977C86.6592 169.803 87.5683 169.518 88.7033 169.14C90.9801 168.382 94.2397 167.226 98.2412 165.764C106.248 162.839 117.261 158.678 129.402 154.004L128.54 151.765ZM146.131 144.885C140.76 147.019 134.812 149.351 128.54 151.765L129.402 154.004C135.683 151.587 141.639 149.253 147.017 147.115L146.131 144.885ZM143.768 182.919L147.767 146.129L145.381 145.87L141.382 182.66L143.768 182.919ZM98.5281 200.624C98.7335 201.157 98.4909 201.582 98.428 201.683C98.3427 201.82 98.2501 201.904 98.2207 201.931C98.1802 201.967 98.1468 201.992 98.1311 202.003C98.1133 202.016 98.1003 202.024 98.0947 202.028C98.0812 202.036 98.0941 202.027 98.1566 201.995C98.2714 201.937 98.4629 201.847 98.7396 201.722C99.2876 201.474 100.113 201.117 101.199 200.659C103.367 199.743 106.545 198.433 110.55 196.808C118.56 193.557 129.868 189.048 143.012 183.907L142.138 181.672C128.987 186.816 117.669 191.329 109.648 194.584C105.638 196.211 102.448 197.526 100.265 198.448C99.1743 198.909 98.3274 199.275 97.7523 199.534C97.4675 199.663 97.2347 199.772 97.0684 199.856C96.9903 199.896 96.8984 199.945 96.8166 199.996C96.7834 200.017 96.7011 200.069 96.6154 200.147C96.5781 200.18 96.4799 200.271 96.3913 200.413C96.3251 200.519 96.0815 200.948 96.2883 201.486L98.5281 200.624ZM141.945 183.53C128.963 188.478 117.77 192.686 109.803 195.602C105.818 197.06 102.649 198.193 100.468 198.932C99.3748 199.303 98.5458 199.569 97.9921 199.728C97.7097 199.81 97.5291 199.854 97.4317 199.873C97.3738 199.884 97.3967 199.875 97.4619 199.874C97.4869 199.874 97.6029 199.872 97.7527 199.914C97.8661 199.946 98.3247 200.095 98.5281 200.623L96.2883 201.486C96.497 202.028 96.9699 202.187 97.1068 202.225C97.28 202.274 97.4284 202.275 97.4948 202.274C97.6427 202.272 97.7841 202.248 97.8797 202.23C98.0893 202.191 98.356 202.121 98.6552 202.035C99.2649 201.86 100.137 201.578 101.239 201.205C103.447 200.456 106.639 199.316 110.628 197.856C118.609 194.934 129.814 190.722 142.8 185.772L141.945 183.53ZM139.523 221.975L143.566 184.781L141.18 184.521L137.137 221.716L139.523 221.975ZM111.022 233.084C111.181 233.499 111.066 233.853 110.992 234.012C110.919 234.172 110.827 234.276 110.788 234.318C110.706 234.407 110.631 234.459 110.62 234.467C110.581 234.494 110.563 234.502 110.594 234.485C110.644 234.458 110.744 234.408 110.907 234.332C111.225 234.183 111.713 233.966 112.368 233.684C113.675 233.12 115.609 232.311 118.088 231.292C123.044 229.253 130.162 226.381 138.773 222.961L137.887 220.73C129.271 224.152 122.143 227.029 117.175 229.072C114.692 230.093 112.744 230.908 111.418 231.48C110.757 231.765 110.242 231.993 109.889 232.158C109.716 232.239 109.564 232.314 109.448 232.377C109.396 232.405 109.316 232.45 109.237 232.505C109.206 232.527 109.117 232.591 109.025 232.69C108.982 232.736 108.888 232.845 108.812 233.009C108.737 233.172 108.621 233.529 108.782 233.946L111.022 233.084ZM137.734 222.32C129.255 225.509 122.231 228.109 117.313 229.868C114.852 230.749 112.929 231.415 111.617 231.839C110.957 232.053 110.473 232.198 110.158 232.279C109.994 232.321 109.915 232.336 109.894 232.339C109.874 232.341 109.939 232.33 110.044 232.338C110.093 232.342 110.226 232.356 110.386 232.424C110.548 232.493 110.865 232.676 111.022 233.084L108.782 233.946C108.943 234.365 109.269 234.557 109.446 234.632C109.62 234.706 109.774 234.724 109.848 234.73C110.004 234.743 110.141 234.727 110.214 234.717C110.38 234.695 110.57 234.651 110.757 234.603C111.144 234.503 111.685 234.34 112.355 234.123C113.703 233.687 115.655 233.011 118.122 232.128C123.058 230.362 130.097 227.757 138.579 224.566L137.734 222.32ZM135.264 261.161L139.349 223.572L136.963 223.313L132.878 260.902L135.264 261.161ZM123.515 265.547C123.713 266.059 123.496 266.471 123.428 266.585C123.344 266.726 123.251 266.814 123.22 266.843C123.148 266.91 123.087 266.947 123.086 266.948C123.068 266.96 123.074 266.954 123.131 266.925C123.233 266.873 123.405 266.791 123.658 266.676C124.159 266.449 124.915 266.12 125.912 265.698C127.904 264.854 130.826 263.646 134.523 262.143L133.619 259.92C129.918 261.425 126.983 262.637 124.976 263.488C123.974 263.913 123.195 264.25 122.666 264.49C122.405 264.609 122.189 264.711 122.034 264.791C121.961 264.828 121.872 264.876 121.791 264.927C121.759 264.948 121.676 265.002 121.589 265.082C121.551 265.118 121.452 265.212 121.365 265.358C121.295 265.477 121.077 265.893 121.276 266.409L123.515 265.547ZM133.543 260.981C129.936 262.295 127.078 263.31 125.115 263.97C124.131 264.301 123.388 264.537 122.895 264.676C122.642 264.747 122.486 264.784 122.407 264.798C122.358 264.807 122.391 264.797 122.465 264.797C122.495 264.798 122.616 264.798 122.769 264.846C122.897 264.885 123.322 265.045 123.515 265.547L121.276 266.409C121.474 266.923 121.912 267.093 122.062 267.139C122.236 267.193 122.386 267.197 122.454 267.197C122.602 267.198 122.742 267.176 122.831 267.16C123.028 267.125 123.275 267.062 123.546 266.986C124.099 266.83 124.887 266.579 125.88 266.245C127.872 265.575 130.753 264.552 134.365 263.236L133.543 260.981ZM132.987 282.104L135.147 262.238L132.761 261.979L130.601 281.845L132.987 282.104ZM132.735 285.936C132.85 284.662 132.971 283.337 132.994 281.995L130.595 281.953C130.573 283.194 130.461 284.431 130.345 285.72L132.735 285.936ZM132.53 291.541C132.398 289.698 132.56 287.872 132.735 285.936L130.345 285.72C130.173 287.626 129.988 289.644 130.136 291.712L132.53 291.541ZM141.175 306.955C136.548 303.388 133.246 297.718 132.525 291.489L130.141 291.765C130.936 298.637 134.57 304.893 139.71 308.856L141.175 306.955ZM149.092 310.585C146.416 310.02 143.495 308.594 141.135 306.926L139.75 308.885C142.304 310.691 145.523 312.285 148.596 312.933L149.092 310.585ZM155.746 311.633C153.53 311.447 151.405 311.266 149.185 310.608L148.503 312.909C150.993 313.647 153.355 313.841 155.546 314.024L155.746 311.633ZM157.95 311.835C157.211 311.755 156.472 311.693 155.746 311.633L155.546 314.024C156.277 314.085 156.986 314.145 157.691 314.221L157.95 311.835ZM183.742 314.639L157.95 311.835L157.691 314.221L183.483 317.025L183.742 314.639ZM148.403 330.196C148.585 330.671 148.41 331.062 148.338 331.195C148.257 331.344 148.163 331.438 148.129 331.472C148.053 331.547 147.987 331.589 147.982 331.593C147.955 331.61 147.952 331.61 147.998 331.586C148.079 331.543 148.221 331.474 148.437 331.375C148.861 331.181 149.506 330.899 150.361 330.534C152.067 329.807 154.579 328.764 157.773 327.46C164.159 324.852 173.255 321.204 184.052 316.949L183.172 314.716C172.369 318.974 163.263 322.626 156.865 325.238C153.668 326.544 151.142 327.592 149.419 328.327C148.559 328.693 147.891 328.985 147.436 329.194C147.211 329.297 147.022 329.387 146.884 329.46C146.82 329.493 146.736 329.539 146.656 329.592C146.625 329.613 146.539 329.67 146.451 329.756C146.411 329.796 146.313 329.895 146.23 330.049C146.155 330.186 145.979 330.581 146.163 331.059L148.403 330.196ZM186.615 315.083C174.996 319.497 165.102 323.202 158.095 325.753C154.59 327.029 151.816 328.012 149.912 328.65C148.957 328.971 148.237 329.198 147.759 329.332C147.515 329.4 147.366 329.435 147.292 329.448C147.245 329.456 147.28 329.447 147.357 329.447C147.389 329.448 147.51 329.449 147.665 329.498C147.797 329.54 148.213 329.703 148.403 330.196L146.163 331.059C146.358 331.565 146.787 331.738 146.939 331.786C147.114 331.841 147.265 331.846 147.332 331.847C147.482 331.849 147.621 331.827 147.708 331.812C147.903 331.778 148.144 331.717 148.407 331.643C148.945 331.492 149.711 331.249 150.674 330.926C152.608 330.278 155.406 329.286 158.916 328.008C165.938 325.452 175.845 321.742 187.467 317.327L186.615 315.083ZM191.367 315.468L187.171 315.012L186.912 317.398L191.108 317.854L191.367 315.468ZM292.509 326.167C268.682 323.577 234.103 319.819 191.359 315.467L191.116 317.854C233.852 322.206 268.423 325.963 292.25 328.553L292.509 326.167ZM292.52 326.168L292.51 326.167L292.25 328.553L292.26 328.554L292.52 326.168ZM292.536 326.17L292.534 326.17L292.245 328.553L292.246 328.553L292.536 326.17ZM307.166 327.761L292.521 326.168L292.261 328.554L306.907 330.147L307.166 327.761ZM229.857 109.606C242.8 111.013 253.569 111.971 261.11 112.541C264.879 112.826 267.847 113.014 269.879 113.113C270.893 113.163 271.685 113.19 272.23 113.196C272.499 113.199 272.731 113.197 272.907 113.186C272.987 113.182 273.1 113.173 273.213 113.152C273.26 113.143 273.378 113.119 273.512 113.06C273.578 113.031 273.708 112.967 273.842 112.846C273.979 112.722 274.192 112.469 274.234 112.079L271.848 111.82C271.89 111.434 272.1 111.186 272.232 111.066C272.361 110.949 272.485 110.89 272.542 110.864C272.658 110.813 272.751 110.796 272.764 110.794C272.808 110.786 272.82 110.787 272.766 110.791C272.675 110.796 272.51 110.799 272.255 110.796C271.755 110.791 270.999 110.765 269.996 110.716C267.993 110.619 265.048 110.432 261.29 110.148C253.777 109.58 243.035 108.624 230.116 107.22L229.857 109.606ZM188.746 102.807C188.674 103.473 189.132 103.856 189.218 103.926C189.365 104.046 189.517 104.119 189.605 104.158C189.799 104.245 190.033 104.318 190.266 104.381C190.749 104.513 191.441 104.66 192.314 104.822C194.072 105.148 196.676 105.554 200.075 106.027C206.879 106.975 216.92 108.2 229.857 109.606L230.116 107.22C217.191 105.815 207.177 104.593 200.407 103.65C197.019 103.178 194.456 102.778 192.752 102.462C191.895 102.303 191.282 102.17 190.896 102.065C190.802 102.04 190.729 102.018 190.673 101.999C190.645 101.99 190.624 101.983 190.608 101.977C190.6 101.974 190.594 101.971 190.59 101.97C190.588 101.969 190.587 101.968 190.585 101.968C190.584 101.967 190.584 101.967 190.584 101.967C190.584 101.967 190.585 101.967 190.586 101.968C190.587 101.969 190.589 101.969 190.591 101.971C190.596 101.973 190.605 101.977 190.616 101.984C190.635 101.994 190.678 102.02 190.733 102.065C190.767 102.092 191.201 102.436 191.132 103.066L188.746 102.807ZM230.305 105.477C217.37 104.071 207.311 103.064 200.48 102.445C197.065 102.135 194.45 101.922 192.683 101.804C191.802 101.746 191.117 101.71 190.646 101.698C190.415 101.693 190.208 101.692 190.045 101.701C189.972 101.706 189.855 101.714 189.734 101.74C189.683 101.751 189.552 101.78 189.407 101.855C189.332 101.893 188.817 102.156 188.746 102.807L191.132 103.066C191.063 103.707 190.556 103.962 190.496 103.993C190.365 104.06 190.257 104.082 190.234 104.087C190.171 104.101 190.14 104.1 190.18 104.098C190.243 104.094 190.372 104.092 190.587 104.098C191.007 104.108 191.651 104.141 192.523 104.199C194.262 104.315 196.855 104.526 200.263 104.835C207.076 105.452 217.12 106.458 230.046 107.863L230.305 105.477ZM274.234 112.079C274.278 111.675 274.117 111.367 273.989 111.198C273.868 111.038 273.734 110.94 273.66 110.891C273.51 110.791 273.356 110.731 273.264 110.697C273.06 110.623 272.805 110.558 272.537 110.499C271.985 110.377 271.19 110.24 270.187 110.088C268.172 109.783 265.22 109.402 261.473 108.954C253.974 108.057 243.234 106.882 230.305 105.477L230.046 107.863C242.979 109.268 253.704 110.442 261.188 111.337C264.932 111.785 267.852 112.161 269.827 112.461C270.819 112.611 271.549 112.739 272.02 112.843C272.263 112.896 272.393 112.934 272.445 112.953C272.48 112.966 272.422 112.95 272.334 112.891C272.291 112.863 272.181 112.785 272.074 112.645C271.961 112.495 271.806 112.206 271.848 111.82L274.234 112.079ZM325.95 152.787C326.024 152.105 326.588 151.855 326.622 151.839C326.751 151.778 326.86 151.756 326.886 151.751C326.957 151.737 327.003 151.736 326.987 151.737C326.973 151.738 326.919 151.739 326.808 151.736C326.595 151.732 326.261 151.716 325.804 151.688C324.895 151.633 323.548 151.533 321.804 151.392C318.318 151.109 313.273 150.662 307.036 150.076C294.564 148.904 277.337 147.178 258.31 145.11L258.05 147.496C277.089 149.566 294.328 151.292 306.812 152.465C313.054 153.052 318.11 153.5 321.61 153.784C323.359 153.926 324.725 154.027 325.659 154.084C326.123 154.112 326.493 154.13 326.754 154.136C326.88 154.139 327.006 154.139 327.113 154.134C327.158 154.131 327.25 154.126 327.351 154.106C327.393 154.097 327.513 154.073 327.651 154.007C327.693 153.988 328.261 153.734 328.336 153.047L325.95 152.787ZM258.231 145.752C277.103 147.95 294.302 149.966 306.778 151.47C313.017 152.221 318.072 152.844 321.563 153.297C323.31 153.524 324.66 153.707 325.568 153.842C326.025 153.91 326.357 153.963 326.57 154.003C326.68 154.024 326.734 154.036 326.748 154.04C326.764 154.044 326.719 154.034 326.653 154.006C326.629 153.996 326.527 153.953 326.413 153.866C326.385 153.845 325.874 153.48 325.95 152.787L328.336 153.047C328.411 152.35 327.897 151.98 327.863 151.953C327.741 151.861 327.628 151.812 327.589 151.796C327.494 151.756 327.406 151.731 327.362 151.72C327.259 151.693 327.135 151.667 327.011 151.644C326.753 151.596 326.384 151.537 325.921 151.468C324.99 151.329 323.622 151.144 321.872 150.917C318.369 150.462 313.306 149.839 307.065 149.087C294.584 147.583 277.38 145.566 258.508 143.368L258.231 145.752ZM190.6 138.076C190.526 138.758 189.962 139.008 189.928 139.024C189.798 139.085 189.69 139.107 189.664 139.112C189.593 139.126 189.547 139.127 189.562 139.126C189.577 139.125 189.63 139.124 189.742 139.127C189.955 139.131 190.288 139.147 190.745 139.175C191.654 139.23 193.002 139.33 194.746 139.471C198.231 139.754 203.276 140.201 209.513 140.787C221.985 141.959 239.212 143.685 258.24 145.753L258.499 143.367C239.46 141.297 222.222 139.571 209.738 138.398C203.496 137.811 198.44 137.363 194.94 137.079C193.191 136.937 191.824 136.836 190.891 136.779C190.426 136.751 190.056 136.733 189.795 136.727C189.67 136.724 189.544 136.724 189.437 136.729C189.392 136.732 189.3 136.737 189.198 136.757C189.157 136.766 189.037 136.79 188.899 136.856C188.857 136.875 188.289 137.129 188.214 137.816L190.6 138.076ZM258.31 145.11C239.279 143.042 222.075 141.098 209.639 139.6C203.419 138.85 198.399 138.213 194.94 137.727C193.208 137.484 191.881 137.28 190.995 137.121C190.547 137.041 190.237 136.976 190.05 136.928C189.949 136.902 189.93 136.892 189.954 136.902C189.957 136.904 190.044 136.938 190.15 137.018C190.172 137.035 190.674 137.392 190.6 138.076L188.214 137.816C188.138 138.518 188.653 138.895 188.703 138.933C188.837 139.034 188.967 139.091 189.028 139.116C189.167 139.175 189.321 139.219 189.451 139.252C189.727 139.323 190.109 139.401 190.571 139.483C191.504 139.651 192.867 139.859 194.606 140.103C198.089 140.593 203.128 141.232 209.351 141.982C221.801 143.483 239.015 145.427 258.05 147.496L258.31 145.11ZM319.442 222.818C319.516 222.136 320.08 221.886 320.114 221.87C320.244 221.808 320.352 221.787 320.379 221.782C320.449 221.768 320.495 221.767 320.48 221.768C320.466 221.768 320.412 221.77 320.301 221.767C320.087 221.762 319.754 221.747 319.297 221.719C318.388 221.664 317.041 221.564 315.296 221.423C311.811 221.14 306.766 220.693 300.529 220.107C288.057 218.935 270.83 217.209 251.802 215.141L251.543 217.527C270.582 219.596 287.82 221.323 300.305 222.496C306.546 223.083 311.603 223.531 315.103 223.815C316.851 223.957 318.218 224.058 319.151 224.114C319.616 224.143 319.986 224.161 320.247 224.166C320.372 224.169 320.499 224.17 320.605 224.164C320.65 224.162 320.742 224.156 320.844 224.136C320.886 224.128 321.006 224.103 321.143 224.038C321.185 224.018 321.753 223.764 321.828 223.077L319.442 222.818ZM251.732 215.783C270.618 217.836 287.822 219.78 300.295 221.282C306.532 222.034 311.58 222.674 315.062 223.162C316.805 223.407 318.142 223.612 319.036 223.771C319.488 223.852 319.801 223.917 319.99 223.966C320.093 223.992 320.113 224.002 320.09 223.993C320.088 223.991 320.001 223.957 319.896 223.879C319.878 223.865 319.367 223.507 319.442 222.818L321.828 223.077C321.905 222.37 321.382 221.993 321.335 221.958C321.202 221.858 321.072 221.801 321.011 221.776C320.872 221.718 320.717 221.674 320.586 221.641C320.309 221.57 319.924 221.492 319.459 221.409C318.519 221.241 317.145 221.031 315.395 220.786C311.89 220.294 306.823 219.651 300.582 218.9C288.096 217.395 270.882 215.451 251.992 213.397L251.732 215.783ZM184.093 208.106C184.018 208.789 183.454 209.038 183.42 209.055C183.291 209.116 183.183 209.137 183.156 209.143C183.085 209.157 183.039 209.158 183.055 209.157C183.069 209.156 183.123 209.155 183.234 209.157C183.448 209.162 183.781 209.178 184.238 209.206C185.147 209.261 186.494 209.36 188.238 209.502C191.724 209.784 196.769 210.232 203.006 210.818C215.478 211.99 232.705 213.715 251.732 215.783L251.992 213.397C232.953 211.328 215.715 209.601 203.23 208.428C196.988 207.842 191.932 207.393 188.432 207.11C186.683 206.968 185.317 206.867 184.383 206.81C183.919 206.782 183.549 206.764 183.288 206.758C183.162 206.755 183.036 206.754 182.93 206.76C182.884 206.762 182.793 206.768 182.691 206.788C182.649 206.796 182.529 206.821 182.392 206.886C182.35 206.906 181.781 207.16 181.707 207.847L184.093 208.106ZM251.802 215.141C232.771 213.072 215.567 211.129 203.131 209.63C196.912 208.881 191.891 208.243 188.433 207.757C186.701 207.514 185.374 207.311 184.487 207.152C184.039 207.071 183.729 207.007 183.543 206.959C183.442 206.933 183.422 206.923 183.446 206.933C183.45 206.934 183.537 206.969 183.643 207.049C183.665 207.065 184.167 207.423 184.093 208.106L181.707 207.847C181.63 208.549 182.146 208.926 182.196 208.964C182.329 209.065 182.459 209.122 182.52 209.147C182.66 209.205 182.814 209.249 182.944 209.283C183.22 209.354 183.602 209.431 184.063 209.514C184.996 209.681 186.36 209.89 188.099 210.134C191.581 210.623 196.621 211.263 202.844 212.013C215.294 213.513 232.508 215.458 251.543 217.527L251.802 215.141ZM315.712 257.107C315.786 256.425 316.35 256.175 316.384 256.159C316.514 256.098 316.622 256.076 316.648 256.071C316.719 256.057 316.765 256.056 316.75 256.057C316.735 256.058 316.682 256.059 316.57 256.056C316.357 256.052 316.023 256.036 315.566 256.008C314.657 255.953 313.31 255.853 311.566 255.712C308.08 255.429 303.035 254.982 296.799 254.396C284.326 253.224 267.099 251.498 248.072 249.43L247.813 251.816C266.851 253.886 284.09 255.612 296.574 256.785C302.816 257.372 307.872 257.82 311.372 258.104C313.121 258.246 314.487 258.347 315.421 258.404C315.885 258.432 316.256 258.45 316.516 258.456C316.642 258.459 316.768 258.459 316.875 258.454C316.92 258.451 317.012 258.446 317.113 258.426C317.155 258.417 317.275 258.393 317.413 258.327C317.455 258.308 318.023 258.054 318.098 257.367L315.712 257.107ZM247.993 250.072C266.865 252.27 284.064 254.286 296.541 255.79C302.779 256.541 307.834 257.164 311.326 257.617C313.073 257.844 314.422 258.027 315.33 258.162C315.787 258.23 316.12 258.283 316.332 258.323C316.443 258.344 316.496 258.356 316.511 258.36C316.526 258.364 316.482 258.354 316.416 258.326C316.391 258.316 316.289 258.273 316.175 258.186C316.147 258.165 315.637 257.8 315.712 257.107L318.098 257.367C318.173 256.67 317.66 256.3 317.625 256.273C317.503 256.181 317.39 256.132 317.351 256.116C317.256 256.076 317.168 256.051 317.124 256.04C317.021 256.013 316.897 255.987 316.773 255.964C316.515 255.916 316.147 255.857 315.683 255.788C314.752 255.649 313.385 255.464 311.634 255.237C308.132 254.782 303.068 254.159 296.828 253.407C284.346 251.903 267.143 249.886 248.271 247.688L247.993 250.072ZM180.362 242.396C180.288 243.079 179.721 243.32 179.696 243.332C179.575 243.387 179.482 243.402 179.479 243.403C179.453 243.407 179.474 243.402 179.579 243.398C179.771 243.391 180.088 243.395 180.542 243.413C181.442 243.448 182.782 243.534 184.526 243.669C188.008 243.937 193.048 244.393 199.284 244.998C211.751 246.206 228.971 248.004 248.002 250.073L248.261 247.687C229.226 245.618 211.996 243.818 199.515 242.609C193.276 242.004 188.217 241.546 184.711 241.276C182.96 241.141 181.583 241.051 180.636 241.015C180.167 240.996 179.778 240.99 179.493 241C179.359 241.005 179.199 241.014 179.05 241.041C178.985 241.053 178.846 241.081 178.694 241.151C178.637 241.177 178.053 241.435 177.976 242.136L180.362 242.396ZM248.072 249.43C229.041 247.362 211.837 245.418 199.401 243.92C193.181 243.17 188.161 242.533 184.702 242.047C182.97 241.804 181.643 241.6 180.757 241.441C180.309 241.361 179.999 241.296 179.812 241.248C179.711 241.222 179.692 241.212 179.716 241.222C179.719 241.224 179.807 241.258 179.912 241.338C179.934 241.355 180.436 241.712 180.362 242.396L177.976 242.136C177.9 242.838 178.415 243.215 178.465 243.253C178.599 243.354 178.729 243.411 178.79 243.436C178.929 243.495 179.084 243.539 179.213 243.572C179.49 243.643 179.871 243.721 180.333 243.803C181.266 243.971 182.63 244.179 184.368 244.423C187.851 244.913 192.89 245.552 199.114 246.302C211.563 247.803 228.777 249.747 247.813 251.816L248.072 249.43ZM311.954 291.688C312.028 291.005 312.592 290.756 312.626 290.74C312.755 290.678 312.864 290.657 312.89 290.652C312.961 290.638 313.007 290.637 312.991 290.638C312.977 290.638 312.923 290.64 312.812 290.637C312.599 290.632 312.265 290.617 311.808 290.589C310.899 290.534 309.552 290.434 307.808 290.293C304.322 290.01 299.277 289.563 293.041 288.977C280.568 287.805 263.341 286.079 244.314 284.011L244.054 286.397C263.093 288.466 280.332 290.193 292.816 291.366C299.058 291.953 304.114 292.401 307.614 292.685C309.363 292.827 310.729 292.928 311.663 292.984C312.127 293.013 312.497 293.031 312.758 293.036C312.884 293.039 313.01 293.04 313.117 293.034C313.162 293.032 313.254 293.026 313.355 293.006C313.397 292.998 313.517 292.973 313.655 292.908C313.697 292.888 314.265 292.634 314.34 291.947L311.954 291.688ZM244.244 284.653C263.126 286.706 280.321 288.722 292.791 290.261C299.026 291.03 304.077 291.68 307.564 292.156C309.309 292.394 310.657 292.587 311.564 292.729C312.02 292.801 312.352 292.857 312.564 292.899C312.674 292.92 312.728 292.933 312.742 292.937C312.758 292.941 312.714 292.931 312.648 292.902C312.624 292.892 312.523 292.848 312.41 292.761C312.384 292.741 311.879 292.376 311.954 291.688L314.34 291.947C314.415 291.255 313.906 290.884 313.873 290.859C313.753 290.766 313.641 290.717 313.603 290.7C313.508 290.659 313.42 290.634 313.376 290.622C313.273 290.594 313.149 290.568 313.025 290.543C312.767 290.493 312.399 290.431 311.936 290.358C311.005 290.212 309.638 290.016 307.888 289.778C304.387 289.3 299.325 288.649 293.085 287.879C280.604 286.338 263.397 284.321 244.503 282.267L244.244 284.653ZM176.604 276.976C176.53 277.659 175.966 277.908 175.932 277.924C175.802 277.986 175.694 278.007 175.668 278.012C175.597 278.026 175.551 278.027 175.566 278.027C175.581 278.026 175.634 278.025 175.746 278.027C175.959 278.032 176.292 278.048 176.749 278.075C177.658 278.131 179.006 278.23 180.75 278.372C184.235 278.654 189.28 279.102 195.517 279.688C207.989 280.86 225.216 282.585 244.244 284.653L244.503 282.267C225.465 280.198 208.226 278.471 195.742 277.298C189.5 276.712 184.444 276.263 180.944 275.98C179.195 275.838 177.828 275.737 176.895 275.68C176.43 275.652 176.06 275.634 175.799 275.628C175.674 275.625 175.548 275.624 175.441 275.63C175.396 275.632 175.304 275.638 175.202 275.658C175.161 275.666 175.041 275.691 174.903 275.756C174.861 275.776 174.293 276.03 174.218 276.717L176.604 276.976ZM244.314 284.011C225.283 281.942 208.079 279.999 195.643 278.5C189.423 277.751 184.403 277.113 180.944 276.627C179.212 276.384 177.885 276.181 176.999 276.022C176.551 275.941 176.241 275.877 176.054 275.829C175.953 275.803 175.933 275.793 175.958 275.803C175.961 275.804 176.048 275.839 176.154 275.919C176.176 275.935 176.678 276.293 176.604 276.976L174.218 276.717C174.142 277.419 174.657 277.796 174.707 277.833C174.841 277.934 174.971 277.992 175.032 278.017C175.171 278.075 175.325 278.119 175.455 278.153C175.731 278.224 176.113 278.301 176.575 278.384C177.508 278.551 178.871 278.76 180.61 279.004C184.093 279.493 189.132 280.133 195.355 280.883C207.805 282.383 225.019 284.328 244.054 286.397L244.314 284.011ZM157.936 48.7121L157.936 48.7141L160.323 48.9567L160.324 48.9547L157.936 48.7121ZM256.074 324.211L256.108 324.215L256.371 321.829L256.338 321.826L256.074 324.211Z" fill="#FFD60C" mask="url(#path-1-outside-1_128_48)"/>
<path fill-rule="evenodd" clip-rule="evenodd" d="M329.126 177.239L338.06 178.295C344.55 178.972 348.48 183.373 347.794 189.269C347.109 195.165 342.284 198.566 335.794 197.889L326.86 196.833L329.126 177.239ZM336.034 194.021C340.024 194.497 342.847 192.434 343.266 188.622C343.685 184.811 341.329 182.29 337.518 181.871L333.348 181.338L332.043 193.545L336.034 194.021Z" fill="#FFD60C"/>
<path fill-rule="evenodd" clip-rule="evenodd" d="M349.936 189.353C350.621 183.457 355.56 179.698 361.871 180.317C368.126 181.116 372.178 185.753 371.492 191.649C370.807 197.545 365.689 201.248 359.557 200.685C353.425 200.122 349.251 195.249 349.936 189.353ZM366.851 191.361C367.27 187.55 364.97 184.849 361.395 184.308C357.942 184.002 354.883 186.188 354.521 189.82C354.102 193.632 356.401 196.332 359.976 196.874C363.552 197.415 366.488 194.994 366.851 191.361Z" fill="#FFD60C"/>
<path d="M373.704 192.152C374.39 186.256 379.328 182.497 385.639 183.116C389.092 183.422 391.732 185.047 393.315 187.521L390.02 189.829C388.804 188.063 387.305 187.194 385.399 186.984C381.767 186.622 378.887 188.865 378.289 192.619C377.87 196.43 380.169 199.131 383.924 199.729C385.829 199.939 387.604 199.318 389.19 198.046L391.791 201.039C389.742 203.151 386.722 203.969 383.269 203.663C377.014 202.864 373.019 198.048 373.704 192.152Z" fill="#FFD60C"/>
<path fill-rule="evenodd" clip-rule="evenodd" d="M404.953 221.381L308.767 211.209C304.533 210.853 301.606 206.968 302.054 202.574L306.547 166.332C306.995 161.938 310.82 158.812 315.054 159.168L411.24 169.34C415.474 169.696 418.401 173.581 417.953 177.975L413.632 214.271C413.012 218.611 409.187 221.737 404.953 221.381ZM309.003 208.394C306.544 208.187 304.569 205.896 304.862 202.888L309.355 166.649L309.358 166.619C309.65 163.753 312.117 161.771 314.791 161.981L410.973 172.153L411.004 172.155C413.465 172.362 415.44 174.656 415.145 177.667L410.83 213.902C410.401 216.802 407.871 218.776 405.216 218.568L309.034 208.396L309.003 208.394Z" fill="#FFD60C"/>
</g>
<defs>
<filter id="filter0_d_128_48" x="0.96875" y="0.139648" width="447.029" height="431.673" filterUnits="userSpaceOnUse" color-interpolation-filters="sRGB">
<feFlood flood-opacity="0" result="BackgroundImageFix"/>
<feColorMatrix in="SourceAlpha" type="matrix" values="0 0 0 0 0 0 0 0 0 0 0 0 0 0 0 0 0 0 127 0" result="hardAlpha"/>
<feOffset dy="10"/>
<feGaussianBlur stdDeviation="15"/>
<feComposite in2="hardAlpha" operator="out"/>
<feColorMatrix type="matrix" values="0 0 0 0 1 0 0 0 0 0.839216 0 0 0 0 0.0470588 0 0 0 1 0"/>
<feBlend mode="normal" in2="BackgroundImageFix" result="effect1_dropShadow_128_48"/>
<feBlend mode="normal" in="SourceGraphic" in2="effect1_dropShadow_128_48" result="shape"/>
</filter>
</defs>
</svg>
