<svg width="451" height="347" viewBox="0 0 451 347" fill="none" xmlns="http://www.w3.org/2000/svg">
<g filter="url(#filter0_d_121_16)">
<path fill-rule="evenodd" clip-rule="evenodd" d="M102.265 240.683C98.9326 239.472 95.8665 237.594 93.0666 235.049C90.2667 232.505 87.9473 229.367 86.1083 225.636C84.2693 221.904 83.1936 218.153 82.8814 214.383C82.5691 210.612 82.9474 207.037 84.0164 203.656C85.1331 200.252 86.868 197.197 89.221 194.491C91.5504 191.738 94.4613 189.5 97.9535 187.779C101.637 185.964 104.959 184.922 107.918 184.652C110.853 184.335 113.833 184.591 116.858 185.419L119.439 190.658C118.161 190.119 116.846 189.712 115.493 189.437C113.749 189.082 111.943 188.946 110.075 189.03C106.807 189.154 103.426 190.077 99.934 191.798C96.2026 193.637 93.2418 196.255 91.0518 199.654C88.886 202.98 87.6958 206.718 87.4811 210.867C87.2665 215.016 88.2201 219.244 90.342 223.549C92.4404 227.807 95.2119 231.138 98.6566 233.543C102.078 235.9 105.779 237.257 109.76 237.614C113.718 237.923 117.586 237.146 121.365 235.283C124.906 233.539 127.696 231.42 129.738 228.927C130.913 227.47 131.891 225.926 132.673 224.297C133.267 223.06 133.748 221.773 134.116 220.437L136.733 225.748C135.548 228.651 133.947 231.194 131.931 233.376C129.891 235.511 127.029 237.487 123.346 239.302C119.854 241.023 116.318 241.993 112.739 242.211C109.136 242.381 105.645 241.872 102.265 240.683ZM152.588 219.45L129.671 172.95L125.725 174.895L150.48 225.126L175.165 212.961L173.326 209.229L152.588 219.45ZM171.727 196.193C174.504 198.69 177.594 200.556 180.997 201.792C184.378 202.98 187.893 203.477 191.543 203.284C195.242 203.066 198.885 202.074 202.473 200.305C206.061 198.537 209.043 196.264 211.42 193.487C213.846 190.687 215.616 187.584 216.733 184.18C217.826 180.728 218.229 177.14 217.94 173.418C217.628 169.647 216.564 165.92 214.748 162.237C212.933 158.553 210.637 155.463 207.861 152.967C205.061 150.422 201.971 148.556 198.591 147.368C195.187 146.132 191.636 145.622 187.938 145.84C184.287 146.033 180.668 147.014 177.08 148.783C173.492 150.551 170.486 152.835 168.061 155.636C165.683 158.413 163.948 161.528 162.855 164.98C161.738 168.384 161.336 171.972 161.648 175.742C161.937 179.464 162.989 183.167 164.804 186.851C166.62 190.535 168.928 193.649 171.727 196.193ZM169.676 160.905C167.486 164.303 166.296 168.1 166.104 172.297C165.938 176.422 166.892 180.59 168.966 184.8C171.018 188.962 173.742 192.257 177.138 194.686C180.583 197.091 184.332 198.484 188.384 198.865C192.461 199.174 196.509 198.339 200.527 196.359C204.546 194.378 207.65 191.689 209.84 188.291C212.055 184.821 213.233 180.999 213.377 176.826C213.52 172.653 212.566 168.485 210.515 164.323C208.44 160.114 205.716 156.818 202.343 154.438C198.946 152.009 195.209 150.64 191.132 150.33C187.079 149.949 183.044 150.749 179.025 152.729C175.007 154.71 171.89 157.435 169.676 160.905ZM235.276 172.544C234.081 171.832 232.916 171.033 231.781 170.146C230.996 169.533 230.225 168.878 229.469 168.182L227.23 171.782C229.199 173.726 231.42 175.336 233.893 176.615C236.343 177.845 238.974 178.54 241.788 178.7C244.626 178.787 247.48 178.124 250.35 176.709C253.077 175.366 255.258 173.577 256.892 171.345C258.527 169.112 259.484 166.649 259.761 163.955C260.039 161.261 259.506 158.551 258.162 155.824C256.701 152.858 254.852 150.737 252.618 149.46C250.383 148.183 248.002 147.454 245.475 147.272C242.995 147.067 240.658 147.089 238.462 147.339C233.688 147.908 229.848 147.838 226.943 147.13C224.085 146.398 221.972 144.645 220.604 141.87C219.496 139.621 219.366 137.367 220.214 135.106C221.038 132.797 222.909 130.923 225.828 129.485C228.028 128.401 230.082 127.923 231.989 128.054C233.873 128.136 235.6 128.563 237.17 129.336C237.77 129.631 238.344 129.943 238.892 130.273C239.777 130.806 240.593 131.384 241.341 132.007L243.83 128.372C242.359 127.076 240.6 125.98 238.554 125.086C236.508 124.192 234.256 123.726 231.8 123.688C229.391 123.626 226.847 124.255 224.168 125.576C221.537 126.872 219.453 128.554 217.914 130.62C216.4 132.615 215.517 134.804 215.265 137.188C215.012 139.572 215.487 141.984 216.69 144.423C217.751 146.576 219.065 148.218 220.633 149.348C222.249 150.454 223.997 151.227 225.879 151.668C227.737 152.06 229.62 152.261 231.528 152.272C233.461 152.212 235.274 152.091 236.969 151.91C239.236 151.685 241.466 151.626 243.66 151.734C245.878 151.771 247.903 152.259 249.734 153.2C251.565 154.141 253.082 155.831 254.284 158.271C255.652 161.045 255.851 163.801 254.881 166.539C253.935 169.205 251.836 171.339 248.583 172.943C246.143 174.145 243.815 174.668 241.597 174.512C239.38 174.357 237.273 173.7 235.276 172.544ZM275.993 158.631L265.171 136.673L286.771 126.028L284.932 122.297L263.332 132.942L254.915 115.863L277.95 104.511L276.111 100.779L249.13 114.077L273.885 164.308L300.867 151.01L299.028 147.279L275.993 158.631ZM315.497 85.2927C310.776 85.0032 305.975 86.0609 301.096 88.4657L287.462 95.1852L312.217 145.416L325.851 138.697C330.731 136.292 334.494 133.129 337.14 129.209C339.834 125.265 341.29 120.92 341.508 116.175C341.751 111.359 340.634 106.439 338.159 101.416C335.683 96.3924 332.473 92.5339 328.529 89.8398C324.61 87.0743 320.265 85.5586 315.497 85.2927ZM315.257 89.692C311.323 89.4309 307.251 90.3377 303.041 92.4125L293.353 97.1868L314.219 139.524L323.906 134.75C328.116 132.675 331.328 130.022 333.541 126.791C335.778 123.489 336.979 119.834 337.145 115.828C337.288 111.774 336.31 107.618 334.212 103.361C332.09 99.0551 329.39 95.7481 326.111 93.4395C322.833 91.1309 319.215 89.8817 315.257 89.692Z" fill="#FFD60C"/>
<circle cx="371.985" cy="84.8911" r="8.5" transform="rotate(-19.3112 371.985 84.8911)" stroke="#FFD60C" stroke-width="3" stroke-linecap="round"/>
<path d="M100.75 142.509L33.4793 176.786C32.4951 177.288 32.1038 178.492 32.6053 179.476L96.1653 304.217C96.6668 305.201 97.8711 305.592 98.8553 305.091L370.31 166.774C370.787 166.531 371.147 166.106 371.309 165.594L401.065 71.4067L306.487 38.371C305.972 38.1911 305.405 38.2294 304.919 38.4771L244.201 69.4153" stroke="#FFD60C" stroke-width="3" stroke-linecap="round"/>
</g>
<defs>
<filter id="filter0_d_121_16" x="0.886719" y="16.759" width="432.047" height="330.05" filterUnits="userSpaceOnUse" color-interpolation-filters="sRGB">
<feFlood flood-opacity="0" result="BackgroundImageFix"/>
<feColorMatrix in="SourceAlpha" type="matrix" values="0 0 0 0 0 0 0 0 0 0 0 0 0 0 0 0 0 0 127 0" result="hardAlpha"/>
<feOffset dy="10"/>
<feGaussianBlur stdDeviation="15"/>
<feComposite in2="hardAlpha" operator="out"/>
<feColorMatrix type="matrix" values="0 0 0 0 1 0 0 0 0 0.839216 0 0 0 0 0.0470588 0 0 0 1 0"/>
<feBlend mode="normal" in2="BackgroundImageFix" result="effect1_dropShadow_121_16"/>
<feBlend mode="normal" in="SourceGraphic" in2="effect1_dropShadow_121_16" result="shape"/>
</filter>
</defs>
</svg>
