<svg width="390" height="382" viewBox="0 0 390 382" fill="none" xmlns="http://www.w3.org/2000/svg">
<g filter="url(#filter0_d_139_24)">
<path d="M358.612 322.018C358.9 322.024 359.164 322.074 359.401 322.164C359.405 322.166 359.408 322.167 359.412 322.169" fill="#FFD60C"/>
<path fill-rule="evenodd" clip-rule="evenodd" d="M325.505 322.779H358.698C359.078 322.808 359.353 322.946 359.537 323.131C359.744 323.339 359.894 323.666 359.894 324.13L359.897 339.784C359.897 340.248 359.746 340.575 359.539 340.784C359.333 340.992 359.011 341.142 358.557 341.142H31.4418C30.9871 341.142 30.6656 340.992 30.4591 340.784C30.252 340.575 30.1016 340.248 30.1016 339.784V324.555C30.1016 324.091 30.252 323.763 30.4591 323.555C30.6657 323.346 30.9871 323.197 31.4417 323.197L64.071 323.2V313.557C64.071 313.093 64.2214 312.766 64.4286 312.557C64.6351 312.349 64.9566 312.199 65.4112 312.199H80.8483V279.716C80.8483 279.251 80.9987 278.924 81.2058 278.715C81.4123 278.507 81.7338 278.357 82.1885 278.357H88.3986V159.667H82.1885C81.7338 159.667 81.4123 159.518 81.2058 159.309C80.9987 159.1 80.8483 158.773 80.8483 158.309V125.825H65.4112C64.9566 125.825 64.6351 125.676 64.4286 125.467C64.2214 125.258 64.071 124.931 64.071 124.467V114.825H57.8609C57.6914 114.825 57.4414 114.733 57.149 114.481C56.8784 114.247 56.6344 113.928 56.4663 113.603C56.3138 113.113 56.3418 112.783 56.4214 112.569C56.5011 112.354 56.6644 112.17 56.9431 112.03L56.9842 112.01L194.957 20.2167C195.555 19.9281 196.116 19.9278 196.713 20.2157L332.177 111.585L332.219 111.606C332.767 111.884 333.062 112.441 333.062 113.046C333.062 113.51 332.911 113.838 332.704 114.047C332.497 114.255 332.176 114.405 331.721 114.405H325.511V124.047C325.511 124.511 325.361 124.838 325.154 125.047C324.947 125.256 324.626 125.405 324.171 125.405H308.734V157.889C308.734 158.353 308.584 158.68 308.376 158.889C308.17 159.098 307.848 159.247 307.394 159.247H301.184L301.178 277.937H307.388C307.843 277.937 308.164 278.087 308.371 278.295C308.578 278.504 308.728 278.831 308.728 279.295V311.779H324.165C324.62 311.779 324.941 311.928 325.148 312.137C325.355 312.346 325.505 312.673 325.505 313.137V322.779ZM269.73 280.655V311.78H305.715V311.022H306.053V280.655H269.73ZM216.049 279.296V311.78H267.049V279.296C267.049 278.832 267.199 278.505 267.406 278.296C267.613 278.087 267.934 277.938 268.389 277.938H274.599V159.248H268.389C267.934 159.248 267.613 159.098 267.406 158.89C267.199 158.681 267.049 158.353 267.049 157.889V125.406H216.049V157.889C216.049 158.353 215.899 158.681 215.692 158.89C215.485 159.098 215.164 159.248 214.709 159.248H208.499V277.938H214.709C215.164 277.938 215.485 278.087 215.692 278.296C215.899 278.505 216.049 278.832 216.049 279.296ZM122.947 279.296V311.78H173.947V279.296C173.947 278.832 174.097 278.505 174.304 278.296C174.511 278.087 174.832 277.938 175.287 277.938H181.497V159.248H175.287C174.832 159.248 174.511 159.098 174.304 158.89C174.097 158.681 173.947 158.353 173.947 157.889V125.406H122.947V157.889C122.947 158.353 122.797 158.681 122.59 158.89C122.383 159.098 122.062 159.248 121.607 159.248H115.397V277.938H121.607C122.062 277.938 122.383 278.087 122.59 278.296C122.797 278.505 122.947 278.832 122.947 279.296ZM184.176 277.938H205.402V159.248H184.176V277.938ZM176.626 125.407V156.532H213.368V125.407H176.626ZM212.955 311.778V280.653H176.21L176.213 311.778H212.955ZM277.28 277.936H298.505V159.246H277.28V277.936ZM269.732 156.531H306.474V125.406H269.732V156.531ZM327.485 111.691L195.842 22.8809L62.4904 111.691H327.485ZM323.249 122.69V114.407H66.7544L66.7508 122.687L323.249 122.69ZM120.269 156.951V125.826H84.2851V126.583H83.9464V156.951H120.269ZM112.722 159.246H91.4967V277.936H112.722V159.246ZM120.269 280.651H83.5278V311.776H120.269V280.651ZM323.668 314.493H67.172V322.777H323.668V314.493ZM32.783 325.493V338.005H357.635L357.638 325.493H32.783Z" fill="#FFD60C"/>
</g>
<defs>
<filter id="filter0_d_139_24" x="0.101562" y="0" width="389.795" height="381.142" filterUnits="userSpaceOnUse" color-interpolation-filters="sRGB">
<feFlood flood-opacity="0" result="BackgroundImageFix"/>
<feColorMatrix in="SourceAlpha" type="matrix" values="0 0 0 0 0 0 0 0 0 0 0 0 0 0 0 0 0 0 127 0" result="hardAlpha"/>
<feOffset dy="10"/>
<feGaussianBlur stdDeviation="15"/>
<feComposite in2="hardAlpha" operator="out"/>
<feColorMatrix type="matrix" values="0 0 0 0 1 0 0 0 0 0.839216 0 0 0 0 0.0470588 0 0 0 1 0"/>
<feBlend mode="normal" in2="BackgroundImageFix" result="effect1_dropShadow_139_24"/>
<feBlend mode="normal" in="SourceGraphic" in2="effect1_dropShadow_139_24" result="shape"/>
</filter>
</defs>
</svg>
