<svg width="366" height="511" viewBox="0 0 366 511" fill="none" xmlns="http://www.w3.org/2000/svg">
<g filter="url(#filter0_d_118_13)">
<path d="M193.196 96.8185C220.662 126.264 256.293 146.82 295.508 155.863M295.723 154.374C256.848 145.383 221.526 124.992 194.293 95.7954L191.579 92.886C218.367 69.5481 249.876 51.0875 284.956 39.1268L288.092 38.0575L292.009 55.9139C299.248 88.9144 300.29 122.207 295.723 154.374ZM192.099 97.8417C219.795 127.534 255.734 148.254 295.284 157.351C284.691 226.565 248.102 290.34 191.43 334.452L96.7313 278.61C103.177 206.863 136.996 141.46 189.327 94.8696L192.099 97.8417ZM96.453 281.929L188.867 336.423C183.06 340.835 177.048 345.043 170.836 349.031L95.6083 304.671C95.5827 297.032 95.8676 289.447 96.453 281.929Z" stroke="#FFD60C" stroke-width="3" stroke-linecap="round"/>
<circle cx="208.197" cy="194.362" r="43.796" transform="rotate(30.5268 208.197 194.362)" stroke="#FFD60C" stroke-width="3"/>
<circle cx="208.197" cy="194.362" r="35.6279" transform="rotate(30.5268 208.197 194.362)" stroke="#FFD60C" stroke-width="3"/>
</g>
<g filter="url(#filter1_d_118_13)">
<path d="M50.9881 468.355C51.0153 438.217 55.6543 418.331 60.8921 405.052C65.1969 394.138 69.8869 387.692 72.9366 383.501C73.7049 382.445 74.369 381.532 74.8967 380.727L77.8488 376.223L72.9933 378.552C58.6567 385.431 50.0238 399.43 45.0873 413.077C45.4165 398.533 48.1136 386.971 52.2916 377.537C57.3441 366.129 64.6009 357.746 72.6202 350.932C79.5625 345.034 87.0389 340.338 94.1885 335.847C95.3268 335.132 96.4568 334.422 97.5751 333.714C105.23 328.863 112.38 324.041 117.514 318.017L150.482 337.481C147.67 344.913 146.886 353.513 146.324 362.562C146.241 363.905 146.162 365.258 146.083 366.621C145.596 375.03 145.086 383.813 143.277 392.709C141.182 403.01 137.351 413.4 129.814 423.329C123.585 431.535 114.785 439.478 102.242 446.799C111.837 435.846 119.891 421.596 118.987 405.706L118.681 400.329L116.164 405.09C115.714 405.941 115.235 406.964 114.682 408.146C112.485 412.841 109.107 420.062 101.631 429.103C92.5343 440.104 77.3632 453.772 50.9881 468.355Z" stroke="#FFD60C" stroke-width="3" shape-rendering="crispEdges"/>
</g>
<g filter="url(#filter2_d_118_13)">
<path d="M103.549 241.622L103.547 241.632C99.5483 259.247 97.0859 275.524 95.3332 290.347L32.394 336.808L44.669 282.035C51.1671 253.039 67.7539 227.428 91.8271 209.942C96.9291 206.32 101.998 202.607 107.056 198.902L107.06 198.899C110.821 196.145 114.576 193.394 118.341 190.683C113.018 205.675 107.967 222.748 103.549 241.622Z" stroke="#FFD60C" stroke-width="3" shape-rendering="crispEdges"/>
</g>
<g filter="url(#filter3_d_118_13)">
<path d="M217.092 311.252L217.085 311.259C204.152 323.87 191.559 334.472 179.835 343.71L173.093 421.649L213.388 382.57C234.719 361.883 247.894 334.361 250.229 304.699C250.653 298.456 251.171 292.195 251.688 285.947L251.689 285.941C252.073 281.295 252.457 276.657 252.802 272.029C242.799 284.4 230.879 297.625 217.092 311.252Z" stroke="#FFD60C" stroke-width="3" shape-rendering="crispEdges"/>
</g>
<defs>
<filter id="filter0_d_118_13" x="64.1074" y="16.0957" width="265.865" height="374.696" filterUnits="userSpaceOnUse" color-interpolation-filters="sRGB">
<feFlood flood-opacity="0" result="BackgroundImageFix"/>
<feColorMatrix in="SourceAlpha" type="matrix" values="0 0 0 0 0 0 0 0 0 0 0 0 0 0 0 0 0 0 127 0" result="hardAlpha"/>
<feOffset dy="10"/>
<feGaussianBlur stdDeviation="15"/>
<feComposite in2="hardAlpha" operator="out"/>
<feColorMatrix type="matrix" values="0 0 0 0 1 0 0 0 0 0.839216 0 0 0 0 0.0470588 0 0 0 1 0"/>
<feBlend mode="normal" in2="BackgroundImageFix" result="effect1_dropShadow_118_13"/>
<feBlend mode="normal" in="SourceGraphic" in2="effect1_dropShadow_118_13" result="shape"/>
</filter>
<filter id="filter1_d_118_13" x="13.5527" y="296.074" width="168.797" height="214.808" filterUnits="userSpaceOnUse" color-interpolation-filters="sRGB">
<feFlood flood-opacity="0" result="BackgroundImageFix"/>
<feColorMatrix in="SourceAlpha" type="matrix" values="0 0 0 0 0 0 0 0 0 0 0 0 0 0 0 0 0 0 127 0" result="hardAlpha"/>
<feOffset dy="10"/>
<feGaussianBlur stdDeviation="15"/>
<feComposite in2="hardAlpha" operator="out"/>
<feColorMatrix type="matrix" values="0 0 0 0 1 0 0 0 0 0.839216 0 0 0 0 0.0470588 0 0 0 1 0"/>
<feBlend mode="normal" in2="BackgroundImageFix" result="effect1_dropShadow_118_13"/>
<feBlend mode="normal" in="SourceGraphic" in2="effect1_dropShadow_118_13" result="shape"/>
</filter>
<filter id="filter2_d_118_13" x="0.0507812" y="166.655" width="151.344" height="213.747" filterUnits="userSpaceOnUse" color-interpolation-filters="sRGB">
<feFlood flood-opacity="0" result="BackgroundImageFix"/>
<feColorMatrix in="SourceAlpha" type="matrix" values="0 0 0 0 0 0 0 0 0 0 0 0 0 0 0 0 0 0 127 0" result="hardAlpha"/>
<feOffset dy="10"/>
<feGaussianBlur stdDeviation="15"/>
<feComposite in2="hardAlpha" operator="out"/>
<feColorMatrix type="matrix" values="0 0 0 0 1 0 0 0 0 0.839216 0 0 0 0 0.0470588 0 0 0 1 0"/>
<feBlend mode="normal" in2="BackgroundImageFix" result="effect1_dropShadow_118_13"/>
<feBlend mode="normal" in="SourceGraphic" in2="effect1_dropShadow_118_13" result="shape"/>
</filter>
<filter id="filter3_d_118_13" x="141.252" y="247.321" width="143.391" height="218.203" filterUnits="userSpaceOnUse" color-interpolation-filters="sRGB">
<feFlood flood-opacity="0" result="BackgroundImageFix"/>
<feColorMatrix in="SourceAlpha" type="matrix" values="0 0 0 0 0 0 0 0 0 0 0 0 0 0 0 0 0 0 127 0" result="hardAlpha"/>
<feOffset dy="10"/>
<feGaussianBlur stdDeviation="15"/>
<feComposite in2="hardAlpha" operator="out"/>
<feColorMatrix type="matrix" values="0 0 0 0 1 0 0 0 0 0.839216 0 0 0 0 0.0470588 0 0 0 1 0"/>
<feBlend mode="normal" in2="BackgroundImageFix" result="effect1_dropShadow_118_13"/>
<feBlend mode="normal" in="SourceGraphic" in2="effect1_dropShadow_118_13" result="shape"/>
</filter>
</defs>
</svg>
