<svg width="508" height="386" viewBox="0 0 508 386" fill="none" xmlns="http://www.w3.org/2000/svg">
<g filter="url(#filter0_d_137_23)">
<path fill-rule="evenodd" clip-rule="evenodd" d="M265.406 283.306L265.335 283.999H260.915C249.342 283.999 239.92 293.422 239.92 304.991V324.307C239.92 335.879 249.342 345.302 260.915 345.302H456.728C468.309 345.302 477.734 335.886 477.734 324.307V304.991C477.734 293.422 468.312 283.999 456.728 283.999H452.748L452.673 283.312C452.076 277.9 449.504 273.491 445.361 270.421C441.206 267.343 435.426 265.58 428.385 265.58H289.256C282.226 265.58 276.543 267.308 272.49 270.362C268.45 273.407 265.973 277.813 265.406 283.306ZM289.258 268.969H428.387C430.676 268.969 435.437 269.227 439.861 271.1C444.317 272.987 448.491 276.548 449.357 283.127L449.472 283.999L268.616 284.003L268.723 283.136C269.516 276.759 273.267 273.186 277.506 271.241C281.705 269.315 286.401 268.969 289.258 268.969ZM260.918 341.92C251.207 341.92 243.308 334.021 243.308 324.31V304.994C243.308 295.283 251.207 287.388 260.918 287.388H456.731C466.445 287.388 474.352 295.282 474.352 304.994V324.31C474.352 334.022 466.452 341.92 456.731 341.92H260.918Z" fill="#FFD60C"/>
<path d="M273.737 107.15C273.734 107.151 273.731 107.153 273.728 107.156C273.731 107.154 273.733 107.152 273.735 107.151C273.736 107.151 273.736 107.15 273.737 107.15Z" fill="#FFD60C"/>
<path fill-rule="evenodd" clip-rule="evenodd" d="M306.006 228.968C305.999 228.954 305.993 228.942 305.987 228.93C301.919 220.275 303.822 210.347 309.98 203.731L310.339 203.346L296.525 174.487L64.2016 290.466C61.4167 291.855 58.5482 292.543 55.6965 292.543C51.8912 292.543 48.0781 291.324 44.4907 288.875C35.6534 282.839 29.9205 270.675 30.8926 260.023L30.8914 260.022C31.5811 252.475 35.5998 246.75 42.2117 243.818L279.338 138.572L264.971 108.552L264.462 108.574C264.316 108.58 264.21 108.588 264.118 108.595C263.999 108.604 263.902 108.611 263.769 108.611C255.227 108.611 247.017 103.775 243.134 95.5496C240.553 90.0705 240.27 83.9042 242.332 78.1652C244.011 73.487 247.131 69.6489 251.187 66.9658L251.527 66.7407L251.533 66.3326C251.623 59.7844 255.36 53.8574 261.306 51.058L323.83 21.5953C329.704 18.8192 336.749 19.7391 341.82 23.7878L342.138 24.0414L342.526 23.9231C347.183 22.5057 352.136 22.5414 356.8 24.2203C362.542 26.2859 367.118 30.4338 369.696 35.9161C372.278 41.3952 372.561 47.5615 370.499 53.3006C369.289 56.6716 367.272 59.5831 364.748 61.9992L364.344 62.3858L409.362 156.462L409.896 156.414C413.17 156.121 416.477 156.469 419.657 157.609C425.396 159.675 429.975 163.823 432.549 169.294L432.55 169.295C435.138 174.773 435.421 180.943 433.359 186.689C431.68 191.364 428.56 195.206 424.504 197.889L424.165 198.113L424.158 198.52C424.051 205.002 420.28 211.023 414.398 213.789L351.865 243.259C349.412 244.415 346.446 245.521 343.355 245.521C340.415 245.521 337.317 244.525 334.39 241.483C334.387 241.478 334.383 241.471 334.377 241.461L334.357 241.424C334.349 241.409 334.339 241.391 334.328 241.371C334.307 241.332 334.276 241.28 334.237 241.224L333.912 240.76L333.373 240.93C331.176 241.621 328.915 241.989 326.649 241.989C324.049 241.989 321.429 241.533 318.898 240.624C313.236 238.592 308.707 234.525 306.113 229.158L306.099 229.129L306.083 229.101C306.061 229.065 306.044 229.035 306.029 229.01C306.021 228.994 306.013 228.981 306.006 228.968ZM325.27 24.6562L262.741 54.1149C258.926 55.9098 256.238 59.3184 255.273 63.2864L254.892 64.8553L338.555 25.434L337.082 24.7336C333.411 22.9881 329.039 22.877 325.27 24.6562ZM366.638 37.355L366.661 37.4056L366.662 37.4072C371.174 47.0657 367.016 58.5994 357.369 63.1392L271.956 103.388C262.313 107.924 250.755 103.76 246.194 94.1097L246.194 94.1086C241.643 84.4431 245.798 72.8767 255.459 68.329L340.85 28.0941L340.851 28.0936C343.456 26.8709 346.248 26.2511 349.059 26.2511C351.279 26.2511 353.509 26.6351 355.661 27.409C360.545 29.1632 364.447 32.6977 366.638 37.355ZM361.758 64.8178L405.743 156.764L312.753 200.587L298.737 171.293V171.286L268.765 108.641L273.374 106.469C273.402 106.454 273.43 106.441 273.457 106.431L361.758 64.8178ZM412.957 210.737L350.115 240.352L350.112 240.351C347.601 241.502 345.434 242.129 343.483 242.154C341.42 242.181 339.651 241.534 338.025 240.237L337.056 239.463L420.804 199.996L420.413 201.572C419.435 205.522 416.736 208.959 412.957 210.737ZM309.075 227.519L308.897 227.195L308.894 227.163C304.596 217.564 308.771 206.213 318.33 201.713L403.711 161.478L403.712 161.477C406.316 160.255 409.101 159.635 411.913 159.635C414.133 159.635 416.363 160.019 418.515 160.793C423.398 162.55 427.3 166.084 429.491 170.741C431.692 175.406 431.934 180.662 430.176 185.546C428.425 190.43 424.887 194.332 420.227 196.526L334.85 236.761C330.181 238.963 324.925 239.2 320.042 237.446C315.166 235.691 311.269 232.165 309.075 227.519ZM62.6866 287.452C56.5809 290.49 51.2705 288.987 47.6234 286.865L47.6245 286.936L46.3933 286.094C38.6057 280.771 33.4028 269.735 34.2623 260.353C34.6589 255.983 36.5983 250.025 43.5821 246.928L280.801 141.639L295.068 171.448L62.6866 287.452Z" fill="#FFD60C"/>
<path fill-rule="evenodd" clip-rule="evenodd" d="M30.1152 260.048C30.118 260.016 30.1209 259.984 30.1238 259.952L30.1233 259.958M30.1152 260.048L30.1233 259.958Z" fill="#FFD60C"/>
</g>
<defs>
<filter id="filter0_d_137_23" x="0.115234" y="0" width="507.619" height="385.302" filterUnits="userSpaceOnUse" color-interpolation-filters="sRGB">
<feFlood flood-opacity="0" result="BackgroundImageFix"/>
<feColorMatrix in="SourceAlpha" type="matrix" values="0 0 0 0 0 0 0 0 0 0 0 0 0 0 0 0 0 0 127 0" result="hardAlpha"/>
<feOffset dy="10"/>
<feGaussianBlur stdDeviation="15"/>
<feComposite in2="hardAlpha" operator="out"/>
<feColorMatrix type="matrix" values="0 0 0 0 1 0 0 0 0 0.839216 0 0 0 0 0.0470588 0 0 0 1 0"/>
<feBlend mode="normal" in2="BackgroundImageFix" result="effect1_dropShadow_137_23"/>
<feBlend mode="normal" in="SourceGraphic" in2="effect1_dropShadow_137_23" result="shape"/>
</filter>
</defs>
</svg>
