<svg width="292" height="486" viewBox="0 0 292 486" fill="none" xmlns="http://www.w3.org/2000/svg">
<g filter="url(#filter0_d_130_25)">
<path d="M107.773 157.38V154.195C107.786 152.758 108.353 151.383 109.358 150.355C110.913 148.81 113.245 148.351 115.272 149.193C117.3 150.034 118.625 152.011 118.628 154.206L118.628 157.38C118.628 160.375 116.198 162.806 113.199 162.806C110.204 162.806 107.773 160.376 107.773 157.38Z" fill="#FFD60C"/>
<path d="M174.227 157.38V154.204C174.227 151.219 176.651 148.795 179.636 148.795C182.624 148.795 185.045 151.218 185.045 154.204V157.38C185.045 160.366 182.624 162.79 179.636 162.79C176.651 162.79 174.227 160.366 174.227 157.38Z" fill="#FFD60C"/>
<path fill-rule="evenodd" clip-rule="evenodd" d="M161.916 139.694C161.765 138.756 162.306 137.844 163.195 137.52C173.708 135.065 184.471 133.849 195.265 133.89C198.986 134.325 202.539 135.676 205.605 137.824C206.414 138.507 206.546 139.708 205.897 140.55C205.234 141.403 204.013 141.57 203.147 140.928L203.112 140.902L203.075 140.878C200.553 139.211 197.676 138.159 194.675 137.807L194.573 137.795L194.471 137.796C184.436 137.887 174.435 139.034 164.638 141.22L164.552 141.24L164.469 141.268C164.289 141.329 164.087 141.362 163.871 141.362C162.899 141.362 162.069 140.654 161.916 139.694Z" fill="#FFD60C"/>
<path fill-rule="evenodd" clip-rule="evenodd" d="M129.865 142.989L129.868 142.989L129.882 142.989C129.876 142.989 129.871 142.989 129.865 142.989ZM129.882 142.995L129.885 142.995C129.893 142.995 129.902 142.995 129.91 142.995C129.9 142.995 129.891 142.995 129.882 142.995ZM90.5482 140.953C89.6773 141.589 88.4571 141.412 87.8009 140.551C87.1574 139.703 87.3014 138.5 88.1197 137.827C91.1821 135.694 94.7211 134.347 98.4267 133.902C109.235 133.849 120.012 135.066 130.537 137.523C131.432 137.845 131.975 138.756 131.827 139.698C131.673 140.659 130.848 141.364 129.883 141.368L129.882 141.361C129.667 141.361 129.463 141.329 129.275 141.266L129.197 141.241L129.118 141.223C119.304 139.037 109.289 137.887 99.2332 137.802L99.1288 137.801L99.0251 137.814C96.0155 138.176 93.1328 139.237 90.6087 140.911L90.578 140.931L90.5482 140.953Z" fill="#FFD60C"/>
<path fill-rule="evenodd" clip-rule="evenodd" d="M257.544 330.211L257.302 329.887C245.457 314.011 230.612 300.615 213.609 290.462C204.536 285.103 195.034 280.507 185.204 276.719L185.144 276.696L185.086 276.668C182.768 275.556 180.579 274.192 178.56 272.605L178.512 272.567L178.467 272.525C175.891 270.165 173.802 267.322 172.32 264.16L172.317 264.153C171.657 262.728 171.086 261.261 170.617 259.757L170.227 258.511L171.36 257.861C177.851 254.133 183.555 249.174 188.148 243.263L188.211 243.181L188.285 243.108C190.341 241.061 192.638 239.277 195.124 237.786L195.129 237.783C196.825 236.651 198.345 235.637 199.551 234.658C213.391 223.15 216.583 207.849 217.249 193.398L217.327 191.697L219.023 191.852C219.288 191.876 219.503 191.901 219.692 191.923L219.695 191.923C220.024 191.961 220.273 191.99 220.562 191.99C230.055 191.99 237.944 183.728 241.686 174.07V174.036L241.816 173.731C244.371 167.719 244.41 160.935 241.926 154.892C240.246 151.376 237.423 148.536 233.915 146.839L232.912 146.354L233.001 145.243C235.024 120.119 233.839 97.2912 229.808 78.392C225.771 59.4659 218.911 44.6215 209.703 35.3005L209.615 35.2113C207.038 32.7057 203.844 30.9282 200.355 30.0569C196.819 29.1742 193.111 29.2605 189.621 30.3016L189.613 30.304L187.616 30.8764L187.176 31.0056C186.179 31.2988 185.15 31.4391 184.119 31.4325C180.51 31.4445 177.118 29.7012 175.025 26.7567L175.02 26.7494C172.653 23.3797 169.011 21.1239 164.938 20.5106L164.937 20.5104C160.872 19.8948 156.73 20.9704 153.476 23.4858L152.705 24.1012C149.432 26.8649 144.676 26.9807 141.275 24.3717L140.065 23.4747L140.052 23.4644C137.433 21.4377 134.213 20.3432 130.9 20.3548L130.894 20.3549C125.995 20.3519 121.398 22.7302 118.573 26.7332L118.565 26.7441C115.8 30.5932 110.916 32.2955 106.359 31.0003L106.024 30.9053V30.9369L103.933 30.3149C100.444 29.277 96.7428 29.1934 93.2119 30.0728C89.6866 30.9549 86.4592 32.7659 83.8724 35.3176C74.6982 44.6113 67.8528 59.4003 63.8061 78.2526C59.764 97.0831 58.5454 119.826 60.5077 144.861L60.5991 146.026L59.5239 146.485C55.6653 148.131 52.5384 151.122 50.7255 154.904C48.2385 160.946 48.2772 167.737 50.8354 173.751L50.8484 173.782L50.8601 173.812C54.5612 183.599 62.5045 192.014 72.0662 192.014C72.3776 192.014 72.6576 191.983 73.0229 191.942L73.0244 191.942C73.2061 191.921 73.4088 191.899 73.6471 191.876L75.3516 191.716L75.4251 193.427C76.0457 207.862 79.229 223.145 93.1216 234.667L93.1311 234.674C94.3171 235.673 95.8537 236.699 97.5651 237.84C100.026 239.336 102.345 241.143 104.397 243.159L104.466 243.227L104.527 243.302C109.186 249.116 114.852 254.051 121.256 257.868L122.354 258.523L121.978 259.745C121.511 261.261 120.94 262.738 120.271 264.17C118.767 267.418 116.61 270.326 113.939 272.708C112.032 274.414 109.843 275.767 107.467 276.713L107.458 276.717L107.448 276.721C97.6533 280.486 88.1871 285.05 79.143 290.369C79.099 290.409 79.046 290.452 78.9843 290.496L78.9348 290.532L78.8828 290.563L78.8107 290.607L78.7926 290.618L78.7592 290.639L78.7465 290.647L78.7336 290.655C61.8497 300.779 47.1032 314.104 35.3215 329.879L35.2776 329.938L35.2286 329.993C31.9188 333.68 30.4246 338.647 31.1539 343.544C31.8572 346.678 33.8122 349.337 36.3416 351.602C38.8799 353.876 41.896 355.664 44.5276 357.067C51.1718 360.429 58.1113 363.166 65.2603 365.246L65.2684 365.248C82.99 370.504 101.183 374.027 119.587 375.773L119.713 375.785L119.835 375.816C119.921 375.838 120.011 375.853 120.114 375.862L120.116 375.863L120.484 375.895C123.096 376.14 125.693 376.377 128.262 376.549L128.271 376.55C134.266 376.985 140.334 377.206 146.308 377.206C152.283 377.206 158.354 376.985 164.323 376.553L164.332 376.552C167.076 376.369 169.784 376.153 172.48 375.863C191.058 374.105 209.423 370.549 227.313 365.248L227.326 365.244C234.488 363.19 241.441 360.457 248.087 357.09C250.721 355.686 253.741 353.893 256.281 351.616C258.812 349.348 260.766 346.689 261.466 343.563C262.186 338.768 260.773 333.902 257.608 330.241L257.544 330.211ZM250.199 327.27C241.625 316.792 231.646 307.533 220.538 299.757L216.564 296.976L218.056 301.591C219.601 306.369 220.982 311.194 222.199 316.058C225.678 329.968 227.808 344.193 228.554 358.538L228.664 360.643L230.673 360.004C235.88 358.348 240.944 356.277 245.819 353.805H245.838L246.197 353.614C249.474 351.868 252.076 350.129 253.972 348.361C255.866 346.595 257.787 343.291 258.245 341.251C257.967 338.353 256.119 334.394 254.096 332.245C252.832 330.558 251.532 328.899 250.199 327.27ZM217.587 314.211C215.781 307.408 213.645 299.85 211.183 293.236C202.615 288.263 192.968 283.976 183.724 280.412C183.649 280.381 183.561 280.34 183.436 280.279L183.367 280.245L183.366 280.245L183.364 280.243C183.256 280.191 183.12 280.123 182.987 280.063L180.308 278.851L180.704 281.765C181.443 287.212 181.861 293.4 182.011 299.966C182.562 324.023 179.524 353.14 175.587 369.339L175.038 371.601L177.351 371.34C192.957 369.581 208.388 366.533 223.488 362.227L224.723 361.875L224.667 360.591C223.982 344.899 221.604 329.351 217.587 314.211ZM78.878 176.67L78.6359 174.071L78.5377 173.023C78.4054 171.613 78.2616 170.081 78.1199 168.495L78.1136 168.423C78.1009 168.362 78.0848 168.271 78.0764 168.162L78.0716 168.1V168.03C77.6024 162.061 77.0698 155.027 76.633 148.876L76.6326 148.871L76.456 146.595C76.2748 144.21 76.5216 139.781 77.1752 134.36C77.8335 128.9 78.9182 122.323 80.4572 115.595C81.9952 108.872 83.9944 101.964 86.4904 95.858C88.9531 89.8331 91.9506 84.459 95.567 80.8348L95.6036 80.7946C97.927 78.2434 101.162 76.7061 104.612 76.5222L104.992 76.502L105.342 76.6523C118.273 82.2127 132.221 85.0088 146.296 84.8594L146.313 84.8592L146.33 84.8594C160.413 85.0053 174.374 82.2091 187.314 76.6488L187.651 76.5041L188.017 76.5177C191.47 76.6464 194.72 78.1792 197.016 80.7557C200.654 84.379 203.668 89.7786 206.143 95.8385C208.637 101.946 210.635 108.858 212.172 115.589C215.228 128.967 216.523 141.912 216.169 146.662C216.137 147.297 216.077 147.955 215.992 148.859C215.562 154.972 215.027 162.029 214.555 167.995V168.076C214.555 168.228 214.536 168.352 214.52 168.434L214.515 168.46L213.758 176.646C212.086 184.441 207.648 191.503 201.305 196.332L201.279 196.352L201.251 196.371C198.88 198.028 196.048 198.903 193.152 198.874C190.266 198.848 187.461 197.922 185.124 196.231C174.676 189.056 162.208 185.404 149.538 185.808L149.512 185.809H143.133L143.106 185.808C130.436 185.388 117.967 189.04 107.527 196.229C105.183 197.916 102.375 198.838 99.4902 198.867C96.5955 198.897 93.7636 198.025 91.3874 196.382L91.3566 196.36L91.3268 196.338C84.9815 191.503 80.5476 184.469 78.878 176.67ZM107.564 240.792C112.434 246.985 118.548 252.093 125.516 255.782L125.541 255.795L125.567 255.808C132.028 258.941 139.138 260.498 146.319 260.352C153.473 260.421 160.551 258.863 167.013 255.79L167.029 255.783L167.045 255.775C174.1 252.226 180.25 247.115 185.025 240.828C187.313 238.392 189.93 236.29 192.803 234.582L192.836 234.562L192.869 234.54C194.396 233.529 195.923 232.503 197.003 231.615L197.008 231.61C209.588 221.17 212.592 207.363 213.261 193.911L213.523 188.652L210.34 192.846C208.407 195.392 206.132 197.654 203.575 199.57C200.525 201.708 196.882 202.843 193.153 202.819C189.417 202.796 185.782 201.606 182.754 199.417L182.736 199.404L182.716 199.39C172.929 192.733 161.273 189.366 149.442 189.774H143.186C131.353 189.356 119.697 192.727 109.918 199.402L109.898 199.416L109.878 199.43C106.809 201.663 103.11 202.868 99.315 202.871C95.6365 202.871 92.0538 201.721 89.0678 199.578C86.5135 197.67 84.2389 195.419 82.308 192.883L81.1796 191.401L79.3499 193.231L79.3845 193.95C80.0305 207.389 83.0158 221.168 95.6225 231.624L95.6239 231.625C96.6851 232.503 98.1832 233.508 99.6765 234.51L99.8143 234.602L99.8484 234.623C102.682 236.329 105.276 238.404 107.564 240.792ZM74.712 174.472L74.7121 174.474L74.95 176.962L74.9502 176.964C75.1675 179.212 75.1993 181.933 75.2345 184.979L75.2346 184.988V184.998C75.2346 185.42 75.2349 185.827 75.2522 186.209L75.3208 187.717L73.8229 187.899C69.2622 188.453 65.1794 186.581 61.9203 183.637C58.67 180.702 56.1313 176.616 54.5456 172.421L54.5484 172.419C52.3833 167.435 52.2719 161.794 54.2453 156.724L54.2669 156.669L54.2925 156.615C55.9225 153.191 58.9018 150.603 62.5161 149.467C62.7052 149.401 62.9208 149.346 63.1269 149.293L63.1302 149.293L63.2226 149.269L63.2899 149.251C65.8636 148.512 68.5401 148.213 71.2128 148.365L72.6418 148.446L72.7438 149.874C72.9497 152.757 73.175 155.809 73.4069 158.887L73.6577 162.218L70.8801 160.363C69.48 159.427 67.9456 158.714 66.3315 158.252C65.278 158.026 64.2318 158.687 63.9861 159.744C63.7412 160.808 64.4045 161.873 65.4714 162.121L65.5706 162.144L65.6663 162.179C69.0542 163.428 71.9649 165.716 73.9791 168.716L74.2118 169.063L74.2489 169.478C74.369 170.824 74.489 172.099 74.6013 173.293L74.602 173.301L74.712 174.472ZM219.607 167.332C219.164 167.77 218.701 168.229 218.381 168.705L217.685 176.947L217.685 176.95C217.456 179.337 217.433 182.267 217.408 185.544L217.407 185.593V187.694L218.83 187.874C223.377 188.45 227.429 186.654 230.681 183.728C233.902 180.83 236.423 176.759 238.055 172.47C240.241 167.47 240.358 161.811 238.381 156.727L238.359 156.673L238.334 156.62C236.714 153.204 233.746 150.618 230.145 149.48C227.331 148.565 224.371 148.186 221.419 148.355L219.991 148.437L219.888 149.863C219.679 152.774 219.457 155.826 219.225 158.876L218.972 162.216L220.683 161.069L221.754 160.351C223.153 159.414 224.687 158.701 226.301 158.238C227.356 158.012 228.401 158.673 228.646 159.728C228.893 160.793 228.23 161.859 227.161 162.107L227.061 162.13L226.964 162.166C224.383 163.12 222.079 164.676 220.236 166.69C220.045 166.899 219.828 167.113 219.607 167.332ZM35.0063 342.664C35.4556 344.704 36.7427 346.585 38.6319 348.348C40.5256 350.115 43.1222 351.855 46.3849 353.607L46.4007 353.616L46.4168 353.624C51.3927 356.156 56.5623 358.29 61.8788 360.004L63.8931 360.654L64.0034 358.54C65.0136 339.191 68.5443 320.055 74.505 301.619L75.9995 296.996L72.0221 299.786C59.2121 308.77 47.9051 319.723 38.5196 332.244C35.9394 334.985 34.6468 338.702 34.9745 342.456L35.0063 342.664ZM108.937 280.393L109.063 280.345L109.097 280.326L109.124 280.312C109.228 280.255 109.399 280.162 109.585 280.081L112.342 279.094L111.848 281.791C108.474 306.677 111.134 350.503 116 371.5C100.39 369.767 84.1906 366.553 69.0863 362.251L67.8505 361.898L67.9063 360.615C68.8962 337.87 73.4529 315.424 81.4109 294.095L81.6145 293.55L82.1183 293.257C90.7057 288.27 99.6734 283.968 108.937 280.393ZM142.688 280.692L146.134 281.121L149.932 280.656C157.325 279.752 164.123 276.142 169.016 270.525L170.374 268.966L171.57 270.652C172.63 272.145 173.823 273.533 175.141 274.802L175.492 275.141L175.599 275.616C177.021 281.918 177.776 289.801 178.03 298.372C178.286 307.01 178.034 316.345 177.445 325.46C176.269 343.638 173.734 361.185 171.082 370.921L170.781 372.027L169.637 372.116C169.055 372.16 168.462 372.208 167.877 372.257L167.863 372.258L167.108 372.307L166.587 371.786L166.583 371.783L166.138 371.337L166.109 370.708C165.09 349.001 161.602 327.477 155.705 306.56L155.436 305.604L156.162 304.927C157.795 303.407 159.24 301.689 160.46 299.818L161.256 298.597L162.557 299.254C165.075 300.526 167.853 301.188 170.673 301.192C171.402 301.189 172.128 301.15 172.845 301.073L172.873 301.07L172.902 301.068C173.439 301.029 173.933 300.776 174.278 300.364L174.28 300.362C174.622 299.954 174.785 299.422 174.729 298.887C174.672 298.353 174.402 297.866 173.982 297.537C173.556 297.203 173.019 297.059 172.491 297.132L172.474 297.135L172.458 297.136C168.599 297.596 164.71 296.514 161.645 294.12C160.01 292.842 158.467 291.453 157.027 289.962C156.801 289.727 156.577 289.491 156.356 289.252L156.335 289.229L156.315 289.205C154.38 286.943 152.028 285.081 149.384 283.718L146.344 282.152L143.231 283.754C142.986 283.88 142.743 284.011 142.503 284.146C140.151 285.466 138.047 287.191 136.293 289.246L136.272 289.27L136.249 289.295C134.7 290.967 133.025 292.522 131.239 293.945C128.134 296.46 124.15 297.617 120.183 297.156C119.094 297.073 118.131 297.857 117.992 298.94C117.942 299.462 118.097 299.98 118.427 300.389C118.761 300.798 119.241 301.056 119.758 301.106L119.769 301.107L119.779 301.109C123.437 301.514 127.129 300.827 130.397 299.138L131.698 298.466L132.504 299.689C133.693 301.496 135.073 303.173 136.615 304.691L137.302 305.367L137.039 306.294C131.088 327.299 127.556 350.451 126.511 372.257C126.436 372.25 125.918 372.244 125.397 372.237H125.396C124.874 372.231 124.35 372.224 124.267 372.217L124.005 372.197C123.647 372.168 123.276 372.139 122.931 372.108L121.805 372.005L121.508 370.914C118.863 361.177 116.32 343.62 115.134 325.442C114.009 308.213 113.442 288.804 115.887 276.234C115.951 276.173 116.207 275.936 116.518 275.646C117.083 275.12 117.83 274.425 117.943 274.312C119.067 273.183 120.095 271.961 121.015 270.658L122.21 268.966L123.571 270.527C128.474 276.152 135.279 279.769 142.688 280.692ZM146.307 264.305C139.907 264.377 133.537 263.235 127.56 260.941L127.279 260.833H125.817L125.437 261.926C125.244 262.481 125.019 263.011 124.772 263.595L124.671 263.833L124.591 264.024L124.249 264.838L124.745 265.568C129.589 272.705 137.654 276.979 146.281 276.979C154.905 276.979 162.973 272.704 167.815 265.567L168.308 264.841L167.971 264.03C167.928 263.925 167.885 263.823 167.843 263.723C167.827 263.685 167.811 263.648 167.795 263.61L167.73 263.456L167.719 263.43L167.717 263.425C167.489 262.886 167.282 262.399 167.103 261.884L166.553 260.3L164.986 260.898C159.027 263.171 152.688 264.327 146.307 264.305ZM130.451 372.775V369.423L130.541 369.428C131.652 349.359 134.841 329.455 140.051 310.042L140.551 308.179L142.303 308.985C143.616 309.589 145.044 309.906 146.493 309.919C147.85 309.912 149.189 309.636 150.428 309.104L152.157 308.361L152.643 310.178C157.972 330.1 161.162 350.534 162.16 371.13L162.239 372.743L160.626 372.834C151.083 373.369 139.991 373.349 130.451 372.775ZM139.014 301.622L139.129 301.565C137.835 300.211 136.688 298.723 135.705 297.126L135.003 295.985L135.987 295.077C137.078 294.071 138.099 293.054 139.061 292.085L139.065 292.081C140.178 290.937 141.346 289.735 142.459 288.826C143.502 287.975 144.852 287.07 146.313 287.07C147.774 287.07 149.122 287.974 150.163 288.825C151.258 289.719 152.408 290.899 153.507 292.026L153.562 292.083C154.596 293.141 155.763 294.27 157.005 295.39L157.543 295.874V297.076L157.288 297.476C155.819 299.78 153.966 301.813 151.812 303.49C151.198 304.022 150.537 304.506 149.832 304.93C147.706 306.287 144.967 306.224 142.905 304.765C142.191 304.296 141.505 303.778 140.857 303.218L140.852 303.213L139.014 301.622ZM86.692 38.0977C88.7881 36.0517 91.3959 34.6062 94.2408 33.9155C97.0836 33.2229 100.058 33.3074 102.854 34.1544L105.241 34.8338C108.259 35.6951 111.468 35.6019 114.43 34.5661C117.391 33.5307 119.957 31.602 121.779 29.0469L121.785 29.039L121.79 29.0312C123.57 26.5965 126.25 24.9738 129.236 24.5295C132.216 24.0824 135.251 24.8494 137.663 26.6569L137.668 26.6606L138.894 27.567L138.904 27.5752C141.259 29.378 144.163 30.3209 147.134 30.2523C150.102 30.1806 152.958 29.1006 155.229 27.1904L155.242 27.1788L156.344 26.293H156.391C158.715 24.6901 161.568 24.0285 164.375 24.4562L164.377 24.4565C167.368 24.9166 170.042 26.5755 171.782 29.0529C174.614 33.0522 179.212 35.4241 184.114 35.4154L184.123 35.4154C185.538 35.4212 186.943 35.2212 188.291 34.8172L188.299 34.8147L190.666 34.1327L190.677 34.1293C193.477 33.2816 196.455 33.1967 199.301 33.8893C202.15 34.5798 204.761 36.0251 206.86 38.0709L206.871 38.0819L206.882 38.0931C215.745 47.0693 222.17 61.642 225.958 79.7178C229.753 97.8312 230.937 119.634 229.174 143.26L229.042 145.029L227.291 144.745C225.468 144.45 223.623 144.331 221.775 144.389L220.17 144.439L220.098 142.835C219.783 135.752 218.196 122.93 214.9 110.119C211.583 97.2309 206.622 84.7083 199.754 77.9029L199.719 77.8689L199.687 77.833C196.439 74.2086 191.708 72.2782 186.853 72.5972C186.61 72.6192 186.37 72.6883 186.145 72.8024L186.103 72.8238L186.059 72.8427C173.53 78.3152 159.982 81.0609 146.309 80.8998C132.654 81.051 119.116 78.3155 106.596 72.8628L106.562 72.8476L106.528 72.8309C106.303 72.7205 106.059 72.6533 105.81 72.6331C100.943 72.309 96.1999 74.24 92.9441 77.8691L92.9121 77.9048L92.8781 77.9385C86.0114 84.7407 81.0501 97.2544 77.7325 110.14C74.4348 122.947 72.8456 135.772 72.5269 142.876L72.4548 144.483L70.8474 144.43C69.2802 144.378 67.7125 144.454 66.1595 144.656L64.4546 144.877L64.3273 143.162C62.5504 119.237 63.6854 97.5169 67.4681 79.5334C71.2363 61.6187 77.665 47.2581 86.6137 38.1768L86.6236 38.1645L86.692 38.0977Z" fill="#FFD60C"/>
<path d="M146.422 205.789H146.483C149.008 205.787 151.883 205.653 154.479 205.223C157.158 204.779 159.279 204.059 160.485 203.065L160.547 203.014C161.292 202.34 161.386 201.192 160.747 200.407C160.051 199.55 158.809 199.393 157.925 200.045L157.744 200.179L157.533 200.258C153.989 201.594 150.199 202.13 146.427 201.834C142.649 202.126 138.849 201.594 135.296 200.266L135.07 200.182L134.878 200.035C134.033 199.389 132.826 199.53 132.151 200.353L132.15 200.355C131.478 201.172 131.568 202.37 132.35 203.078C133.561 204.064 135.676 204.78 138.344 205.222C140.966 205.656 143.873 205.789 146.422 205.789Z" fill="#FFD60C"/>
<path fill-rule="evenodd" clip-rule="evenodd" d="M158.386 408.278L157.968 407.432L156.158 403.762C154.442 400.426 151.002 398.322 147.235 398.322C143.413 398.322 139.923 400.492 138.232 403.921L136.365 407.705L136.084 408.275L133.08 408.709L131.274 408.974C127.49 409.528 124.353 412.181 123.178 415.817C122.003 419.457 122.995 423.445 125.739 426.105L125.743 426.109L129.214 429.499L128.353 434.539C127.82 438.214 129.367 441.897 132.384 444.088C135.474 446.33 139.567 446.624 142.945 444.842L147.245 442.581L151.542 444.841L151.542 444.843C154.923 446.624 159.021 446.33 162.109 444.083L162.111 444.082C165.203 441.837 166.75 438.03 166.098 434.263L166.098 434.26L165.281 429.478L168.757 426.089C171.492 423.422 172.476 419.433 171.295 415.803C170.114 412.169 166.974 409.522 163.194 408.973L158.386 408.278ZM162.028 427.14L167.624 420.463C167.915 419.356 167.895 418.169 167.528 417.039C166.818 414.839 164.92 413.243 162.643 412.904L157.244 412.121C156.326 411.988 155.531 411.41 155.121 410.579L153.596 407.487L152.708 405.687L152.707 405.685C152.614 405.495 152.511 405.312 152.4 405.136C151.295 403.384 149.36 402.302 147.261 402.302C145.307 402.302 143.496 403.237 142.364 404.779H142.258L140.843 407.648L139.398 410.58C138.987 411.41 138.196 411.986 137.276 412.121L137.274 412.121L131.866 412.904L131.863 412.904C129.577 413.239 127.685 414.842 126.973 417.035C126.259 419.228 126.85 421.634 128.493 423.25L132.425 427.06L132.427 427.061C133.088 427.707 133.39 428.64 133.233 429.556L132.313 434.926L132.312 434.929C131.913 437.211 132.846 439.521 134.72 440.884C136.479 442.164 138.778 442.395 140.743 441.525H140.774L145.951 438.813L145.953 438.813C146.774 438.382 147.758 438.382 148.579 438.813L153.398 441.333L153.404 441.336C155.452 442.425 157.94 442.248 159.813 440.886C161.163 439.907 162.32 438.434 162.546 436.834L161.299 429.555C161.148 428.676 161.42 427.782 162.028 427.14Z" fill="#FFD60C"/>
<path d="M192.998 407.157C192.998 407.157 192.998 407.157 192.998 407.157Z" fill="#FFD60C"/>
<path fill-rule="evenodd" clip-rule="evenodd" d="M216.151 398.756L219.054 399.177C222.354 399.697 225.087 402.026 226.119 405.207L226.119 405.208C227.143 408.357 226.328 411.81 224.017 414.168L221.843 416.287L222.323 419.08C222.895 422.412 221.525 425.783 218.789 427.77C216.057 429.757 212.428 430.018 209.436 428.445L206.929 427.124L204.421 428.445L204.419 428.446C201.428 430.028 197.797 429.769 195.058 427.779C192.32 425.79 190.953 422.418 191.531 419.082L192.011 416.288L189.98 414.308C187.56 411.951 186.687 408.42 187.732 405.206C188.777 401.991 191.56 399.647 194.905 399.162L197.707 398.756L198.962 396.217C200.46 393.187 203.547 391.268 206.929 391.268C210.31 391.268 213.397 393.187 214.891 396.216L215.339 397.124H215.343L216.151 398.756ZM218.219 414.297L220.133 412.425L221.101 411.492C222.451 410.191 222.94 408.237 222.373 406.455C221.954 405.137 221.01 404.083 219.802 403.507V403.281L214.414 402.499L214.412 402.499C213.868 402.421 213.401 402.08 213.162 401.592L212.716 400.679H212.707L211.371 397.978C210.543 396.297 208.829 395.235 206.958 395.235C205.084 395.235 203.376 396.297 202.547 397.974L200.745 401.578L200.74 401.588C200.498 402.08 200.028 402.421 199.485 402.499L198.09 402.7V402.705L195.485 403.082C193.632 403.352 192.092 404.652 191.514 406.433C190.937 408.213 191.418 410.166 192.755 411.474L195.52 414.18V414.175L195.641 414.292C196.037 414.68 196.215 415.233 196.125 415.771L196.125 415.773L195.441 419.73L195.44 419.733C195.114 421.585 195.87 423.457 197.39 424.563L197.393 424.565C198.912 425.666 200.927 425.807 202.584 424.927L202.588 424.925L206.154 423.049L206.155 423.049C206.641 422.795 207.223 422.794 207.709 423.049L207.711 423.049L211.273 424.924L211.278 424.926C212.939 425.812 214.955 425.664 216.472 424.565L216.474 424.563C217.996 423.455 218.746 421.582 218.421 419.734L218.421 419.73L217.739 415.768C217.646 415.231 217.825 414.68 218.219 414.297Z" fill="#FFD60C"/>
<path fill-rule="evenodd" clip-rule="evenodd" d="M96.0149 398.756L98.9211 399.177C102.22 399.698 104.952 402.027 105.984 405.207L105.984 405.208C107.008 408.357 106.193 411.81 103.882 414.168L101.708 416.287L102.188 419.08C102.762 422.411 101.391 425.782 98.6568 427.77C95.9207 429.757 92.2916 430.018 89.3 428.445L86.7934 427.124L84.2859 428.445L84.2837 428.446C81.2923 430.028 77.6612 429.769 74.9228 427.779C72.1847 425.79 70.8183 422.418 71.3982 419.083L71.8787 416.288L69.8473 414.307C67.4254 411.951 66.554 408.421 67.5994 405.206C68.6354 402.019 71.3742 399.689 74.6786 399.176L77.5745 398.756L78.8297 396.218L78.8304 396.216C80.3248 393.187 83.4115 391.268 86.7931 391.268C90.1748 391.268 93.2616 393.187 94.7557 396.216L95.2034 397.124H95.2078L96.0149 398.756ZM98.0834 414.297L99.9977 412.425L100.966 411.492C102.315 410.191 102.804 408.237 102.237 406.455C101.818 405.137 100.874 404.083 99.6661 403.507V403.281L94.2782 402.499L94.2766 402.499C93.7356 402.421 93.2675 402.082 93.0245 401.588L91.22 397.979L91.2177 397.974C90.388 396.295 88.6754 395.235 86.8032 395.235C84.9319 395.235 83.2184 396.298 82.3897 397.979L80.6062 401.585L80.6045 401.588C80.3619 402.081 79.8943 402.421 79.3498 402.499L77.9539 402.7V402.705L75.3495 403.082C73.4962 403.352 71.956 404.652 71.3783 406.433C70.8009 408.213 71.2822 410.166 72.6192 411.474L75.3847 414.18V414.175L75.505 414.292C75.9013 414.68 76.0798 415.233 75.9895 415.771L75.9892 415.773L75.3051 419.73L75.3045 419.733C74.9787 421.585 75.7349 423.457 77.2545 424.563L77.2572 424.565C78.7768 425.666 80.7916 425.807 82.4483 424.927L82.4521 424.925L86.018 423.049L86.0194 423.049C86.5059 422.795 87.0873 422.795 87.5738 423.049L87.5752 423.049L91.1378 424.924L91.1432 424.927C92.8041 425.812 94.8194 425.664 96.3359 424.565L96.3387 424.563C97.8573 423.457 98.6151 421.586 98.2853 419.732L97.6032 415.768C97.5107 415.231 97.6892 414.68 98.0834 414.297Z" fill="#FFD60C"/>
<path d="M197.082 181.295L197.156 181.292C197.131 181.293 197.107 181.294 197.082 181.295Z" fill="#FFD60C"/>
<path fill-rule="evenodd" clip-rule="evenodd" d="M207.55 148.447V149.84L218.55 148.594C219.532 148.615 220.366 149.358 220.477 150.353L220.477 150.355C220.601 151.442 219.821 152.425 218.728 152.549L208.646 153.686L208.476 154.943C208.069 157.952 206.65 168.364 206.065 172.301C204.938 176.8 200.798 179.883 196.159 179.666L194.456 179.586V179.65L165.505 179.165L165.501 179.165C161.256 179.069 157.64 176.068 156.761 171.916L154.084 155.566L154.082 155.555C153.951 154.79 153.921 154.005 153.989 153.227L154.145 151.457H139.357L139.508 153.223C139.577 154.027 139.544 154.836 139.409 155.631L136.759 171.841C135.895 175.955 132.358 178.969 128.155 179.17L97.8623 179.678H97.2992L97.2668 179.679C92.6506 179.864 88.5461 176.777 87.4401 172.296C86.8651 168.425 85.474 158.242 85.0283 154.968L84.8561 153.703L75.0325 152.667C73.9846 152.515 73.2386 151.557 73.3511 150.499C73.4639 149.435 74.3967 148.656 75.4603 148.731L85.2528 149.765L85.7757 148.824C87.4737 145.769 90.6961 143.88 94.1923 143.889L94.1982 143.889L131.018 144.285C133.25 144.344 135.363 145.312 136.861 146.963L137.346 147.496H156.196L156.681 146.96C158.167 145.316 160.261 144.35 162.476 144.285L199.354 143.889L199.358 143.889C202.716 143.844 205.831 145.587 207.55 148.447ZM202.142 171.822C202.033 172.553 201.641 173.152 201.241 173.589C200.827 174.042 200.307 174.429 199.747 174.74C198.638 175.356 197.202 175.769 195.709 175.71L165.7 175.208C163.384 175.194 161.346 173.659 160.701 171.427L160.675 171.333L157.977 154.844C157.742 153.342 158.058 151.804 158.875 150.517C159.593 149.214 160.923 148.356 162.41 148.241L162.464 148.237L199.436 147.85H199.486C202.019 147.749 204.248 149.512 204.727 152.005L204.756 152.157V152.296C204.796 152.692 204.771 153.084 204.692 153.458L204.618 154.003C204.566 154.39 204.49 154.947 204.397 155.631C204.211 156.998 203.956 158.869 203.68 160.883C203.127 164.906 202.487 169.517 202.142 171.822ZM132.846 171.239L132.826 171.312C132.25 173.518 130.311 175.091 128.037 175.203L128.01 175.205L97.7059 175.714C96.2015 175.786 94.7805 175.366 93.6894 174.731C92.6892 174.149 91.5753 173.143 91.3776 171.8C91.0343 169.502 90.3946 164.894 89.8383 160.848C89.5598 158.823 89.3017 156.935 89.1115 155.543L88.8191 153.406C88.8048 153.302 88.7984 153.256 88.7994 153.262L88.7974 153.25C88.7455 152.928 88.7386 152.599 88.7767 152.275V152.208L88.806 152.055C89.2871 149.557 91.5119 147.772 94.055 147.849H94.1139L131.021 148.246L131.063 148.249C132.596 148.344 133.964 149.221 134.695 150.565C135.48 151.877 135.769 153.425 135.514 154.933L135.514 154.938L132.846 171.239Z" fill="#FFD60C"/>
</g>
<defs>
<filter id="filter0_d_130_25" x="0.972656" y="0.34082" width="290.678" height="485.659" filterUnits="userSpaceOnUse" color-interpolation-filters="sRGB">
<feFlood flood-opacity="0" result="BackgroundImageFix"/>
<feColorMatrix in="SourceAlpha" type="matrix" values="0 0 0 0 0 0 0 0 0 0 0 0 0 0 0 0 0 0 127 0" result="hardAlpha"/>
<feOffset dy="10"/>
<feGaussianBlur stdDeviation="15"/>
<feComposite in2="hardAlpha" operator="out"/>
<feColorMatrix type="matrix" values="0 0 0 0 1 0 0 0 0 0.839216 0 0 0 0 0.0470588 0 0 0 1 0"/>
<feBlend mode="normal" in2="BackgroundImageFix" result="effect1_dropShadow_130_25"/>
<feBlend mode="normal" in="SourceGraphic" in2="effect1_dropShadow_130_25" result="shape"/>
</filter>
</defs>
</svg>
