<?xml version="1.0" encoding="utf-8"?>
<!-- Generator: Adobe Illustrator 24.0.1, SVG Export Plug-In . SVG Version: 6.00 Build 0)  -->
<svg version="1.1" id="Слой_1" xmlns="http://www.w3.org/2000/svg" xmlns:xlink="http://www.w3.org/1999/xlink" x="0px" y="0px"
	 viewBox="0 0 512 512" style="enable-background:new 0 0 512 512;" xml:space="preserve">
<style type="text/css">
	.st0{fill:#FFFFFF;}
</style>
<path class="st0" d="M504,232C504,95.8,394.1,8,256,8C118.9,8,8,118.9,8,256c0,137.1,110.9,248,248,248
	c52.9,0,104.7-17.1,147.1-48.3c5.5-4.1,6.4-11.9,2.1-17.2L390,419.9c-4.1-5-11.2-5.8-16.4-2c-34,24.7-75.3,38.2-117.5,38.2
	c-110.3,0-200-89.7-200-200S145.7,56,256,56c109.5,0,200,65,200,176c0,63.1-42.5,98.3-83,98.3c-19.5,0-20.1-12.6-16.4-31.5
	l28.6-148.6c1.4-7.4-4.2-14.3-11.8-14.3h-39.2c-5.8,0-10.7,4.1-11.8,9.7c-1.1,5.7-1.7,8.3-2.3,14c-11.9-19.5-35.9-31.1-65.2-31.1
	c-71.6,0-135,62.5-135,152.9c0,61.2,32.9,102.1,93.2,102.1c29.8,0,61.3-16.8,79.7-42.2c4.1,30.8,28.5,38,59.4,38
	C451.5,379.4,504,315.8,504,232z M230.1,329.4c-28.5,0-45.5-19.5-45.5-52c0-57.5,39.6-93.4,74.6-93.4c30.1,0,45.5,21.5,45.5,51.6
	C304.7,282.3,271.5,329.4,230.1,329.4z"/>
</svg>
