<svg width="24" height="24" viewBox="0 0 24 24" fill="none" xmlns="http://www.w3.org/2000/svg">
<path d="M0 6C0 2.68629 2.68629 0 6 0H18C21.3137 0 24 2.68629 24 6V18C24 21.3137 21.3137 24 18 24H6C2.68629 24 0 21.3137 0 18V6Z" fill="#F7EAAE"/>
<path fill-rule="evenodd" clip-rule="evenodd" d="M6 1C3.23857 1 1 3.23857 1 6V18C1 20.7614 3.23858 23 6 23H18C20.7614 23 23 20.7614 23 18V6C23 3.23858 20.7614 1 18 1H6ZM6 0C2.68629 0 0 2.68629 0 6V18C0 21.3137 2.68629 24 6 24H18C21.3137 24 24 21.3137 24 18V6C24 2.68629 21.3137 0 18 0H6Z" fill="#EE8F00"/>
<path fill-rule="evenodd" clip-rule="evenodd" d="M16.5129 7.39771C16.3182 7.39771 16.1326 7.48722 16.0123 7.64125L15.8419 7.85714L10.5328 14.5825L7.98694 11.3566C7.92743 11.2811 7.85156 11.2199 7.76494 11.1779C7.67832 11.1358 7.58306 11.1139 7.48678 11.1137H7.41842H6.53111C6.27269 11.1137 6.12841 11.4115 6.288 11.614L10.0328 16.3583C10.2883 16.6815 10.7785 16.6795 11.0344 16.3581L17.7112 7.89729C17.8748 7.69257 17.7225 7.39771 17.4686 7.39771H16.5129Z" fill="#EE8F00"/>
</svg>
