<?xml version="1.0" encoding="utf-8"?>
<!-- Generator: Adobe Illustrator 24.0.1, SVG Export Plug-In . SVG Version: 6.00 Build 0)  -->
<svg version="1.1" id="Слой_1" xmlns="http://www.w3.org/2000/svg" xmlns:xlink="http://www.w3.org/1999/xlink" x="0px" y="0px"
	 viewBox="0 0 344.7 240.7" style="enable-background:new 0 0 344.7 240.7;" xml:space="preserve">
<style type="text/css">
	.st0{fill:#191919;}
</style>
<path class="st0" d="M289.6,235.3V127c0-22.6-9.3-33.9-28-33.9s-28,11.3-28.1,33.9v108.3h-55.1V127c0-22.6-9.2-33.9-27.6-33.9
	c-18.7,0-28,11.3-28,33.9v108.3H67.7V120.7c0-23.6,8.2-41.5,24.6-53.6c14.4-10.8,34-16.3,58.6-16.3c24.9,0,43.3,6.4,55.1,19.2
	c10.2-12.8,28.7-19.2,55.6-19.2c24.6,0,44.1,5.4,58.5,16.3c16.4,12.1,24.6,30,24.6,53.6v114.7H289.6z"/>
<path class="st0" d="M174.7,42.4l54.7-40L228.8,0C130,12.1,85.1,20.7,0,70l0.8,2.2l6.8,0.1C6.9,79.1,5.9,96,7.2,121.3
	c-9.4,27.3-0.2,45.9,8.4,66.1c1.4-21,1.2-44-5.2-66.9c-1.4-25.1-0.2-41.7,0.4-48.1l56.4,0.5C67,83.9,67.6,95,68.8,106
	c50.4,17.7,101.1-0.1,128-43.7C189.4,53.9,174.7,42.4,174.7,42.4L174.7,42.4z"/>
</svg>
