<svg width="318" height="43" viewBox="0 0 318 43" fill="none" xmlns="http://www.w3.org/2000/svg">
<path d="M15.432 42.728C12.4853 42.728 9.62533 42.364 6.852 41.636C4.07867 40.908 1.82533 39.9373 0.0920001 38.724L3.472 31.132C5.10133 32.2067 6.99067 33.0733 9.14 33.732C11.2893 34.3907 13.404 34.72 15.484 34.72C19.436 34.72 21.412 33.732 21.412 31.756C21.412 30.716 20.84 29.9533 19.696 29.468C18.5867 28.948 16.784 28.4107 14.288 27.856C11.5493 27.2667 9.26133 26.6427 7.424 25.984C5.58667 25.2907 4.00933 24.1987 2.692 22.708C1.37467 21.2173 0.716 19.2067 0.716 16.676C0.716 14.4573 1.32267 12.464 2.536 10.696C3.74933 8.89333 5.552 7.472 7.944 6.432C10.3707 5.392 13.3347 4.872 16.836 4.872C19.228 4.872 21.5853 5.14933 23.908 5.704C26.2307 6.224 28.276 7.004 30.044 8.044L26.872 15.688C23.4053 13.816 20.0427 12.88 16.784 12.88C14.7387 12.88 13.248 13.192 12.312 13.816C11.376 14.4053 10.908 15.1853 10.908 16.156C10.908 17.1267 11.4627 17.8547 12.572 18.34C13.6813 18.8253 15.4667 19.328 17.928 19.848C20.7013 20.4373 22.9893 21.0787 24.792 21.772C26.6293 22.4307 28.2067 23.5053 29.524 24.996C30.876 26.452 31.552 28.4453 31.552 30.976C31.552 33.16 30.9453 35.136 29.732 36.904C28.5187 38.672 26.6987 40.0933 24.272 41.168C21.8453 42.208 18.8987 42.728 15.432 42.728ZM64.648 27.96C64.648 28.0293 64.596 28.844 64.492 30.404H44.004C44.42 31.86 45.2173 32.9867 46.396 33.784C47.6093 34.5467 49.1173 34.928 50.92 34.928C52.272 34.928 53.4333 34.7373 54.404 34.356C55.4093 33.9747 56.4146 33.3507 57.42 32.484L62.62 37.892C59.8813 40.9427 55.8773 42.468 50.608 42.468C47.3146 42.468 44.42 41.844 41.924 40.596C39.428 39.348 37.4866 37.6147 36.1 35.396C34.748 33.1773 34.072 30.664 34.072 27.856C34.072 25.0827 34.7306 22.604 36.048 20.42C37.4 18.2013 39.2546 16.468 41.612 15.22C43.9693 13.972 46.6213 13.348 49.568 13.348C52.376 13.348 54.924 13.9373 57.212 15.116C59.5 16.26 61.3026 17.9413 62.62 20.16C63.972 22.344 64.648 24.944 64.648 27.96ZM49.62 20.368C48.0946 20.368 46.812 20.8013 45.772 21.668C44.7666 22.5347 44.1253 23.7133 43.848 25.204H55.392C55.1146 23.7133 54.456 22.5347 53.416 21.668C52.4106 20.8013 51.1453 20.368 49.62 20.368ZM78.6153 17.196C79.6206 15.9133 80.9206 14.96 82.5153 14.336C84.1446 13.6773 85.9993 13.348 88.0793 13.348V22.24C87.1779 22.136 86.4326 22.084 85.8433 22.084C83.7286 22.084 82.0646 22.656 80.8513 23.8C79.6726 24.944 79.0833 26.6947 79.0833 29.052V42H69.2033V13.816H78.6153V17.196ZM122.712 13.816L111.064 42H100.872L89.2757 13.816H99.4157L106.176 31.028L113.3 13.816H122.712ZM125.266 13.816H135.146V42H125.266V13.816ZM130.206 10.696C128.403 10.696 126.947 10.1933 125.838 9.188C124.728 8.18267 124.174 6.93467 124.174 5.444C124.174 3.95333 124.728 2.70533 125.838 1.7C126.947 0.694665 128.403 0.191999 130.206 0.191999C132.008 0.191999 133.464 0.677332 134.574 1.648C135.683 2.584 136.238 3.79733 136.238 5.288C136.238 6.848 135.683 8.148 134.574 9.188C133.464 10.1933 132.008 10.696 130.206 10.696ZM155.971 42.468C152.851 42.468 150.06 41.844 147.599 40.596C145.137 39.348 143.213 37.6147 141.827 35.396C140.475 33.1773 139.799 30.664 139.799 27.856C139.799 25.048 140.475 22.552 141.827 20.368C143.213 18.1493 145.137 16.4333 147.599 15.22C150.06 13.972 152.851 13.348 155.971 13.348C159.16 13.348 161.916 14.0413 164.239 15.428C166.561 16.78 168.208 18.6693 169.179 21.096L161.535 24.996C160.252 22.4653 158.38 21.2 155.919 21.2C154.151 21.2 152.677 21.7893 151.499 22.968C150.355 24.1467 149.783 25.776 149.783 27.856C149.783 29.9707 150.355 31.6347 151.499 32.848C152.677 34.0267 154.151 34.616 155.919 34.616C158.38 34.616 160.252 33.3507 161.535 30.82L169.179 34.72C168.208 37.1467 166.561 39.0533 164.239 40.44C161.916 41.792 159.16 42.468 155.971 42.468ZM201.402 27.96C201.402 28.0293 201.35 28.844 201.246 30.404H180.758C181.174 31.86 181.971 32.9867 183.15 33.784C184.363 34.5467 185.871 34.928 187.674 34.928C189.026 34.928 190.187 34.7373 191.158 34.356C192.163 33.9747 193.169 33.3507 194.174 32.484L199.374 37.892C196.635 40.9427 192.631 42.468 187.362 42.468C184.069 42.468 181.174 41.844 178.678 40.596C176.182 39.348 174.241 37.6147 172.854 35.396C171.502 33.1773 170.826 30.664 170.826 27.856C170.826 25.0827 171.485 22.604 172.802 20.42C174.154 18.2013 176.009 16.468 178.366 15.22C180.723 13.972 183.375 13.348 186.322 13.348C189.13 13.348 191.678 13.9373 193.966 15.116C196.254 16.26 198.057 17.9413 199.374 20.16C200.726 22.344 201.402 24.944 201.402 27.96ZM186.374 20.368C184.849 20.368 183.566 20.8013 182.526 21.668C181.521 22.5347 180.879 23.7133 180.602 25.204H192.146C191.869 23.7133 191.21 22.5347 190.17 21.668C189.165 20.8013 187.899 20.368 186.374 20.368ZM221.558 5.6H231.854V33.836H249.222V42H221.558V5.6ZM282.367 13.816V42H272.955V38.984C271.915 40.128 270.667 40.9947 269.211 41.584C267.755 42.1733 266.212 42.468 264.583 42.468C260.943 42.468 258.031 41.3933 255.847 39.244C253.697 37.0947 252.623 33.8707 252.623 29.572V13.816H262.503V27.96C262.503 30.0747 262.901 31.6173 263.699 32.588C264.496 33.5587 265.657 34.044 267.183 34.044C268.743 34.044 270.008 33.5067 270.979 32.432C271.984 31.3227 272.487 29.6413 272.487 27.388V13.816H282.367ZM306.619 42L301.575 34.616L296.167 42H285.455L296.167 27.908L285.767 13.816H296.895L301.887 20.94L307.087 13.816H317.539L307.139 27.544L317.903 42H306.619Z" fill="#F3F3F4"/>
</svg>
