<svg width="16" height="16" viewBox="0 0 16 16" fill="none" xmlns="http://www.w3.org/2000/svg">
<path d="M8.90091 0.371656C9.05438 0.530947 9.27225 1.19432 9.66859 2.709C9.9956 3.95878 10.308 4.94465 10.4324 5.11912C10.8247 5.66944 11.044 5.7694 13.0136 6.29523C15.2654 6.89651 15.5187 6.98949 15.7682 7.30692C15.9927 7.59238 16.0675 8.12778 15.9332 8.48749C15.7663 8.9346 15.3024 9.1399 13.2279 9.68494C11.0611 10.2543 10.6343 10.455 10.3022 11.0609C10.2036 11.2406 9.91626 12.1753 9.6636 13.1381C9.0999 15.2857 9.01433 15.5187 8.69839 15.7669C8.41916 15.9862 7.87906 16.0666 7.53831 15.9394C7.02241 15.7469 6.88789 15.4598 6.36565 13.4349C6.08673 12.3538 5.76103 11.2815 5.64183 11.0521C5.28658 10.3683 5.0572 10.2526 2.94107 9.69012C0.690098 9.0918 0.483026 9.01595 0.233351 8.69837C0.013865 8.41921 -0.066606 7.87934 0.0605237 7.53875C0.255466 7.01649 0.543822 6.88165 2.5765 6.36231C3.65929 6.08571 4.72975 5.75726 4.95541 5.63241C5.62185 5.26363 5.75778 4.9945 6.28441 3.0013C6.85844 0.828789 6.98351 0.489415 7.30172 0.239456C7.76658 -0.12561 8.47851 -0.0667629 8.90091 0.371656Z" fill="#191919"/>
</svg>
