<svg width="143" height="24" viewBox="0 0 143 24" fill="none" xmlns="http://www.w3.org/2000/svg">
<path fill-rule="evenodd" clip-rule="evenodd" d="M12.0085 0.00494038C11.4217 -0.0338469 10.766 0.157579 10.2609 0.514991C9.60393 0.980221 9.31572 1.68082 8.51393 4.76164C7.6608 8.04011 7.95165 7.75644 4.51319 8.66157C1.67457 9.40883 1.03913 9.66727 0.566987 10.2667C0.218678 10.7089 -0.0572514 11.7022 0.0102142 12.2709C0.0757967 12.8237 0.405161 13.526 0.786637 13.9261C1.19934 14.359 1.78885 14.5745 4.72407 15.3661C7.02877 15.9876 7.17539 16.0406 7.48429 16.3646C7.73951 16.6324 7.96197 17.3029 8.50664 19.4461C8.88941 20.9527 9.32121 22.41 9.46617 22.6845C10.476 24.5979 13.4515 24.3762 14.218 22.3305C14.3224 22.0518 14.706 20.681 15.0706 19.2845C15.7188 16.8003 15.7412 16.7376 16.0944 16.4005C16.3801 16.1279 17.0247 15.9058 19.1832 15.3369C20.8607 14.8945 22.1134 14.4887 22.4366 14.2824C23.6705 13.4957 23.9333 11.8445 23.0516 10.419C22.6596 9.78525 22.0025 9.50786 18.9315 8.67955C16.5003 8.0238 16.4147 7.99256 16.0946 7.6451C15.8375 7.36597 15.6186 6.70537 15.1042 4.65571C14.741 3.20859 14.3628 1.82733 14.2638 1.58617C13.9094 0.72316 12.9762 0.0688443 12.0085 0.00494038ZM13.0107 1.60999C13.2163 1.82732 13.5081 2.73242 14.039 4.79904C14.477 6.50423 14.8954 7.84934 15.0621 8.08739C15.5875 8.83823 15.8814 8.97462 18.5195 9.69205C21.5358 10.5124 21.875 10.6393 22.2093 11.0724C22.51 11.4619 22.6101 12.1924 22.4303 12.6831C22.2067 13.2932 21.5853 13.5733 18.8066 14.3169C15.9042 15.0937 15.3325 15.3675 14.8876 16.1942C14.7557 16.4395 14.3707 17.7148 14.0323 19.0284C13.2772 21.9586 13.1626 22.2765 12.7394 22.6151C12.3654 22.9144 11.6419 23.024 11.1855 22.8505C10.4945 22.5879 10.3143 22.1961 9.61475 19.4334C9.24115 17.9583 8.80487 16.4952 8.64522 16.1823C8.16937 15.2493 7.86212 15.0915 5.02761 14.324C2.01248 13.5077 1.73511 13.4042 1.40068 12.9709C1.10668 12.59 0.998894 11.8534 1.16918 11.3887C1.4303 10.6761 1.81655 10.4922 4.53927 9.78357C5.98965 9.40618 7.4235 8.95805 7.72577 8.7877C8.61845 8.28455 8.80052 7.91735 9.50594 5.19784C10.2748 2.2337 10.4424 1.77066 10.8686 1.42962C11.4913 0.931524 12.4449 1.01181 13.0107 1.60999Z" fill="#FFD60C"/>
<path d="M13.0107 1.60999C13.2163 1.82732 13.5081 2.73242 14.039 4.79904C14.477 6.50423 14.8954 7.84934 15.0621 8.08739C15.5875 8.83823 15.8814 8.97462 18.5195 9.69205C21.5358 10.5124 21.875 10.6393 22.2093 11.0724C22.51 11.4619 22.6101 12.1924 22.4303 12.6831C22.2067 13.2932 21.5853 13.5733 18.8066 14.3169C15.9042 15.0937 15.3325 15.3675 14.8876 16.1942C14.7557 16.4395 14.3707 17.7148 14.0323 19.0284C13.2772 21.9586 13.1626 22.2765 12.7394 22.6151C12.3654 22.9144 11.6419 23.024 11.1855 22.8505C10.4945 22.5879 10.3143 22.1961 9.61475 19.4334C9.24115 17.9583 8.80487 16.4952 8.64522 16.1823C8.16937 15.2493 7.86212 15.0915 5.02761 14.324C2.01248 13.5077 1.73511 13.4042 1.40068 12.9709C1.10668 12.59 0.998894 11.8534 1.16918 11.3887C1.4303 10.6761 1.81655 10.4922 4.53927 9.78357C5.98965 9.40618 7.4235 8.95805 7.72577 8.7877C8.61845 8.28455 8.80052 7.91735 9.50594 5.19784C10.2748 2.2337 10.4424 1.77066 10.8686 1.42962C11.4913 0.931524 12.4449 1.01181 13.0107 1.60999Z" fill="#FFD60C"/>
<path fill-rule="evenodd" clip-rule="evenodd" d="M12.0085 0.00494038C11.4217 -0.0338469 10.766 0.157579 10.2609 0.514991C9.60393 0.980221 9.31572 1.68082 8.51393 4.76164C7.6608 8.04011 7.95165 7.75644 4.51319 8.66157C1.67457 9.40883 1.03913 9.66727 0.566987 10.2667C0.218678 10.7089 -0.0572514 11.7022 0.0102142 12.2709C0.0757967 12.8237 0.405161 13.526 0.786637 13.9261C1.19934 14.359 1.78885 14.5745 4.72407 15.3661C7.02877 15.9876 7.17539 16.0406 7.48429 16.3646C7.73951 16.6324 7.96197 17.3029 8.50664 19.4461C8.88941 20.9527 9.32121 22.41 9.46617 22.6845C10.476 24.5979 13.4515 24.3762 14.218 22.3305C14.3224 22.0518 14.706 20.681 15.0706 19.2845C15.7188 16.8003 15.7412 16.7376 16.0944 16.4005C16.3801 16.1279 17.0247 15.9058 19.1832 15.3369C20.8607 14.8945 22.1134 14.4887 22.4366 14.2824C23.6705 13.4957 23.9333 11.8445 23.0516 10.419C22.6596 9.78525 22.0025 9.50786 18.9315 8.67955C16.5003 8.0238 16.4147 7.99256 16.0946 7.6451C15.8375 7.36597 15.6186 6.70537 15.1042 4.65571C14.741 3.20859 14.3628 1.82733 14.2638 1.58617C13.9094 0.72316 12.9762 0.0688443 12.0085 0.00494038ZM13.0107 1.60999C13.2163 1.82732 13.5081 2.73242 14.039 4.79904C14.477 6.50423 14.8954 7.84934 15.0621 8.08739C15.5875 8.83823 15.8814 8.97462 18.5195 9.69205C21.5358 10.5124 21.875 10.6393 22.2093 11.0724C22.51 11.4619 22.6101 12.1924 22.4303 12.6831C22.2067 13.2932 21.5853 13.5733 18.8066 14.3169C15.9042 15.0937 15.3325 15.3675 14.8876 16.1942C14.7557 16.4395 14.3707 17.7148 14.0323 19.0284C13.2772 21.9586 13.1626 22.2765 12.7394 22.6151C12.3654 22.9144 11.6419 23.024 11.1855 22.8505C10.4945 22.5879 10.3143 22.1961 9.61475 19.4334C9.24115 17.9583 8.80487 16.4952 8.64522 16.1823C8.16937 15.2493 7.86212 15.0915 5.02761 14.324C2.01248 13.5077 1.73511 13.4042 1.40068 12.9709C1.10668 12.59 0.998894 11.8534 1.16918 11.3887C1.4303 10.6761 1.81655 10.4922 4.53927 9.78357C5.98965 9.40618 7.4235 8.95805 7.72577 8.7877C8.61845 8.28455 8.80052 7.91736 9.50594 5.19784C10.2748 2.2337 10.4424 1.77066 10.8686 1.42962C11.4913 0.931524 12.4449 1.01181 13.0107 1.60999Z" fill="#080808"/>
<path fill-rule="evenodd" clip-rule="evenodd" d="M41.8659 0.00494038C41.2791 -0.0338469 40.6234 0.157579 40.1184 0.514991C39.4613 0.980221 39.1731 1.68082 38.3713 4.76164C37.5182 8.04011 37.8091 7.75644 34.3706 8.66157C31.532 9.40883 30.8966 9.66727 30.4244 10.2667C30.0761 10.7089 29.8002 11.7022 29.8676 12.2709C29.9332 12.8237 30.2626 13.526 30.6441 13.9261C31.0568 14.359 31.6463 14.5745 34.5815 15.3661C36.8862 15.9876 37.0328 16.0406 37.3417 16.3646C37.5969 16.6324 37.8194 17.3029 38.3641 19.4461C38.7468 20.9527 39.1786 22.41 39.3236 22.6845C40.3335 24.5979 43.3089 24.3762 44.0754 22.3305C44.1798 22.0518 44.5635 20.681 44.928 19.2845C45.5762 16.8003 45.5986 16.7376 45.9519 16.4005C46.2375 16.1279 46.8821 15.9058 49.0406 15.3369C50.7181 14.8945 51.9708 14.4887 52.2941 14.2824C53.528 13.4957 53.7907 11.8445 52.909 10.419C52.517 9.78525 51.8599 9.50786 48.7889 8.67955C46.3578 8.0238 46.2722 7.99256 45.952 7.6451C45.6949 7.36597 45.476 6.70537 44.9616 4.65571C44.5984 3.20859 44.2202 1.82733 44.1212 1.58617C43.7668 0.72316 42.8336 0.0688443 41.8659 0.00494038ZM42.8681 1.60999C43.0737 1.82732 43.3655 2.73242 43.8964 4.79904C44.3344 6.50423 44.7529 7.84934 44.9195 8.08739C45.4449 8.83823 45.7388 8.97462 48.3769 9.69205C51.3932 10.5124 51.7324 10.6393 52.0667 11.0724C52.3674 11.4619 52.4676 12.1924 52.2877 12.6831C52.0642 13.2932 51.4428 13.5733 48.664 14.3169C45.7616 15.0937 45.1899 15.3675 44.745 16.1942C44.6131 16.4395 44.2281 17.7148 43.8897 19.0284C43.1346 21.9586 43.02 22.2765 42.5968 22.6151C42.2228 22.9144 41.4994 23.024 41.0429 22.8505C40.3519 22.5879 40.1717 22.1961 39.4722 19.4334C39.0986 17.9583 38.6623 16.4952 38.5026 16.1823C38.0268 15.2493 37.7195 15.0915 34.885 14.324C31.8699 13.5077 31.5925 13.4042 31.2581 12.9709C30.9641 12.59 30.8563 11.8534 31.0266 11.3887C31.2877 10.6761 31.674 10.4922 34.3967 9.78357C35.8471 9.40618 37.2809 8.95805 37.5832 8.7877C38.4759 8.28455 38.6579 7.91735 39.3634 5.19784C40.1323 2.2337 40.2998 1.77066 40.726 1.42962C41.3487 0.931524 42.3023 1.01181 42.8681 1.60999Z" fill="#FFD60C"/>
<path d="M42.8681 1.60999C43.0737 1.82732 43.3655 2.73242 43.8964 4.79904C44.3344 6.50423 44.7529 7.84934 44.9195 8.08739C45.4449 8.83823 45.7388 8.97462 48.3769 9.69205C51.3932 10.5124 51.7324 10.6393 52.0667 11.0724C52.3674 11.4619 52.4676 12.1924 52.2877 12.6831C52.0642 13.2932 51.4428 13.5733 48.664 14.3169C45.7616 15.0937 45.1899 15.3675 44.745 16.1942C44.6131 16.4395 44.2281 17.7148 43.8897 19.0284C43.1346 21.9586 43.02 22.2765 42.5968 22.6151C42.2228 22.9144 41.4994 23.024 41.0429 22.8505C40.3519 22.5879 40.1717 22.1961 39.4722 19.4334C39.0986 17.9583 38.6623 16.4952 38.5026 16.1823C38.0268 15.2493 37.7195 15.0915 34.885 14.324C31.8699 13.5077 31.5925 13.4042 31.2581 12.9709C30.9641 12.59 30.8563 11.8534 31.0266 11.3887C31.2877 10.6761 31.674 10.4922 34.3967 9.78357C35.8471 9.40618 37.2809 8.95805 37.5832 8.7877C38.4759 8.28455 38.6579 7.91735 39.3634 5.19784C40.1323 2.2337 40.2998 1.77066 40.726 1.42962C41.3487 0.931524 42.3023 1.01181 42.8681 1.60999Z" fill="#FFD60C"/>
<path fill-rule="evenodd" clip-rule="evenodd" d="M41.8659 0.00494038C41.2791 -0.0338469 40.6234 0.157579 40.1184 0.514991C39.4613 0.980221 39.1731 1.68082 38.3713 4.76164C37.5182 8.04011 37.8091 7.75644 34.3706 8.66157C31.532 9.40883 30.8966 9.66727 30.4244 10.2667C30.0761 10.7089 29.8002 11.7022 29.8676 12.2709C29.9332 12.8237 30.2626 13.526 30.6441 13.9261C31.0568 14.359 31.6463 14.5745 34.5815 15.3661C36.8862 15.9876 37.0328 16.0406 37.3417 16.3646C37.5969 16.6324 37.8194 17.3029 38.3641 19.4461C38.7468 20.9527 39.1786 22.41 39.3236 22.6845C40.3335 24.5979 43.3089 24.3762 44.0754 22.3305C44.1798 22.0518 44.5635 20.681 44.928 19.2845C45.5762 16.8003 45.5986 16.7376 45.9519 16.4005C46.2375 16.1279 46.8821 15.9058 49.0406 15.3369C50.7181 14.8945 51.9708 14.4887 52.2941 14.2824C53.528 13.4957 53.7907 11.8445 52.909 10.419C52.517 9.78525 51.8599 9.50786 48.7889 8.67955C46.3578 8.0238 46.2722 7.99256 45.952 7.6451C45.6949 7.36597 45.476 6.70537 44.9616 4.65571C44.5984 3.20859 44.2202 1.82733 44.1212 1.58617C43.7668 0.72316 42.8336 0.0688443 41.8659 0.00494038ZM42.8681 1.60999C43.0737 1.82732 43.3655 2.73242 43.8964 4.79904C44.3344 6.50423 44.7529 7.84934 44.9195 8.08739C45.4449 8.83823 45.7388 8.97462 48.3769 9.69205C51.3932 10.5124 51.7324 10.6393 52.0667 11.0724C52.3674 11.4619 52.4676 12.1924 52.2877 12.6831C52.0642 13.2932 51.4428 13.5733 48.664 14.3169C45.7616 15.0937 45.1899 15.3675 44.745 16.1942C44.6131 16.4395 44.2281 17.7148 43.8897 19.0284C43.1346 21.9586 43.02 22.2765 42.5968 22.6151C42.2228 22.9144 41.4994 23.024 41.0429 22.8505C40.3519 22.5879 40.1717 22.1961 39.4722 19.4334C39.0986 17.9583 38.6623 16.4952 38.5026 16.1823C38.0268 15.2493 37.7195 15.0915 34.885 14.324C31.8699 13.5077 31.5925 13.4042 31.2581 12.9709C30.9641 12.59 30.8563 11.8534 31.0266 11.3887C31.2877 10.6761 31.674 10.4922 34.3967 9.78357C35.8471 9.40618 37.2809 8.95805 37.5832 8.7877C38.4759 8.28455 38.6579 7.91736 39.3634 5.19784C40.1323 2.2337 40.2998 1.77066 40.726 1.42962C41.3487 0.931524 42.3023 1.01181 42.8681 1.60999Z" fill="#080808"/>
<path fill-rule="evenodd" clip-rule="evenodd" d="M71.7233 0.00494038C71.1365 -0.0338469 70.4808 0.157579 69.9758 0.514991C69.3188 0.980221 69.0306 1.68082 68.2288 4.76164C67.3756 8.04011 67.6665 7.75644 64.228 8.66157C61.3894 9.40883 60.754 9.66727 60.2818 10.2667C59.9335 10.7089 59.6576 11.7022 59.7251 12.2709C59.7906 12.8237 60.12 13.526 60.5015 13.9261C60.9142 14.359 61.5037 14.5745 64.4389 15.3661C66.7436 15.9876 66.8902 16.0406 67.1991 16.3646C67.4543 16.6324 67.6768 17.3029 68.2215 19.4461C68.6043 20.9527 69.0361 22.41 69.181 22.6845C70.1909 24.5979 73.1663 24.3762 73.9328 22.3305C74.0372 22.0518 74.4209 20.681 74.7854 19.2845C75.4337 16.8003 75.456 16.7376 75.8093 16.4005C76.0949 16.1279 76.7395 15.9058 78.898 15.3369C80.5756 14.8945 81.8282 14.4887 82.1515 14.2824C83.3854 13.4957 83.6482 11.8445 82.7664 10.419C82.3744 9.78525 81.7173 9.50786 78.6463 8.67955C76.2152 8.0238 76.1296 7.99256 75.8094 7.6451C75.5523 7.36597 75.3334 6.70537 74.8191 4.65571C74.4558 3.20859 74.0776 1.82733 73.9786 1.58617C73.6242 0.72316 72.691 0.0688443 71.7233 0.00494038ZM72.7255 1.60999C72.9311 1.82732 73.2229 2.73242 73.7538 4.79904C74.1918 6.50423 74.6103 7.84934 74.7769 8.08739C75.3023 8.83823 75.5962 8.97462 78.2343 9.69205C81.2507 10.5124 81.5898 10.6393 81.9241 11.0724C82.2248 11.4619 82.325 12.1924 82.1451 12.6831C81.9216 13.2932 81.3002 13.5733 78.5214 14.3169C75.619 15.0937 75.0473 15.3675 74.6025 16.1942C74.4705 16.4395 74.0856 17.7148 73.7471 19.0284C72.9921 21.9586 72.8774 22.2765 72.4543 22.6151C72.0802 22.9144 71.3568 23.024 70.9003 22.8505C70.2093 22.5879 70.0291 22.1961 69.3296 19.4334C68.956 17.9583 68.5197 16.4952 68.3601 16.1823C67.8842 15.2493 67.577 15.0915 64.7425 14.324C61.7273 13.5077 61.45 13.4042 61.1155 12.9709C60.8215 12.59 60.7137 11.8534 60.884 11.3887C61.1451 10.6761 61.5314 10.4922 64.2541 9.78357C65.7045 9.40618 67.1383 8.95805 67.4406 8.7877C68.3333 8.28455 68.5154 7.91735 69.2208 5.19784C69.9897 2.2337 70.1572 1.77066 70.5834 1.42962C71.2061 0.931524 72.1597 1.01181 72.7255 1.60999Z" fill="#FFD60C"/>
<path d="M72.7255 1.60999C72.9311 1.82732 73.2229 2.73242 73.7538 4.79904C74.1918 6.50423 74.6103 7.84934 74.7769 8.08739C75.3023 8.83823 75.5962 8.97462 78.2343 9.69205C81.2507 10.5124 81.5898 10.6393 81.9241 11.0724C82.2248 11.4619 82.325 12.1924 82.1451 12.6831C81.9216 13.2932 81.3002 13.5733 78.5214 14.3169C75.619 15.0937 75.0473 15.3675 74.6025 16.1942C74.4705 16.4395 74.0856 17.7148 73.7471 19.0284C72.9921 21.9586 72.8774 22.2765 72.4543 22.6151C72.0802 22.9144 71.3568 23.024 70.9003 22.8505C70.2093 22.5879 70.0291 22.1961 69.3296 19.4334C68.956 17.9583 68.5197 16.4952 68.3601 16.1823C67.8842 15.2493 67.577 15.0915 64.7425 14.324C61.7273 13.5077 61.45 13.4042 61.1155 12.9709C60.8215 12.59 60.7137 11.8534 60.884 11.3887C61.1451 10.6761 61.5314 10.4922 64.2541 9.78357C65.7045 9.40618 67.1383 8.95805 67.4406 8.7877C68.3333 8.28455 68.5154 7.91735 69.2208 5.19784C69.9897 2.2337 70.1572 1.77066 70.5834 1.42962C71.2061 0.931524 72.1597 1.01181 72.7255 1.60999Z" fill="#FFD60C"/>
<path fill-rule="evenodd" clip-rule="evenodd" d="M71.7233 0.00494038C71.1365 -0.0338469 70.4808 0.157579 69.9758 0.514991C69.3188 0.980221 69.0306 1.68082 68.2288 4.76164C67.3756 8.04011 67.6665 7.75644 64.228 8.66157C61.3894 9.40883 60.754 9.66727 60.2818 10.2667C59.9335 10.7089 59.6576 11.7022 59.7251 12.2709C59.7906 12.8237 60.12 13.526 60.5015 13.9261C60.9142 14.359 61.5037 14.5745 64.4389 15.3661C66.7436 15.9876 66.8902 16.0406 67.1991 16.3646C67.4543 16.6324 67.6768 17.3029 68.2215 19.4461C68.6043 20.9527 69.0361 22.41 69.181 22.6845C70.1909 24.5979 73.1663 24.3762 73.9328 22.3305C74.0372 22.0518 74.4209 20.681 74.7854 19.2845C75.4337 16.8003 75.456 16.7376 75.8093 16.4005C76.0949 16.1279 76.7395 15.9058 78.898 15.3369C80.5756 14.8945 81.8282 14.4887 82.1515 14.2824C83.3854 13.4957 83.6482 11.8445 82.7664 10.419C82.3744 9.78525 81.7174 9.50786 78.6463 8.67955C76.2152 8.0238 76.1296 7.99256 75.8094 7.6451C75.5523 7.36597 75.3334 6.70537 74.8191 4.65571C74.4558 3.20859 74.0776 1.82733 73.9786 1.58617C73.6242 0.72316 72.691 0.0688443 71.7233 0.00494038ZM72.7255 1.60999C72.9311 1.82732 73.2229 2.73242 73.7538 4.79904C74.1918 6.50423 74.6103 7.84934 74.7769 8.08739C75.3023 8.83823 75.5962 8.97462 78.2343 9.69205C81.2507 10.5124 81.5898 10.6393 81.9241 11.0724C82.2248 11.4619 82.325 12.1924 82.1451 12.6831C81.9216 13.2932 81.3002 13.5733 78.5214 14.3169C75.619 15.0937 75.0473 15.3675 74.6025 16.1942C74.4705 16.4395 74.0856 17.7148 73.7471 19.0284C72.9921 21.9586 72.8774 22.2765 72.4543 22.6151C72.0802 22.9144 71.3568 23.024 70.9003 22.8505C70.2093 22.5879 70.0291 22.1961 69.3296 19.4334C68.956 17.9583 68.5197 16.4952 68.3601 16.1823C67.8842 15.2493 67.577 15.0915 64.7425 14.324C61.7273 13.5077 61.45 13.4042 61.1155 12.9709C60.8215 12.59 60.7137 11.8534 60.884 11.3887C61.1451 10.6761 61.5314 10.4922 64.2541 9.78357C65.7045 9.40618 67.1383 8.95805 67.4406 8.7877C68.3333 8.28455 68.5154 7.91736 69.2208 5.19784C69.9897 2.2337 70.1572 1.77066 70.5834 1.42962C71.2061 0.931524 72.1597 1.01181 72.7255 1.60999Z" fill="#080808"/>
<path fill-rule="evenodd" clip-rule="evenodd" d="M101.579 0.00494038C100.992 -0.0338469 100.336 0.157579 99.8312 0.514991C99.1742 0.980221 98.886 1.68082 98.0842 4.76164C97.2311 8.04011 97.522 7.75644 94.0835 8.66157C91.2449 9.40883 90.6094 9.66727 90.1373 10.2667C89.789 10.7089 89.5131 11.7022 89.5805 12.2709C89.6461 12.8237 89.9755 13.526 90.3569 13.9261C90.7697 14.359 91.3592 14.5745 94.2944 15.3661C96.5991 15.9876 96.7457 16.0406 97.0546 16.3646C97.3098 16.6324 97.5323 17.3029 98.077 19.4461C98.4597 20.9527 98.8915 22.41 99.0365 22.6845C100.046 24.5979 103.022 24.3762 103.788 22.3305C103.893 22.0518 104.276 20.681 104.641 19.2845C105.289 16.8003 105.311 16.7376 105.665 16.4005C105.95 16.1279 106.595 15.9058 108.754 15.3369C110.431 14.8945 111.684 14.4887 112.007 14.2824C113.241 13.4957 113.504 11.8445 112.622 10.419C112.23 9.78525 111.573 9.50786 108.502 8.67955C106.071 8.0238 105.985 7.99256 105.665 7.6451C105.408 7.36597 105.189 6.70537 104.675 4.65571C104.311 3.20859 103.933 1.82733 103.834 1.58617C103.48 0.72316 102.547 0.0688443 101.579 0.00494038ZM102.581 1.60999C102.787 1.82732 103.078 2.73242 103.609 4.79904C104.047 6.50423 104.466 7.84934 104.632 8.08739C105.158 8.83823 105.452 8.97462 108.09 9.69205C111.106 10.5124 111.445 10.6393 111.78 11.0724C112.08 11.4619 112.18 12.1924 112.001 12.6831C111.777 13.2932 111.156 13.5733 108.377 14.3169C105.474 15.0937 104.903 15.3675 104.458 16.1942C104.326 16.4395 103.941 17.7148 103.603 19.0284C102.848 21.9586 102.733 22.2765 102.31 22.6151C101.936 22.9144 101.212 23.024 100.756 22.8505C100.065 22.5879 99.8846 22.1961 99.1851 19.4334C98.8115 17.9583 98.3752 16.4952 98.2155 16.1823C97.7397 15.2493 97.4324 15.0915 94.5979 14.324C91.5828 13.5077 91.3054 13.4042 90.971 12.9709C90.677 12.59 90.5692 11.8534 90.7395 11.3887C91.0006 10.6761 91.3869 10.4922 94.1096 9.78357C95.56 9.40618 96.9938 8.95805 97.2961 8.7877C98.1888 8.28455 98.3708 7.91735 99.0762 5.19784C99.8451 2.2337 100.013 1.77066 100.439 1.42962C101.062 0.931524 102.015 1.01181 102.581 1.60999Z" fill="#FFD60C"/>
<path d="M102.581 1.60999C102.787 1.82732 103.078 2.73242 103.609 4.79904C104.047 6.50423 104.466 7.84934 104.632 8.08739C105.158 8.83823 105.452 8.97462 108.09 9.69205C111.106 10.5124 111.445 10.6393 111.78 11.0724C112.08 11.4619 112.18 12.1924 112.001 12.6831C111.777 13.2932 111.156 13.5733 108.377 14.3169C105.474 15.0937 104.903 15.3675 104.458 16.1942C104.326 16.4395 103.941 17.7148 103.603 19.0284C102.848 21.9586 102.733 22.2765 102.31 22.6151C101.936 22.9144 101.212 23.024 100.756 22.8505C100.065 22.5879 99.8846 22.1961 99.1851 19.4334C98.8115 17.9583 98.3752 16.4952 98.2155 16.1823C97.7397 15.2493 97.4324 15.0915 94.5979 14.324C91.5828 13.5077 91.3054 13.4042 90.971 12.9709C90.677 12.59 90.5692 11.8534 90.7395 11.3887C91.0006 10.6761 91.3869 10.4922 94.1096 9.78357C95.56 9.40618 96.9938 8.95805 97.2961 8.7877C98.1888 8.28455 98.3708 7.91735 99.0762 5.19784C99.8451 2.2337 100.013 1.77066 100.439 1.42962C101.062 0.931524 102.015 1.01181 102.581 1.60999Z" fill="#FFD60C"/>
<path fill-rule="evenodd" clip-rule="evenodd" d="M101.579 0.00494038C100.992 -0.0338469 100.336 0.157579 99.8312 0.514991C99.1742 0.980221 98.886 1.68082 98.0842 4.76164C97.2311 8.04011 97.522 7.75644 94.0835 8.66157C91.2449 9.40883 90.6094 9.66727 90.1373 10.2667C89.789 10.7089 89.5131 11.7022 89.5805 12.2709C89.6461 12.8237 89.9755 13.526 90.3569 13.9261C90.7697 14.359 91.3592 14.5745 94.2944 15.3661C96.5991 15.9876 96.7457 16.0406 97.0546 16.3646C97.3098 16.6324 97.5323 17.3029 98.077 19.4461C98.4597 20.9527 98.8915 22.41 99.0365 22.6845C100.046 24.5979 103.022 24.3762 103.788 22.3305C103.893 22.0518 104.276 20.681 104.641 19.2845C105.289 16.8003 105.311 16.7376 105.665 16.4005C105.95 16.1279 106.595 15.9058 108.754 15.3369C110.431 14.8945 111.684 14.4887 112.007 14.2824C113.241 13.4957 113.504 11.8445 112.622 10.419C112.23 9.78525 111.573 9.50786 108.502 8.67955C106.071 8.0238 105.985 7.99256 105.665 7.6451C105.408 7.36597 105.189 6.70537 104.675 4.65571C104.311 3.20859 103.933 1.82733 103.834 1.58617C103.48 0.72316 102.547 0.0688443 101.579 0.00494038ZM102.581 1.60999C102.787 1.82732 103.078 2.73242 103.609 4.79904C104.047 6.50423 104.466 7.84934 104.632 8.08739C105.158 8.83823 105.452 8.97462 108.09 9.69205C111.106 10.5124 111.445 10.6393 111.78 11.0724C112.08 11.4619 112.18 12.1924 112.001 12.6831C111.777 13.2932 111.156 13.5733 108.377 14.3169C105.474 15.0937 104.903 15.3675 104.458 16.1942C104.326 16.4395 103.941 17.7148 103.603 19.0284C102.848 21.9586 102.733 22.2765 102.31 22.6151C101.936 22.9144 101.212 23.024 100.756 22.8505C100.065 22.5879 99.8846 22.1961 99.1851 19.4334C98.8115 17.9583 98.3752 16.4952 98.2155 16.1823C97.7397 15.2493 97.4324 15.0915 94.5979 14.324C91.5828 13.5077 91.3054 13.4042 90.971 12.9709C90.677 12.59 90.5692 11.8534 90.7395 11.3887C91.0006 10.6761 91.3869 10.4922 94.1096 9.78357C95.56 9.40618 96.9938 8.95805 97.2961 8.7877C98.1888 8.28455 98.3708 7.91736 99.0762 5.19784C99.8451 2.2337 100.013 1.77066 100.439 1.42962C101.062 0.931524 102.015 1.01181 102.581 1.60999Z" fill="#080808"/>
<path fill-rule="evenodd" clip-rule="evenodd" d="M131.436 0.00494038C130.849 -0.0338469 130.194 0.157579 129.689 0.514991C129.032 0.980221 128.743 1.68082 127.942 4.76164C127.089 8.04011 127.379 7.75644 123.941 8.66157C121.102 9.40883 120.467 9.66727 119.995 10.2667C119.646 10.7089 119.37 11.7022 119.438 12.2709C119.504 12.8237 119.833 13.526 120.214 13.9261C120.627 14.359 121.217 14.5745 124.152 15.3661C126.457 15.9876 126.603 16.0406 126.912 16.3646C127.167 16.6324 127.39 17.3029 127.934 19.4461C128.317 20.9527 128.749 22.41 128.894 22.6845C129.904 24.5979 132.879 24.3762 133.646 22.3305C133.75 22.0518 134.134 20.681 134.498 19.2845C135.147 16.8003 135.169 16.7376 135.522 16.4005C135.808 16.1279 136.452 15.9058 138.611 15.3369C140.288 14.8945 141.541 14.4887 141.864 14.2824C143.098 13.4957 143.361 11.8445 142.479 10.419C142.087 9.78525 141.43 9.50786 138.359 8.67955C135.928 8.0238 135.842 7.99256 135.522 7.6451C135.265 7.36597 135.046 6.70537 134.532 4.65571C134.169 3.20859 133.791 1.82733 133.691 1.58617C133.337 0.72316 132.404 0.0688443 131.436 0.00494038ZM132.438 1.60999C132.644 1.82732 132.936 2.73242 133.467 4.79904C133.905 6.50423 134.323 7.84934 134.49 8.08739C135.015 8.83823 135.309 8.97462 137.947 9.69205C140.964 10.5124 141.303 10.6393 141.637 11.0724C141.938 11.4619 142.038 12.1924 141.858 12.6831C141.634 13.2932 141.013 13.5733 138.234 14.3169C135.332 15.0937 134.76 15.3675 134.315 16.1942C134.183 16.4395 133.798 17.7148 133.46 19.0284C132.705 21.9586 132.59 22.2765 132.167 22.6151C131.793 22.9144 131.07 23.024 130.613 22.8505C129.922 22.5879 129.742 22.1961 129.042 19.4334C128.669 17.9583 128.233 16.4952 128.073 16.1823C127.597 15.2493 127.29 15.0915 124.455 14.324C121.44 13.5077 121.163 13.4042 120.828 12.9709C120.534 12.59 120.427 11.8534 120.597 11.3887C120.858 10.6761 121.244 10.4922 123.967 9.78357C125.417 9.40618 126.851 8.95805 127.154 8.7877C128.046 8.28455 128.228 7.91735 128.934 5.19784C129.703 2.2337 129.87 1.77066 130.296 1.42962C130.919 0.931524 131.873 1.01181 132.438 1.60999Z" fill="#FFD60C"/>
<path d="M132.438 1.60999C132.644 1.82732 132.936 2.73242 133.467 4.79904C133.905 6.50423 134.323 7.84934 134.49 8.08739C135.015 8.83823 135.309 8.97462 137.947 9.69205C140.964 10.5124 141.303 10.6393 141.637 11.0724C141.938 11.4619 142.038 12.1924 141.858 12.6831C141.634 13.2932 141.013 13.5733 138.234 14.3169C135.332 15.0937 134.76 15.3675 134.315 16.1942C134.183 16.4395 133.798 17.7148 133.46 19.0284C132.705 21.9586 132.59 22.2765 132.167 22.6151C131.793 22.9144 131.07 23.024 130.613 22.8505C129.922 22.5879 129.742 22.1961 129.042 19.4334C128.669 17.9583 128.233 16.4952 128.073 16.1823C127.597 15.2493 127.29 15.0915 124.455 14.324C121.44 13.5077 121.163 13.4042 120.828 12.9709C120.534 12.59 120.427 11.8534 120.597 11.3887C120.858 10.6761 121.244 10.4922 123.967 9.78357C125.417 9.40618 126.851 8.95805 127.154 8.7877C128.046 8.28455 128.228 7.91735 128.934 5.19784C129.703 2.2337 129.87 1.77066 130.296 1.42962C130.919 0.931524 131.873 1.01181 132.438 1.60999Z" fill="#FFD60C"/>
<path fill-rule="evenodd" clip-rule="evenodd" d="M131.436 0.00494038C130.849 -0.0338469 130.194 0.157579 129.689 0.514991C129.032 0.980221 128.743 1.68082 127.942 4.76164C127.089 8.04011 127.379 7.75644 123.941 8.66157C121.102 9.40883 120.467 9.66727 119.995 10.2667C119.646 10.7089 119.37 11.7022 119.438 12.2709C119.504 12.8237 119.833 13.526 120.214 13.9261C120.627 14.359 121.217 14.5745 124.152 15.3661C126.457 15.9876 126.603 16.0406 126.912 16.3646C127.167 16.6324 127.39 17.3029 127.934 19.4461C128.317 20.9527 128.749 22.41 128.894 22.6845C129.904 24.5979 132.879 24.3762 133.646 22.3305C133.75 22.0518 134.134 20.681 134.498 19.2845C135.147 16.8003 135.169 16.7376 135.522 16.4005C135.808 16.1279 136.452 15.9058 138.611 15.3369C140.288 14.8945 141.541 14.4887 141.864 14.2824C143.098 13.4957 143.361 11.8445 142.479 10.419C142.087 9.78525 141.43 9.50786 138.359 8.67955C135.928 8.0238 135.842 7.99256 135.522 7.6451C135.265 7.36597 135.046 6.70537 134.532 4.65571C134.169 3.20859 133.791 1.82733 133.691 1.58617C133.337 0.72316 132.404 0.0688443 131.436 0.00494038ZM132.438 1.60999C132.644 1.82732 132.936 2.73242 133.467 4.79904C133.905 6.50423 134.323 7.84934 134.49 8.08739C135.015 8.83823 135.309 8.97462 137.947 9.69205C140.964 10.5124 141.303 10.6393 141.637 11.0724C141.938 11.4619 142.038 12.1924 141.858 12.6831C141.634 13.2932 141.013 13.5733 138.234 14.3169C135.332 15.0937 134.76 15.3675 134.315 16.1942C134.183 16.4395 133.798 17.7148 133.46 19.0284C132.705 21.9586 132.59 22.2765 132.167 22.6151C131.793 22.9144 131.07 23.024 130.613 22.8505C129.922 22.5879 129.742 22.1961 129.042 19.4334C128.669 17.9583 128.233 16.4952 128.073 16.1823C127.597 15.2493 127.29 15.0915 124.455 14.324C121.44 13.5077 121.163 13.4042 120.828 12.9709C120.534 12.59 120.427 11.8534 120.597 11.3887C120.858 10.6761 121.244 10.4922 123.967 9.78357C125.417 9.40618 126.851 8.95805 127.154 8.7877C128.046 8.28455 128.228 7.91736 128.934 5.19784C129.703 2.2337 129.87 1.77066 130.296 1.42962C130.919 0.931524 131.873 1.01181 132.438 1.60999Z" fill="#080808"/>
</svg>
