<svg width="142" height="23" viewBox="0 0 142 23" fill="none" xmlns="http://www.w3.org/2000/svg">
<path d="M12.2388 0.511124C12.4498 0.730191 12.7493 1.6425 13.2943 3.72558C13.744 5.44436 14.1735 6.80018 14.3446 7.04013C14.8839 7.79695 15.1856 7.93443 17.8937 8.65758C20.99 9.4845 21.3382 9.61236 21.6813 10.0489C21.99 10.4415 22.0928 11.1778 21.9082 11.6725C21.6787 12.2874 21.0408 12.5697 18.1883 13.3193C15.209 14.1023 14.6221 14.3783 14.1655 15.2116C14.03 15.4588 13.6349 16.7443 13.2874 18.0683C12.5124 21.0218 12.3947 21.3423 11.9603 21.6836C11.5763 21.9852 10.8337 22.0957 10.3652 21.9209C9.65581 21.6561 9.47085 21.2612 8.75276 18.4765C8.36926 16.9897 7.92141 15.515 7.75752 15.1995C7.26905 14.2591 6.95365 14.1 4.04398 13.3264C0.948885 12.5036 0.66416 12.3993 0.320858 11.9625C0.0190644 11.5786 -0.0915832 10.8361 0.08322 10.3677C0.351266 9.6495 0.747756 9.46406 3.54268 8.74983C5.03153 8.36943 6.5034 7.91773 6.81369 7.74602C7.73004 7.23886 7.91694 6.86874 8.64106 4.12756C9.43036 1.1398 9.60233 0.673073 10.0399 0.329315C10.6791 -0.172746 11.6579 -0.0918164 12.2388 0.511124Z" fill="#FFD60C"/>
<path d="M42.2388 0.511124C42.4498 0.730191 42.7493 1.6425 43.2943 3.72558C43.744 5.44436 44.1735 6.80018 44.3446 7.04013C44.8839 7.79695 45.1856 7.93443 47.8937 8.65758C50.99 9.4845 51.3382 9.61236 51.6813 10.0489C51.99 10.4415 52.0928 11.1778 51.9082 11.6725C51.6787 12.2874 51.0408 12.5697 48.1883 13.3193C45.209 14.1023 44.6221 14.3783 44.1655 15.2116C44.03 15.4588 43.6349 16.7443 43.2874 18.0683C42.5124 21.0218 42.3947 21.3423 41.9603 21.6836C41.5763 21.9852 40.8337 22.0957 40.3652 21.9209C39.6558 21.6561 39.4709 21.2612 38.7528 18.4765C38.3693 16.9897 37.9214 15.515 37.7575 15.1995C37.2691 14.2591 36.9537 14.1 34.044 13.3264C30.9489 12.5036 30.6642 12.3993 30.3209 11.9625C30.0191 11.5786 29.9084 10.8361 30.0832 10.3677C30.3513 9.6495 30.7478 9.46406 33.5427 8.74983C35.0315 8.36943 36.5034 7.91773 36.8137 7.74602C37.73 7.23886 37.9169 6.86874 38.6411 4.12756C39.4304 1.1398 39.6023 0.673073 40.0399 0.329315C40.6791 -0.172746 41.6579 -0.0918164 42.2388 0.511124Z" fill="#FFD60C"/>
<path d="M72.2388 0.511124C72.4498 0.730191 72.7493 1.6425 73.2943 3.72558C73.744 5.44436 74.1735 6.80018 74.3446 7.04013C74.8839 7.79695 75.1856 7.93443 77.8937 8.65758C80.99 9.4845 81.3382 9.61236 81.6813 10.0489C81.99 10.4415 82.0928 11.1778 81.9082 11.6725C81.6787 12.2874 81.0408 12.5697 78.1883 13.3193C75.209 14.1023 74.6221 14.3783 74.1655 15.2116C74.03 15.4588 73.6349 16.7443 73.2874 18.0683C72.5124 21.0218 72.3947 21.3423 71.9603 21.6836C71.5763 21.9852 70.8337 22.0957 70.3652 21.9209C69.6558 21.6561 69.4709 21.2612 68.7528 18.4765C68.3693 16.9897 67.9214 15.515 67.7575 15.1995C67.2691 14.2591 66.9537 14.1 64.044 13.3264C60.9489 12.5036 60.6642 12.3993 60.3209 11.9625C60.0191 11.5786 59.9084 10.8361 60.0832 10.3677C60.3513 9.6495 60.7478 9.46406 63.5427 8.74983C65.0315 8.36943 66.5034 7.91773 66.8137 7.74602C67.73 7.23886 67.9169 6.86874 68.6411 4.12756C69.4304 1.1398 69.6023 0.673073 70.0399 0.329315C70.6791 -0.172746 71.6579 -0.0918164 72.2388 0.511124Z" fill="#FFD60C"/>
<path d="M102.239 0.511124C102.45 0.730191 102.749 1.6425 103.294 3.72558C103.744 5.44436 104.174 6.80018 104.345 7.04013C104.884 7.79695 105.186 7.93443 107.894 8.65758C110.99 9.4845 111.338 9.61236 111.681 10.0489C111.99 10.4415 112.093 11.1778 111.908 11.6725C111.679 12.2874 111.041 12.5697 108.188 13.3193C105.209 14.1023 104.622 14.3783 104.165 15.2116C104.03 15.4588 103.635 16.7443 103.287 18.0683C102.512 21.0218 102.395 21.3423 101.96 21.6836C101.576 21.9852 100.834 22.0957 100.365 21.9209C99.6558 21.6561 99.4709 21.2612 98.7528 18.4765C98.3693 16.9897 97.9214 15.515 97.7575 15.1995C97.2691 14.2591 96.9537 14.1 94.044 13.3264C90.9489 12.5036 90.6642 12.3993 90.3209 11.9625C90.0191 11.5786 89.9084 10.8361 90.0832 10.3677C90.3513 9.6495 90.7478 9.46406 93.5427 8.74983C95.0315 8.36943 96.5034 7.91773 96.8137 7.74602C97.73 7.23886 97.9169 6.86874 98.6411 4.12756C99.4304 1.1398 99.6023 0.673073 100.04 0.329315C100.679 -0.172746 101.658 -0.0918164 102.239 0.511124Z" fill="#FFD60C"/>
<path d="M132.239 0.511124C132.45 0.730191 132.749 1.6425 133.294 3.72558C133.744 5.44436 134.174 6.80018 134.345 7.04013C134.884 7.79695 135.186 7.93443 137.894 8.65758C140.99 9.4845 141.338 9.61236 141.681 10.0489C141.99 10.4415 142.093 11.1778 141.908 11.6725C141.679 12.2874 141.041 12.5697 138.188 13.3193C135.209 14.1023 134.622 14.3783 134.165 15.2116C134.03 15.4588 133.635 16.7443 133.287 18.0683C132.512 21.0218 132.395 21.3423 131.96 21.6836C131.576 21.9852 130.834 22.0957 130.365 21.9209C129.656 21.6561 129.471 21.2612 128.753 18.4765C128.369 16.9897 127.921 15.515 127.758 15.1995C127.269 14.2591 126.954 14.1 124.044 13.3264C120.949 12.5036 120.664 12.3993 120.321 11.9625C120.019 11.5786 119.908 10.8361 120.083 10.3677C120.351 9.6495 120.748 9.46406 123.543 8.74983C125.032 8.36943 126.503 7.91773 126.814 7.74602C127.73 7.23886 127.917 6.86874 128.641 4.12756C129.43 1.1398 129.602 0.673073 130.04 0.329315C130.679 -0.172746 131.658 -0.0918164 132.239 0.511124Z" fill="#FFD60C"/>
</svg>
