<svg width="144" height="24" viewBox="0 0 144 24" fill="none" xmlns="http://www.w3.org/2000/svg">
<path d="M13.2388 1.51112C13.4498 1.73019 13.7493 2.6425 14.2943 4.72558C14.744 6.44436 15.1735 7.80018 15.3446 8.04013C15.8839 8.79695 16.1856 8.93443 18.8937 9.65758C21.99 10.4845 22.3382 10.6124 22.6813 11.0489C22.99 11.4415 23.0928 12.1778 22.9082 12.6725C22.6787 13.2874 22.0408 13.5697 19.1883 14.3193C16.209 15.1023 15.6221 15.3783 15.1655 16.2116C15.03 16.4588 14.6349 17.7443 14.2874 19.0683C13.5124 22.0218 13.3947 22.3423 12.9603 22.6836C12.5763 22.9852 11.8337 23.0957 11.3652 22.9209C10.6558 22.6561 10.4709 22.2612 9.75276 19.4765C9.36926 17.9897 8.92141 16.515 8.75752 16.1995C8.26905 15.2591 7.95365 15.1 5.04398 14.3264C1.94888 13.5036 1.66416 13.3993 1.32086 12.9625C1.01906 12.5786 0.908417 11.8361 1.08322 11.3677C1.35127 10.6495 1.74776 10.4641 4.54268 9.74983C6.03153 9.36943 7.5034 8.91773 7.81369 8.74602C8.73004 8.23886 8.91694 7.86874 9.64106 5.12756C10.4304 2.1398 10.6023 1.67307 11.0399 1.32931C11.6791 0.827254 12.6579 0.908184 13.2388 1.51112Z" fill="#FFD60C" stroke="#806A01"/>
<path d="M43.2388 1.51112C43.4498 1.73019 43.7493 2.6425 44.2943 4.72558C44.744 6.44436 45.1735 7.80018 45.3446 8.04013C45.8839 8.79695 46.1856 8.93443 48.8937 9.65758C51.99 10.4845 52.3382 10.6124 52.6813 11.0489C52.99 11.4415 53.0928 12.1778 52.9082 12.6725C52.6787 13.2874 52.0408 13.5697 49.1883 14.3193C46.209 15.1023 45.6221 15.3783 45.1655 16.2116C45.03 16.4588 44.6349 17.7443 44.2874 19.0683C43.5124 22.0218 43.3947 22.3423 42.9603 22.6836C42.5763 22.9852 41.8337 23.0957 41.3652 22.9209C40.6558 22.6561 40.4709 22.2612 39.7528 19.4765C39.3693 17.9897 38.9214 16.515 38.7575 16.1995C38.2691 15.2591 37.9537 15.1 35.044 14.3264C31.9489 13.5036 31.6642 13.3993 31.3209 12.9625C31.0191 12.5786 30.9084 11.8361 31.0832 11.3677C31.3513 10.6495 31.7478 10.4641 34.5427 9.74983C36.0315 9.36943 37.5034 8.91773 37.8137 8.74602C38.73 8.23886 38.9169 7.86874 39.6411 5.12756C40.4304 2.1398 40.6023 1.67307 41.0399 1.32931C41.6791 0.827254 42.6579 0.908184 43.2388 1.51112Z" fill="#FFD60C" stroke="#806A01"/>
<path d="M73.2388 1.51112C73.4498 1.73019 73.7493 2.6425 74.2943 4.72558C74.744 6.44436 75.1735 7.80018 75.3446 8.04013C75.8839 8.79695 76.1856 8.93443 78.8937 9.65758C81.99 10.4845 82.3382 10.6124 82.6813 11.0489C82.99 11.4415 83.0928 12.1778 82.9082 12.6725C82.6787 13.2874 82.0408 13.5697 79.1883 14.3193C76.209 15.1023 75.6221 15.3783 75.1655 16.2116C75.03 16.4588 74.6349 17.7443 74.2874 19.0683C73.5124 22.0218 73.3947 22.3423 72.9603 22.6836C72.5763 22.9852 71.8337 23.0957 71.3652 22.9209C70.6558 22.6561 70.4709 22.2612 69.7528 19.4765C69.3693 17.9897 68.9214 16.515 68.7575 16.1995C68.2691 15.2591 67.9537 15.1 65.044 14.3264C61.9489 13.5036 61.6642 13.3993 61.3209 12.9625C61.0191 12.5786 60.9084 11.8361 61.0832 11.3677C61.3513 10.6495 61.7478 10.4641 64.5427 9.74983C66.0315 9.36943 67.5034 8.91773 67.8137 8.74602C68.73 8.23886 68.9169 7.86874 69.6411 5.12756C70.4304 2.1398 70.6023 1.67307 71.0399 1.32931C71.6791 0.827254 72.6579 0.908184 73.2388 1.51112Z" fill="#FFD60C" stroke="#806A01"/>
<path d="M103.239 1.51112C103.45 1.73019 103.749 2.6425 104.294 4.72558C104.744 6.44436 105.174 7.80018 105.345 8.04013C105.884 8.79695 106.186 8.93443 108.894 9.65758C111.99 10.4845 112.338 10.6124 112.681 11.0489C112.99 11.4415 113.093 12.1778 112.908 12.6725C112.679 13.2874 112.041 13.5697 109.188 14.3193C106.209 15.1023 105.622 15.3783 105.165 16.2116C105.03 16.4588 104.635 17.7443 104.287 19.0683C103.512 22.0218 103.395 22.3423 102.96 22.6836C102.576 22.9852 101.834 23.0957 101.365 22.9209C100.656 22.6561 100.471 22.2612 99.7528 19.4765C99.3693 17.9897 98.9214 16.515 98.7575 16.1995C98.2691 15.2591 97.9537 15.1 95.044 14.3264C91.9489 13.5036 91.6642 13.3993 91.3209 12.9625C91.0191 12.5786 90.9084 11.8361 91.0832 11.3677C91.3513 10.6495 91.7478 10.4641 94.5427 9.74983C96.0315 9.36943 97.5034 8.91773 97.8137 8.74602C98.73 8.23886 98.9169 7.86874 99.6411 5.12756C100.43 2.1398 100.602 1.67307 101.04 1.32931C101.679 0.827254 102.658 0.908184 103.239 1.51112Z" fill="#FFD60C" stroke="#806A01"/>
<path d="M133.239 1.51112C133.45 1.73019 133.749 2.6425 134.294 4.72558C134.744 6.44436 135.174 7.80018 135.345 8.04013C135.884 8.79695 136.186 8.93443 138.894 9.65758C141.99 10.4845 142.338 10.6124 142.681 11.0489C142.99 11.4415 143.093 12.1778 142.908 12.6725C142.679 13.2874 142.041 13.5697 139.188 14.3193C136.209 15.1023 135.622 15.3783 135.165 16.2116C135.03 16.4588 134.635 17.7443 134.287 19.0683C133.512 22.0218 133.395 22.3423 132.96 22.6836C132.576 22.9852 131.834 23.0957 131.365 22.9209C130.656 22.6561 130.471 22.2612 129.753 19.4765C129.369 17.9897 128.921 16.515 128.758 16.1995C128.269 15.2591 127.954 15.1 125.044 14.3264C121.949 13.5036 121.664 13.3993 121.321 12.9625C121.019 12.5786 120.908 11.8361 121.083 11.3677C121.351 10.6495 121.748 10.4641 124.543 9.74983C126.032 9.36943 127.503 8.91773 127.814 8.74602C128.73 8.23886 128.917 7.86874 129.641 5.12756C130.43 2.1398 130.602 1.67307 131.04 1.32931C131.679 0.827254 132.658 0.908184 133.239 1.51112Z" fill="#FFD60C" stroke="#806A01"/>
</svg>
