<svg width="24" height="24" viewBox="0 0 24 24" fill="none" xmlns="http://www.w3.org/2000/svg">
<path fill-rule="evenodd" clip-rule="evenodd" d="M12.2268 0.0049393C11.6294 -0.0338395 10.9617 0.157544 10.4475 0.514878C9.77854 0.980005 9.4851 1.68045 8.66873 4.76059C7.80009 8.03834 8.09623 7.75474 4.59525 8.65966C1.70502 9.40676 1.05803 9.66514 0.577296 10.2644C0.222654 10.7065 -0.0582924 11.6996 0.0103999 12.2682C0.0771748 12.8209 0.412528 13.5231 0.80094 13.9231C1.22115 14.3558 1.82138 14.5713 4.80997 15.3628C7.15657 15.9841 7.30585 16.0371 7.62036 16.361C7.88022 16.6287 8.10673 17.2991 8.66131 19.4418C9.05104 20.9481 9.49068 22.4051 9.63828 22.6795C10.6665 24.5925 13.6961 24.3709 14.4765 22.3256C14.5828 22.0469 14.9734 20.6765 15.3446 19.2802C16.0046 16.7966 16.0274 16.7339 16.3871 16.3969C16.6779 16.1243 17.3342 15.9023 19.532 15.3335C21.24 14.8912 22.5154 14.4855 22.8446 14.2793C24.1009 13.4927 24.3685 11.8419 23.4707 10.4167C23.0716 9.78309 22.4026 9.50576 19.2757 8.67764C16.8004 8.02204 16.7132 7.9908 16.3872 7.64341C16.1254 7.36435 15.9025 6.7039 15.3788 4.65469C15.009 3.20788 14.6239 1.82693 14.5231 1.58582C14.1623 0.723001 13.2121 0.0688291 12.2268 0.0049393ZM13.2472 1.60963C13.4565 1.82692 13.7537 2.73182 14.2942 4.79798C14.7402 6.50279 15.1663 7.84761 15.3359 8.08561C15.8709 8.83628 16.1701 8.97264 18.8562 9.68992C21.9274 10.5101 22.2727 10.6369 22.6131 11.07C22.9192 11.4594 23.0212 12.1897 22.8381 12.6804C22.6105 13.2903 21.9778 13.5703 19.1485 14.3138C16.1933 15.0904 15.6113 15.3642 15.1583 16.1907C15.024 16.4359 14.632 17.7109 14.2874 19.0242C13.5186 21.9537 13.4019 22.2716 12.971 22.6101C12.5902 22.9093 11.8536 23.0189 11.3889 22.8455C10.6853 22.5829 10.5018 22.1912 9.78956 19.4291C9.40917 17.9543 8.96496 16.4916 8.8024 16.1787C8.3179 15.2459 8.00506 15.0882 5.11903 14.3208C2.04907 13.5047 1.76666 13.4012 1.42615 12.968C1.1268 12.5872 1.01706 11.8508 1.19044 11.3862C1.45631 10.6738 1.84958 10.4899 4.6218 9.78142C6.09855 9.40411 7.55847 8.95608 7.86624 8.78577C8.77515 8.28272 8.96053 7.91561 9.67877 5.1967C10.4617 2.2332 10.6322 1.77027 11.0662 1.4293C11.7002 0.931319 12.6711 1.01159 13.2472 1.60963Z" fill="#EAEAEE"/>
<path d="M13.2472 1.60963C13.4565 1.82692 13.7537 2.73182 14.2942 4.79798C14.7402 6.50279 15.1663 7.84761 15.3359 8.08561C15.8709 8.83628 16.1701 8.97264 18.8562 9.68992C21.9274 10.5101 22.2727 10.6369 22.6131 11.07C22.9192 11.4594 23.0212 12.1897 22.8381 12.6804C22.6105 13.2903 21.9778 13.5703 19.1485 14.3138C16.1933 15.0904 15.6113 15.3642 15.1583 16.1907C15.024 16.4359 14.632 17.7109 14.2874 19.0242C13.5186 21.9537 13.4019 22.2716 12.971 22.6101C12.5902 22.9093 11.8536 23.0189 11.3889 22.8455C10.6853 22.5829 10.5018 22.1912 9.78956 19.4291C9.40917 17.9543 8.96496 16.4916 8.8024 16.1787C8.3179 15.2459 8.00506 15.0882 5.11903 14.3208C2.04907 13.5047 1.76666 13.4012 1.42615 12.968C1.1268 12.5872 1.01706 11.8508 1.19044 11.3862C1.45631 10.6738 1.84958 10.4899 4.6218 9.78142C6.09855 9.40411 7.55847 8.95608 7.86624 8.78577C8.77515 8.28272 8.96053 7.91561 9.67877 5.1967C10.4617 2.2332 10.6322 1.77027 11.0662 1.4293C11.7002 0.931319 12.6711 1.01159 13.2472 1.60963Z" fill="#EAEAEE"/>
<path fill-rule="evenodd" clip-rule="evenodd" d="M12.2268 0.0049393C11.6294 -0.0338395 10.9617 0.157544 10.4475 0.514878C9.77854 0.980005 9.4851 1.68045 8.66873 4.76059C7.80009 8.03834 8.09623 7.75474 4.59525 8.65966C1.70502 9.40676 1.05803 9.66514 0.577296 10.2644C0.222654 10.7065 -0.0582924 11.6996 0.0103999 12.2682C0.0771748 12.8209 0.412528 13.5231 0.80094 13.9231C1.22115 14.3558 1.82138 14.5713 4.80997 15.3628C7.15657 15.9841 7.30585 16.0371 7.62036 16.361C7.88022 16.6287 8.10673 17.2991 8.66131 19.4418C9.05104 20.9481 9.49068 22.4051 9.63828 22.6795C10.6665 24.5925 13.6961 24.3709 14.4765 22.3256C14.5828 22.0469 14.9734 20.6765 15.3446 19.2802C16.0046 16.7966 16.0274 16.7339 16.3871 16.3969C16.6779 16.1243 17.3342 15.9023 19.532 15.3335C21.24 14.8912 22.5154 14.4855 22.8446 14.2793C24.1009 13.4927 24.3685 11.8419 23.4707 10.4167C23.0716 9.78309 22.4026 9.50577 19.2757 8.67764C16.8004 8.02204 16.7132 7.9908 16.3872 7.64341C16.1254 7.36435 15.9025 6.7039 15.3788 4.65469C15.009 3.20788 14.6239 1.82693 14.5231 1.58582C14.1623 0.723001 13.2121 0.0688291 12.2268 0.0049393ZM13.2472 1.60963C13.4565 1.82692 13.7537 2.73182 14.2942 4.79798C14.7402 6.5028 15.1663 7.84761 15.3359 8.08561C15.8709 8.83628 16.1701 8.97264 18.8562 9.68992C21.9274 10.5101 22.2727 10.6369 22.6131 11.07C22.9192 11.4594 23.0212 12.1897 22.8381 12.6804C22.6105 13.2903 21.9778 13.5703 19.1485 14.3138C16.1933 15.0904 15.6112 15.3642 15.1583 16.1907C15.024 16.4359 14.632 17.7109 14.2874 19.0242C13.5186 21.9537 13.4019 22.2716 12.971 22.6101C12.5902 22.9093 11.8536 23.0189 11.3889 22.8455C10.6853 22.5829 10.5018 22.1912 9.78956 19.4291C9.40917 17.9543 8.96496 16.4916 8.8024 16.1787C8.3179 15.2459 8.00506 15.0882 5.11903 14.3208C2.04907 13.5047 1.76666 13.4012 1.42615 12.968C1.1268 12.5872 1.01706 11.8508 1.19044 11.3862C1.45631 10.6738 1.84958 10.4899 4.6218 9.78142C6.09855 9.40411 7.55847 8.95608 7.86624 8.78577C8.77515 8.28273 8.96053 7.91561 9.67877 5.1967C10.4617 2.2332 10.6322 1.77027 11.0662 1.4293C11.7002 0.931319 12.6711 1.01159 13.2472 1.60963Z" fill="#080808"/>
</svg>
