<svg width="573" height="249" viewBox="0 0 573 249" fill="none" xmlns="http://www.w3.org/2000/svg">
<path fill-rule="evenodd" clip-rule="evenodd" d="M0 248.218C28.1109 233.385 59.57 219.892 90.7113 209.74C137.109 194.614 191.286 182.443 229.203 178.627C246.297 176.906 280.847 176.106 292.831 177.152L303.919 178.121L301.943 186.827C297.776 205.197 300.325 214.801 309.951 216.991C325.113 220.442 342.66 202.153 336.569 189.248C334.065 183.943 326.68 178.644 318.946 176.604C315.691 175.746 312.784 174.685 312.487 174.248C311.443 172.72 321.692 152.163 329.655 139.808C334.07 132.958 341.232 123.441 345.57 118.659C355.344 107.887 376.103 91.5094 392.15 81.9113C406.595 73.2702 446.652 54.3215 465.981 48.9326C480.685 44.8339 515.672 37.3286 515.416 38.3283C515.335 38.6469 511.334 40.9984 506.524 43.5566C501.714 46.1139 491.782 52.4369 484.453 57.6088C471.779 66.5523 471.221 67.0865 473.023 68.5519C474.604 69.8376 476.125 69.2109 482.178 64.7816C510.487 44.0672 534.31 34.9602 566.847 32.4148C570.693 32.1146 571.896 31.5197 572.282 29.7338C572.669 27.946 567.206 27.2958 547.612 26.7936C512.889 25.9044 503.128 22.8037 489.324 8.2808C481.401 -0.0556682 479.541 -0.898935 478.997 3.59848C478.73 5.79932 480.263 7.86691 486.61 13.8682C496.166 22.9009 505.824 28.5072 514.241 29.9073L520.461 30.9425L516.495 31.9484C514.313 32.5017 506.93 34.0148 500.089 35.3113C474.301 40.1964 440.033 51.0727 419.219 60.9763C366.217 86.1978 329.831 120.047 307.643 169.638C306.3 172.641 305.516 172.852 298.207 172.183C217.718 164.804 89.2826 195.814 0 241.943V248.218ZM306.655 191.164C303.503 207.366 307.021 213.586 317.999 211.218C328.417 208.972 335.497 196.51 330.206 189.735C327.324 186.046 311.76 179.147 309.794 180.689C309.081 181.249 307.667 185.963 306.655 191.164Z" fill="#FFD60C"/>
</svg>
