<svg width="532" height="115" viewBox="0 0 532 115" fill="none" xmlns="http://www.w3.org/2000/svg">
<path fill-rule="evenodd" clip-rule="evenodd" d="M202.602 36.3185C258.253 38.8733 336.5 61.6245 372.806 85.8066C375.727 87.7514 376.131 87.8679 377.672 87.2112C403.121 76.3661 424.338 73.9161 455.176 78.2602C467.286 79.9665 485.479 84.5371 498.11 89.0471C501.461 90.2433 505.114 91.4972 506.228 91.8334L508.252 92.4446L505.917 90.6386C502.756 88.1951 500.414 84.0934 499.218 78.9046C498.423 75.4572 498.43 74.4243 499.251 73.7732C500.93 72.4429 501.456 73.1559 502.177 77.7331C503.432 85.7074 506.623 89.0204 521.231 97.5155C529.474 102.309 531.609 103.811 530.869 104.3C530.129 104.788 529.422 104.697 527.676 103.885C512.902 97.0212 499.757 94.3453 480.959 94.3749C476.94 94.3815 476.086 94.2253 475.821 93.4346C475.519 92.5332 475.93 92.4917 484.24 92.5857C489.045 92.64 495.337 92.9359 498.221 93.2431C501.106 93.5498 503.578 93.7327 503.715 93.6484C504.146 93.3844 486.728 87.5505 479.104 85.4049C469.081 82.585 451.076 79.3332 442.104 78.7226C432.137 78.0438 417.971 78.451 410.318 79.6359C406.921 80.162 400.791 81.5569 396.697 82.7359C389.312 84.8622 378.311 89.1093 378.268 89.8515C378.255 90.0638 379.161 91.095 380.282 92.1425C382.944 94.6323 384.41 98.0969 383.779 100.41C382.246 106.036 368.843 107.823 363.448 103.12C360.023 100.134 362.015 96.4157 369.704 91.4408L373.349 89.0832L368.904 86.1482C364.1 82.9763 349.023 75.0704 341.138 71.5884C323.647 63.8649 296.498 55.0093 271.737 48.9505C235.882 40.1779 194.398 36.099 169.526 38.9006C164.757 39.4381 158.691 40.2681 156.049 40.7456L155.827 40.7857C151.887 41.4978 150.63 41.7249 150.22 41.4537C150.028 41.3266 150.022 41.0903 150.013 40.7434L150.012 40.7015C149.991 39.9049 151.218 39.5285 157.241 38.4842C170.628 36.162 184.634 35.4934 202.602 36.3185ZM368.755 103.149C363.286 101.323 363.775 98.473 370.332 93.9616C372.437 92.5132 374.558 91.318 375.044 91.3051C376.383 91.2695 380.842 97.186 380.893 99.0641C380.986 102.513 373.946 104.882 368.755 103.149Z" fill="#FFD60C"/>
<path fill-rule="evenodd" clip-rule="evenodd" d="M98.4877 1.20111C106.17 2.59013 110.142 3.78999 116.312 6.58512C119.521 8.03897 122.631 9.2288 123.222 9.2288C123.814 9.2288 125.261 9.89768 126.438 10.7151L128.578 12.2007L135.798 20.0817C136.785 21.5184 137.858 23.3948 138.183 24.2517L138.774 25.8093L141.351 33.7539C140.974 35.2554 142.74 40.9747 141.52 45.3257C140.779 47.9673 139.103 50.2011 138.484 51.6597C136.922 55.3424 134.383 59.1081 131.19 62.4755C117.283 77.1454 94.4087 81.2075 62.6355 74.6508C57.0223 73.4922 35.2114 66.441 27.631 63.3341C14.3187 57.8776 3.20697 48.3996 0.543905 40.2305C-1.54089 33.8334 2.53223 24.8363 9.94374 19.4688C24.8132 8.6996 44.6712 2.36737 70.5347 0.146819C75.8496 -0.309903 93.8969 0.37076 98.4877 1.20111ZM67.8875 2.52177C58.0765 3.30733 44.0141 6.40479 33.503 10.0963C26.0304 12.7205 16.0034 17.6313 12.5315 20.3675C11.6478 21.0636 11.2858 21.3695 11.3902 21.503L5.9571 26.9083C5.68062 26.9083 4.81115 28.0351 4.02464 29.4129C1.88867 33.1551 1.98044 39.1279 4.23289 42.9673C5.13646 44.5071 5.93531 45.7665 6.00884 45.7665L9.91315 48.4185L12.5568 51.1765C20.986 59.9709 45.0688 67.8164 65.9762 68.579C88.3649 69.3958 108.01 63.2439 120.487 51.5082L123.772 48.4185L125.874 44.856C126.563 44.4294 127.589 40.5575 127.593 38.3682C127.596 36.2938 125.475 33.9143 122.975 32.8718C122.212 32.5538 121.803 31.5774 122.282 30.9046V30.9046C122.488 30.6157 122.823 30.4368 123.17 30.509C124.807 30.8492 127.421 32.4678 128.478 33.8812C129.364 35.0651 129.646 36.3274 129.616 38.9894C129.546 45.4424 125.605 51.1299 116.807 57.4757C109.053 63.0689 100.37 66.7922 89.9473 68.9939C83.6406 70.3264 71.3559 71.1767 63.4756 70.8273L56.7105 70.5267L62.0049 71.9812C73.7684 75.2118 90.4721 76.2384 102.007 74.4392C109.151 73.3248 118.053 69.8909 123.439 66.1711C128.203 62.8809 132.776 57.7314 135.529 52.5572L137.287 49.2559C137.287 49.2559 139.667 43.0507 139.712 38.895C139.764 34.1707 136.852 27.1411 136.852 27.1411L135.193 23.9305C134.281 22.1649 133.49 20.9857 133.437 21.3098L124.714 14.9222C122.166 12.1359 118.773 10.5677 112.595 9.32191C100.621 6.90689 89.6556 6.2492 73.7701 6.9941C68.2699 7.25222 61.3872 7.92935 58.4753 8.49922L53.181 9.53525L44.7494 11.5861C44.4894 11.5861 42.9711 11.9744 41.3757 12.4494C36.7458 13.8277 29.3271 17.2418 25.4449 19.4888C24.4611 20.0583 21.1459 23.0733 20.2073 23.7146L17.538 25.5385C17.3557 25.6631 17.1374 25.7225 16.9245 25.781C16.4135 25.9215 15.7476 26.3345 15.1989 26.8193C14.8656 27.1137 14.1225 26.9415 14.0488 26.5028V26.5028C13.9663 26.0116 15.2442 23.9277 15.6377 23.6223C15.8394 23.4658 16.0582 23.2876 16.2952 23.0878C27.2969 13.8143 45.9777 7.2204 67.2993 5.08589C79.0963 3.9049 98.0989 4.3516 106.419 6.00582C107.647 6.25039 107.722 6.19617 106.87 5.67757C106.31 5.33635 103.53 4.52604 100.694 3.87779C96.6523 2.95374 92.8616 2.65437 83.1823 2.4929C76.3879 2.37916 69.5052 2.39271 67.8875 2.52177Z" fill="#FFD60C"/>
</svg>
