<svg width="215" height="67" viewBox="0 0 215 67" fill="none" xmlns="http://www.w3.org/2000/svg">
<path fill-rule="evenodd" clip-rule="evenodd" d="M184.174 1.31193C152.603 5.48744 109.018 25.8072 89.369 45.5112C87.7885 47.0959 87.5636 47.2001 86.6586 46.7671C71.7149 39.6167 59.5339 38.6264 42.1625 43.1487C35.3409 44.9248 25.1767 49.1069 18.1765 53.0185C16.3193 54.0561 14.2928 55.1493 13.6729 55.4479L12.5461 55.9906L13.7996 54.5342C15.4958 52.5638 16.6562 49.3759 17.119 45.4143C17.4263 42.7824 17.3788 42.0037 16.8839 41.5458C15.8723 40.6104 15.6025 41.1695 15.3852 44.6505C15.0064 50.715 13.3295 53.3424 5.37143 60.3393C0.880817 64.2876 -0.270975 65.5067 0.170966 65.8453C0.61242 66.1836 1.0112 66.0861 1.97093 65.4035C10.0921 59.6299 17.462 57.0807 28.164 56.3435C30.4522 56.186 30.9316 56.0337 31.0491 55.4267C31.1833 54.7347 30.9476 54.72 26.2211 55.1267C23.488 55.3618 19.919 55.8392 18.2897 56.1874C16.6605 56.5353 15.261 56.7731 15.1795 56.7151C14.9232 56.5334 24.5929 51.4299 28.8426 49.5038C34.429 46.9721 44.5413 43.7922 49.623 42.9692C55.2681 42.0544 63.3492 41.7891 67.7557 42.3734C69.7116 42.6329 73.2598 43.4372 75.6401 44.1609C79.9336 45.466 86.3745 48.2244 86.4302 48.7824C86.4465 48.942 85.9741 49.7563 85.3804 50.5915C83.9699 52.5768 83.2815 55.2488 83.7378 56.9678C84.8475 61.1488 92.5521 61.9545 95.425 58.1896C97.2491 55.7996 95.9587 53.076 91.3721 49.6349L89.1982 48.0042L91.6049 45.6112C94.2062 43.0249 102.456 36.4534 106.798 33.5088C116.429 26.9774 131.511 19.2019 145.351 13.6321C165.392 5.56731 188.835 0.814828 203.111 1.92256C205.849 2.13521 209.336 2.51605 210.861 2.7694L210.989 2.79063C213.262 3.16845 213.987 3.28894 214.209 3.06783C214.312 2.96428 214.306 2.78582 214.296 2.5238L214.295 2.49219C214.274 1.89055 213.559 1.65632 210.087 1.11211C202.368 -0.0981973 194.368 -0.0364376 184.174 1.31193ZM92.4054 58.4263C95.442 56.8278 95.0436 54.6986 91.1209 51.5613C89.8615 50.5541 88.6039 49.7384 88.3269 49.7483C87.5633 49.7756 85.2737 54.4177 85.3239 55.8362C85.4161 58.4405 89.5238 59.9431 92.4054 58.4263Z" fill="#FFD60C"/>
</svg>
