<svg width="315" height="44" viewBox="0 0 315 44" fill="none" xmlns="http://www.w3.org/2000/svg">
<path fill-rule="evenodd" clip-rule="evenodd" d="M43.3128 0.359798C88.8858 -0.450974 153.717 12.4926 184.333 28.5145C186.796 29.803 187.131 29.8692 188.364 29.3119C208.733 20.1102 225.973 17.2842 251.342 18.9876C261.304 19.6568 276.35 22.1376 286.848 24.8425C289.633 25.56 292.667 26.3052 293.59 26.4985L295.268 26.85L293.289 25.6353C290.611 23.9918 288.536 21.0898 287.354 17.3334C286.569 14.8377 286.534 14.0781 287.18 13.5597C288.499 12.5007 288.957 12.9994 289.726 16.3293C291.065 22.1304 293.802 24.4116 306.073 29.9505C312.997 33.0761 314.8 34.0772 314.214 34.4721C313.629 34.8667 313.048 34.8336 311.589 34.3215C299.247 29.9895 288.402 28.6576 273.043 29.5876C269.759 29.7866 269.055 29.713 268.808 29.1446C268.525 28.4966 268.859 28.4463 275.653 28.1139C279.582 27.9216 284.734 27.8351 287.104 27.9216C289.473 28.0077 291.5 28.0227 291.608 27.9541C291.95 27.7392 277.488 24.2923 271.174 23.0835C262.874 21.4948 248.034 19.9743 240.679 19.959C232.508 19.9416 220.949 20.9254 214.742 22.1661C211.987 22.717 207.033 24.0386 203.734 25.103C197.783 27.0228 188.961 30.6763 188.955 31.224C188.953 31.3807 189.734 32.0949 190.691 32.8108C192.964 34.5124 194.297 36.9884 193.873 38.7192C192.841 42.929 181.96 44.8898 177.367 41.6932C174.451 39.664 175.933 36.8346 182.02 32.8061L184.905 30.8969L181.158 28.9542C177.108 26.8546 164.477 21.7716 157.898 19.5929C143.303 14.7605 120.771 9.56261 100.3 6.3052C70.6578 1.58886 36.6007 0.594768 16.3876 3.85587C12.5115 4.48145 7.58811 5.38461 5.44747 5.86334L5.26805 5.90346C2.07628 6.61732 1.05833 6.84499 0.71294 6.66539C0.55119 6.58129 0.536935 6.40787 0.516012 6.15325L0.513479 6.12254C0.464886 5.53795 1.45254 5.20205 6.33262 4.14339C17.1805 1.78953 28.5981 0.621414 43.3128 0.359798ZM181.705 41.4585C177.164 40.3801 177.451 38.2618 182.632 34.6287C184.295 33.4623 185.981 32.4812 186.378 32.4483C187.47 32.3575 191.347 36.4911 191.462 37.8693C191.674 40.3997 186.014 42.4817 181.705 41.4585Z" fill="#191919"/>
</svg>
